STARTFONT 2.1
FONT Jsong24
SIZE 24 78 78
FONTBOUNDINGBOX 24 24 0 -4
STARTPROPERTIES 4
FONT_ASCENT 20
FONT_DESCENT 4
DEFAULT_CHAR 32
COPYRIGHT "Public Domain Font. Share and Enjoy."
ENDPROPERTIES
CHARS 7802
STARTCHAR a1a1
ENCODING 41377
SWIDTH 576 0
DWIDTH 24 0
BBX 24 24 0 -4
BITMAP
000000
000000
000000
000000
000000
000000
000000
000000
000000
000000
000000
000000
000000
000000
000000
000000
000000
000000
000000
000000
000000
000000
000000
000000
ENDCHAR
STARTCHAR a1a2
ENCODING 41378
SWIDTH 576 0
DWIDTH 24 0
BBX 24 24 0 -4
BITMAP
000000
000000
000000
000000
000000
000000
000000
000000
000000
000000
000000
000000
000000
000000
000000
000000
000000
000000
000000
100000
0c0000
070000
038000
018000
ENDCHAR
STARTCHAR a1a3
ENCODING 41379
SWIDTH 576 0
DWIDTH 24 0
BBX 24 24 0 -4
BITMAP
000000
000000
000000
000000
000000
000000
000000
000000
000000
000000
000000
000000
000000
000000
000000
000000
000000
000000
060000
090000
108000
108000
090000
060000
ENDCHAR
STARTCHAR a1a4
ENCODING 41380
SWIDTH 576 0
DWIDTH 24 0
BBX 24 24 0 -4
BITMAP
000000
000000
000000
000000
000000
000000
000000
000000
000000
000000
000000
000000
000000
000000
000000
000000
000000
000000
0e0000
0e0000
060000
060000
040000
080000
ENDCHAR
STARTCHAR a1a5
ENCODING 41381
SWIDTH 576 0
DWIDTH 24 0
BBX 24 24 0 -4
BITMAP
000000
000000
000000
000000
000000
000000
000000
000000
000000
000000
000000
000000
000000
000000
000000
000000
000000
000000
0e0000
0e0000
0e0000
000000
000000
000000
ENDCHAR
STARTCHAR a1a6
ENCODING 41382
SWIDTH 576 0
DWIDTH 24 0
BBX 24 24 0 -4
BITMAP
000000
000000
000000
000000
000000
000000
000000
000000
000000
000000
000000
003800
003800
003800
000000
000000
000000
000000
000000
000000
000000
000000
000000
000000
ENDCHAR
STARTCHAR a1a7
ENCODING 41383
SWIDTH 576 0
DWIDTH 24 0
BBX 24 24 0 -4
BITMAP
000000
000000
000000
000000
000000
000000
000000
000000
003800
003800
003800
000000
000000
000000
000000
000000
000000
000000
003800
003800
003800
000000
000000
000000
ENDCHAR
STARTCHAR a1a8
ENCODING 41384
SWIDTH 576 0
DWIDTH 24 0
BBX 24 24 0 -4
BITMAP
000000
000000
000000
000000
000000
000000
000000
000000
003800
003800
003800
000000
000000
000000
000000
000000
000000
000000
003800
003800
001800
001800
001000
002000
ENDCHAR
STARTCHAR a1a9
ENCODING 41385
SWIDTH 576 0
DWIDTH 24 0
BBX 24 24 0 -4
BITMAP
000000
000000
007c00
018300
030180
0300c0
0380c0
0180c0
000180
000180
000300
000600
000c00
000800
001000
001000
000000
000000
003800
003800
003800
000000
000000
000000
ENDCHAR
STARTCHAR a1aa
ENCODING 41386
SWIDTH 576 0
DWIDTH 24 0
BBX 24 24 0 -4
BITMAP
000000
000000
003800
003800
003800
003800
003800
003800
003800
003800
003800
001000
001000
001000
001000
001000
000000
000000
003800
003800
003800
000000
000000
000000
ENDCHAR
STARTCHAR a1ab
ENCODING 41387
SWIDTH 576 0
DWIDTH 24 0
BBX 24 24 0 -4
BITMAP
180000
0c0000
cc0000
600000
600000
000000
000000
000000
000000
000000
000000
000000
000000
000000
000000
000000
000000
000000
000000
000000
000000
000000
000000
000000
ENDCHAR
STARTCHAR a1ac
ENCODING 41388
SWIDTH 576 0
DWIDTH 24 0
BBX 24 24 0 -4
BITMAP
000000
000000
380000
440000
440000
440000
380000
000000
000000
000000
000000
000000
000000
000000
000000
000000
000000
000000
000000
000000
000000
000000
000000
000000
ENDCHAR
STARTCHAR a1ad
ENCODING 41389
SWIDTH 576 0
DWIDTH 24 0
BBX 24 24 0 -4
BITMAP
000c00
007e00
000000
000000
000000
000000
000000
000000
000000
000000
000000
000000
000000
000000
000000
000000
000000
000000
000000
000000
000000
000000
000000
000000
ENDCHAR
STARTCHAR a1ae
ENCODING 41390
SWIDTH 576 0
DWIDTH 24 0
BBX 24 24 0 -4
BITMAP
003000
007e00
000000
000000
000000
000000
000000
000000
000000
000000
000000
000000
000000
000000
000000
000000
000000
000000
000000
000000
000000
000000
000000
000000
ENDCHAR
STARTCHAR a1af
ENCODING 41391
SWIDTH 576 0
DWIDTH 24 0
BBX 24 24 0 -4
BITMAP
006600
006600
000000
000000
000000
000000
000000
000000
000000
000000
000000
000000
000000
000000
000000
000000
000000
000000
000000
000000
000000
000000
000000
000000
ENDCHAR
STARTCHAR a1b0
ENCODING 41392
SWIDTH 576 0
DWIDTH 24 0
BBX 24 24 0 -4
BITMAP
001800
006600
000000
000000
000000
000000
000000
000000
000000
000000
000000
000000
000000
000000
000000
000000
000000
000000
000000
000000
000000
000000
000000
000000
ENDCHAR
STARTCHAR a1b1
ENCODING 41393
SWIDTH 576 0
DWIDTH 24 0
BBX 24 24 0 -4
BITMAP
ffffff
000000
000000
000000
000000
000000
000000
000000
000000
000000
000000
000000
000000
000000
000000
000000
000000
000000
000000
000000
000000
000000
000000
000000
ENDCHAR
STARTCHAR a1b2
ENCODING 41394
SWIDTH 576 0
DWIDTH 24 0
BBX 24 24 0 -4
BITMAP
000000
000000
000000
000000
000000
000000
000000
000000
000000
000000
000000
000000
000000
000000
000000
000000
000000
000000
000000
000000
000000
000000
000000
ffffff
ENDCHAR
STARTCHAR a1b3
ENCODING 41395
SWIDTH 576 0
DWIDTH 24 0
BBX 24 24 0 -4
BITMAP
000000
000000
000000
000000
000000
000000
000000
000000
008000
006000
003800
001c00
000e00
000700
000700
000300
000000
000000
000000
000000
000000
000000
000000
000000
ENDCHAR
STARTCHAR a1b4
ENCODING 41396
SWIDTH 576 0
DWIDTH 24 0
BBX 24 24 0 -4
BITMAP
000000
000000
000000
000000
000000
000060
000030
000330
000180
008180
006000
003800
001c00
000e00
000700
000700
000300
000000
000000
000000
000000
000000
000000
000000
ENDCHAR
STARTCHAR a1b5
ENCODING 41397
SWIDTH 576 0
DWIDTH 24 0
BBX 24 24 0 -4
BITMAP
000000
000000
000000
000000
000000
000000
008000
004000
006000
003800
001c00
000e00
000700
001f00
006600
000000
000000
000000
000000
000000
000000
000000
000000
000000
ENDCHAR
STARTCHAR a1b6
ENCODING 41398
SWIDTH 576 0
DWIDTH 24 0
BBX 24 24 0 -4
BITMAP
000000
000000
000000
000000
000060
000030
000330
008180
004180
006000
003800
001c00
000e00
000700
001f00
006600
000000
000000
000000
000000
000000
000000
000000
000000
ENDCHAR
STARTCHAR a1b7
ENCODING 41399
SWIDTH 576 0
DWIDTH 24 0
BBX 24 24 0 -4
BITMAP
000000
000000
000000
000000
000000
000000
006180
006180
006180
006180
006180
006180
00c300
00c300
00c300
008200
018600
010400
020800
000000
000000
000000
000000
000000
ENDCHAR
STARTCHAR a1b8
ENCODING 41400
SWIDTH 576 0
DWIDTH 24 0
BBX 24 24 0 -4
BITMAP
001800
001800
003400
003400
006200
006300
00c180
0180c0
030070
06003f
0c001e
3000c6
c7ffe0
001800
001800
001800
001800
001800
001800
001800
001800
001806
ffffff
000000
ENDCHAR
STARTCHAR a1b9
ENCODING 41401
SWIDTH 576 0
DWIDTH 24 0
BBX 24 24 0 -4
BITMAP
000000
000000
000000
000000
004000
007000
006060
007ff0
00c060
00c0c0
0180c0
030180
020100
040200
086400
101800
000e00
000700
000380
000180
000000
000000
000000
000000
ENDCHAR
STARTCHAR a1ba
ENCODING 41402
SWIDTH 576 0
DWIDTH 24 0
BBX 24 24 0 -4
BITMAP
000002
000003
000007
00000f
00003c
000070
0001c0
000300
03c600
043800
081c00
082600
104700
108300
310000
220000
260000
2c0000
380000
300000
700000
600000
e00000
c00000
ENDCHAR
STARTCHAR a1bb
ENCODING 41403
SWIDTH 576 0
DWIDTH 24 0
BBX 24 24 0 -4
BITMAP
000000
000000
000000
007e00
03c3c0
0e0070
180018
30000c
200004
600006
400002
400002
400002
400002
600006
200004
30000c
180018
0e0070
03c3c0
007e00
000000
000000
000000
ENDCHAR
STARTCHAR a1bc
ENCODING 41404
SWIDTH 576 0
DWIDTH 24 0
BBX 24 24 0 -4
BITMAP
000000
000000
000000
000000
000000
000000
000000
000000
000000
000000
400000
7ffffc
3ffffe
180000
000000
000000
000000
000000
000000
000000
000000
000000
000000
000000
ENDCHAR
STARTCHAR a1bd
ENCODING 41405
SWIDTH 576 0
DWIDTH 24 0
BBX 24 24 0 -4
BITMAP
000000
000000
000000
000000
000000
000000
000000
000000
000000
000000
000000
000000
ffffff
000000
000000
000000
000000
000000
000000
000000
000000
000000
000000
000000
ENDCHAR
STARTCHAR a1be
ENCODING 41406
SWIDTH 576 0
DWIDTH 24 0
BBX 24 24 0 -4
BITMAP
000000
000000
000000
000000
000000
000000
000000
000000
000000
000000
000000
000000
007e00
000000
000000
000000
000000
000000
000000
000000
000000
000000
000000
000000
ENDCHAR
STARTCHAR a1bf
ENCODING 41407
SWIDTH 576 0
DWIDTH 24 0
BBX 24 24 0 -4
BITMAP
000001
000002
000004
000008
000010
000020
000040
000080
000100
000200
000400
000800
001000
002000
004000
008000
010000
020000
040000
080000
100000
200000
400000
800000
ENDCHAR
STARTCHAR a1c0
ENCODING 41408
SWIDTH 576 0
DWIDTH 24 0
BBX 24 24 0 -4
BITMAP
800000
400000
200000
100000
080000
040000
020000
010000
008000
004000
002000
001000
000800
000400
000200
000100
000080
000040
000020
000010
000008
000004
000002
000001
ENDCHAR
STARTCHAR a1c1
ENCODING 41409
SWIDTH 576 0
DWIDTH 24 0
BBX 24 24 0 -4
BITMAP
000000
000000
000000
000000
000000
000000
000000
000000
000000
1f0000
61e000
807800
001e01
000786
0000f8
000000
000000
000000
000000
000000
000000
000000
000000
000000
ENDCHAR
STARTCHAR a1c2
ENCODING 41410
SWIDTH 576 0
DWIDTH 24 0
BBX 24 24 0 -4
BITMAP
004200
004200
004200
004200
004200
004200
004200
004200
004200
004200
004200
004200
004200
004200
004200
004200
004200
004200
004200
004200
004200
004200
004200
004200
ENDCHAR
STARTCHAR a1c3
ENCODING 41411
SWIDTH 576 0
DWIDTH 24 0
BBX 24 24 0 -4
BITMAP
001000
001000
001000
001000
001000
001000
001000
001000
001000
001000
001000
001000
001000
001000
001000
001000
001000
001000
001000
001000
001000
001000
001000
001000
ENDCHAR
STARTCHAR a1c4
ENCODING 41412
SWIDTH 576 0
DWIDTH 24 0
BBX 24 24 0 -4
BITMAP
000000
000000
000000
000000
000000
000000
000000
000000
000000
000000
000000
70381c
70381c
70381c
000000
000000
000000
000000
000000
000000
000000
000000
000000
000000
ENDCHAR
STARTCHAR a1c5
ENCODING 41413
SWIDTH 576 0
DWIDTH 24 0
BBX 24 24 0 -4
BITMAP
000000
000000
000000
000000
000000
000000
000000
000000
000000
000000
000000
1c0070
1c0070
1c0070
000000
000000
000000
000000
000000
000000
000000
000000
000000
000000
ENDCHAR
STARTCHAR a1c6
ENCODING 41414
SWIDTH 576 0
DWIDTH 24 0
BBX 24 24 0 -4
BITMAP
000010
000020
000060
000060
000070
000070
000000
000000
000000
000000
000000
000000
000000
000000
000000
000000
000000
000000
000000
000000
000000
000000
000000
000000
ENDCHAR
STARTCHAR a1c7
ENCODING 41415
SWIDTH 576 0
DWIDTH 24 0
BBX 24 24 0 -4
BITMAP
0e0000
0e0000
060000
060000
040000
080000
000000
000000
000000
000000
000000
000000
000000
000000
000000
000000
000000
000000
000000
000000
000000
000000
000000
000000
ENDCHAR
STARTCHAR a1c8
ENCODING 41416
SWIDTH 576 0
DWIDTH 24 0
BBX 24 24 0 -4
BITMAP
000084
000108
000318
000318
00039c
00039c
000000
000000
000000
000000
000000
000000
000000
000000
000000
000000
000000
000000
000000
000000
000000
000000
000000
000000
ENDCHAR
STARTCHAR a1c9
ENCODING 41417
SWIDTH 576 0
DWIDTH 24 0
BBX 24 24 0 -4
BITMAP
39c000
39c000
18c000
18c000
108000
210000
000000
000000
000000
000000
000000
000000
000000
000000
000000
000000
000000
000000
000000
000000
000000
000000
000000
000000
ENDCHAR
STARTCHAR a1ca
ENCODING 41418
SWIDTH 576 0
DWIDTH 24 0
BBX 24 24 0 -4
BITMAP
000020
000040
0000c0
000080
000180
000100
000300
000300
000200
000600
000600
000600
000600
000600
000600
000200
000300
000300
000100
000180
000080
0000c0
000040
000020
ENDCHAR
STARTCHAR a1cb
ENCODING 41419
SWIDTH 576 0
DWIDTH 24 0
BBX 24 24 0 -4
BITMAP
040000
020000
030000
010000
018000
008000
00c000
00c000
004000
006000
006000
006000
006000
006000
006000
004000
00c000
00c000
008000
018000
010000
030000
020000
040000
ENDCHAR
STARTCHAR a1cc
ENCODING 41420
SWIDTH 576 0
DWIDTH 24 0
BBX 24 24 0 -4
BITMAP
000030
0000c0
000300
000c00
000800
000800
000800
000800
000800
000800
000800
000800
000800
000800
000800
000800
000800
000800
000800
000800
000c00
000300
0000c0
000030
ENDCHAR
STARTCHAR a1cd
ENCODING 41421
SWIDTH 576 0
DWIDTH 24 0
BBX 24 24 0 -4
BITMAP
0c0000
030000
00c000
003000
001000
001000
001000
001000
001000
001000
001000
001000
001000
001000
001000
001000
001000
001000
001000
001000
003000
00c000
030000
0c0000
ENDCHAR
STARTCHAR a1ce
ENCODING 41422
SWIDTH 576 0
DWIDTH 24 0
BBX 24 24 0 -4
BITMAP
0007f0
000400
000400
000400
000400
000400
000400
000400
000400
000400
000400
000400
000400
000400
000400
000400
000400
000400
000400
000400
000400
000400
000400
0007f0
ENDCHAR
STARTCHAR a1cf
ENCODING 41423
SWIDTH 576 0
DWIDTH 24 0
BBX 24 24 0 -4
BITMAP
0fe000
002000
002000
002000
002000
002000
002000
002000
002000
002000
002000
002000
002000
002000
002000
002000
002000
002000
002000
002000
002000
002000
002000
0fe000
ENDCHAR
STARTCHAR a1d0
ENCODING 41424
SWIDTH 576 0
DWIDTH 24 0
BBX 24 24 0 -4
BITMAP
000040
000080
000080
000180
000180
000180
000180
000180
000180
000100
000200
000400
000200
000100
000180
000180
000180
000180
000180
000180
000180
000080
000080
000040
ENDCHAR
STARTCHAR a1d1
ENCODING 41425
SWIDTH 576 0
DWIDTH 24 0
BBX 24 24 0 -4
BITMAP
020000
010000
010000
018000
018000
018000
018000
018000
018000
008000
004000
002000
004000
008000
018000
018000
018000
018000
018000
018000
018000
010000
010000
020000
ENDCHAR
STARTCHAR a1d2
ENCODING 41426
SWIDTH 576 0
DWIDTH 24 0
BBX 24 24 0 -4
BITMAP
000010
000010
000020
000040
000080
000080
000100
000200
000400
000400
000800
001000
000800
000400
000400
000200
000100
000100
000080
000040
000040
000020
000010
000010
ENDCHAR
STARTCHAR a1d3
ENCODING 41427
SWIDTH 576 0
DWIDTH 24 0
BBX 24 24 0 -4
BITMAP
080000
080000
040000
020000
010000
010000
008000
004000
002000
002000
001000
000800
001000
002000
002000
004000
008000
008000
010000
020000
020000
040000
080000
080000
ENDCHAR
STARTCHAR a1d4
ENCODING 41428
SWIDTH 576 0
DWIDTH 24 0
BBX 24 24 0 -4
BITMAP
000044
000044
000088
000110
000110
000220
000440
000440
000880
001100
001100
002200
001100
001100
000880
000440
000440
000220
000220
000110
000088
000088
000044
000044
ENDCHAR
STARTCHAR a1d5
ENCODING 41429
SWIDTH 576 0
DWIDTH 24 0
BBX 24 24 0 -4
BITMAP
220000
220000
110000
088000
088000
044000
022000
022000
011000
008800
008800
004400
008800
008800
011000
022000
022000
044000
044000
088000
110000
110000
220000
220000
ENDCHAR
STARTCHAR a1d6
ENCODING 41430
SWIDTH 576 0
DWIDTH 24 0
BBX 24 24 0 -4
BITMAP
0007f0
000400
000400
000400
000400
000400
000400
000400
000400
000400
000400
000400
000400
000400
000400
000400
000000
000000
000000
000000
000000
000000
000000
000000
ENDCHAR
STARTCHAR a1d7
ENCODING 41431
SWIDTH 576 0
DWIDTH 24 0
BBX 24 24 0 -4
BITMAP
000000
000000
000000
000000
000000
000000
000000
000000
002000
002000
002000
002000
002000
002000
002000
002000
002000
002000
002000
002000
002000
002000
002000
0fe000
ENDCHAR
STARTCHAR a1d8
ENCODING 41432
SWIDTH 576 0
DWIDTH 24 0
BBX 24 24 0 -4
BITMAP
0007f8
000408
000408
0004f8
000480
000480
000480
000480
000480
000480
000480
000480
000480
000480
000480
000780
000000
000000
000000
000000
000000
000000
000000
000000
ENDCHAR
STARTCHAR a1d9
ENCODING 41433
SWIDTH 576 0
DWIDTH 24 0
BBX 24 24 0 -4
BITMAP
000000
000000
000000
000000
000000
000000
000000
000000
01e000
012000
012000
012000
012000
012000
012000
012000
012000
012000
012000
012000
1f2000
102000
102000
1fe000
ENDCHAR
STARTCHAR a1da
ENCODING 41434
SWIDTH 576 0
DWIDTH 24 0
BBX 24 24 0 -4
BITMAP
0007f0
0007e0
0007c0
0007c0
000780
000780
000700
000700
000700
000600
000600
000600
000600
000600
000600
000700
000700
000700
000780
000780
0007c0
0007c0
0007e0
0007f0
ENDCHAR
STARTCHAR a1db
ENCODING 41435
SWIDTH 576 0
DWIDTH 24 0
BBX 24 24 0 -4
BITMAP
0fe000
07e000
03e000
03e000
01e000
01e000
00e000
00e000
00e000
006000
006000
006000
006000
006000
006000
00e000
00e000
00e000
01e000
01e000
03e000
03e000
07e000
0fe000
ENDCHAR
STARTCHAR a1dc
ENCODING 41436
SWIDTH 576 0
DWIDTH 24 0
BBX 24 24 0 -4
BITMAP
000000
000000
000000
001000
001000
001000
001000
001000
001000
001000
001000
1ffff8
001000
001000
001000
001000
001000
001000
001000
001000
001000
000000
000000
000000
ENDCHAR
STARTCHAR a1dd
ENCODING 41437
SWIDTH 576 0
DWIDTH 24 0
BBX 24 24 0 -4
BITMAP
000000
000000
000000
000000
000000
000000
000000
000000
000000
000000
000000
1ffff8
000000
000000
000000
000000
000000
000000
000000
000000
000000
000000
000000
000000
ENDCHAR
STARTCHAR a1de
ENCODING 41438
SWIDTH 576 0
DWIDTH 24 0
BBX 24 24 0 -4
BITMAP
000000
000000
000000
001000
001000
001000
001000
001000
001000
001000
1ffff8
001000
001000
001000
001000
001000
001000
001000
000000
000000
1ffff8
000000
000000
000000
ENDCHAR
STARTCHAR a1df
ENCODING 41439
SWIDTH 576 0
DWIDTH 24 0
BBX 24 24 0 -4
BITMAP
000000
000000
000000
000000
080010
040020
020040
010080
008100
004200
002400
001800
001800
002400
004200
008100
010080
020040
040020
080010
000000
000000
000000
000000
ENDCHAR
STARTCHAR a1e0
ENCODING 41440
SWIDTH 576 0
DWIDTH 24 0
BBX 24 24 0 -4
BITMAP
000000
000000
000000
000000
003800
003800
003800
000000
000000
000000
000000
1ffff8
000000
000000
000000
000000
003800
003800
003800
000000
000000
000000
000000
000000
ENDCHAR
STARTCHAR a1e1
ENCODING 41441
SWIDTH 576 0
DWIDTH 24 0
BBX 24 24 0 -4
BITMAP
000000
000000
000000
000000
000000
000000
000000
000000
000000
1ffff8
000000
000000
000000
000000
1ffff8
000000
000000
000000
000000
000000
000000
000000
000000
000000
ENDCHAR
STARTCHAR a1e2
ENCODING 41442
SWIDTH 576 0
DWIDTH 24 0
BBX 24 24 0 -4
BITMAP
000000
000000
000000
000000
000200
000200
000200
000400
000400
1ffff8
000800
000800
001000
001000
1ffff8
002000
002000
004000
004000
004000
000000
000000
000000
000000
ENDCHAR
STARTCHAR a1e3
ENCODING 41443
SWIDTH 576 0
DWIDTH 24 0
BBX 24 24 0 -4
BITMAP
000000
000000
00000c
000030
0000c0
000300
000c00
003000
00c000
030000
0c0000
300000
0c0000
020000
018000
006000
001800
000600
000100
0000c0
000030
00000c
000000
000000
ENDCHAR
STARTCHAR a1e4
ENCODING 41444
SWIDTH 576 0
DWIDTH 24 0
BBX 24 24 0 -4
BITMAP
000000
000000
300000
0c0000
030000
00c000
003000
000c00
000300
0000c0
000030
00000c
000030
000040
000180
000600
001800
006000
008000
030000
0c0000
300000
000000
000000
ENDCHAR
STARTCHAR a1e5
ENCODING 41445
SWIDTH 576 0
DWIDTH 24 0
BBX 24 24 0 -4
BITMAP
000000
000000
000018
0000e0
000700
003800
01c000
060000
180000
060000
01c000
003800
000700
0000e0
000018
000000
1ffff8
000000
000000
000000
1ffff8
000000
000000
000000
ENDCHAR
STARTCHAR a1e6
ENCODING 41446
SWIDTH 576 0
DWIDTH 24 0
BBX 24 24 0 -4
BITMAP
000000
000000
180000
070000
00e000
001c00
000380
000060
000018
000060
000380
001c00
00e000
070000
180000
000000
1ffff8
000000
000000
000000
1ffff8
000000
000000
000000
ENDCHAR
STARTCHAR a1e7
ENCODING 41447
SWIDTH 576 0
DWIDTH 24 0
BBX 24 24 0 -4
BITMAP
000000
000000
000000
000000
000000
000000
0700e0
1dc3b8
30660c
202404
603c06
401802
401802
603c06
202404
30660c
1dc3b8
0700e0
000000
000000
000000
000000
000000
000000
ENDCHAR
STARTCHAR a1e8
ENCODING 41448
SWIDTH 576 0
DWIDTH 24 0
BBX 24 24 0 -4
BITMAP
000000
000000
000000
000000
003800
003800
003800
000000
000000
000000
000000
000000
000000
000000
000000
000000
000000
1c0070
1c0070
1c0070
000000
000000
000000
000000
ENDCHAR
STARTCHAR a1e9
ENCODING 41449
SWIDTH 576 0
DWIDTH 24 0
BBX 24 24 0 -4
BITMAP
000000
000000
000ffc
00000c
000014
000024
000044
000084
000104
000204
000404
000804
039000
0c6000
101000
101000
200800
200800
200800
101000
101000
0c6000
038000
000000
ENDCHAR
STARTCHAR a1ea
ENCODING 41450
SWIDTH 576 0
DWIDTH 24 0
BBX 24 24 0 -4
BITMAP
000000
003800
00c600
010100
010100
020080
020080
020080
010100
010100
00c600
003800
001000
001000
0fffe0
001000
001000
001000
001000
001000
001000
001000
001000
001000
ENDCHAR
STARTCHAR a1eb
ENCODING 41451
SWIDTH 576 0
DWIDTH 24 0
BBX 24 24 0 -4
BITMAP
000000
000000
060000
090000
108000
108000
090000
060000
000000
000000
000000
000000
000000
000000
000000
000000
000000
000000
000000
000000
000000
000000
000000
000000
ENDCHAR
STARTCHAR a1ec
ENCODING 41452
SWIDTH 576 0
DWIDTH 24 0
BBX 24 24 0 -4
BITMAP
000000
000000
038000
030000
060000
040000
080000
000000
000000
000000
000000
000000
000000
000000
000000
000000
000000
000000
000000
000000
000000
000000
000000
000000
ENDCHAR
STARTCHAR a1ed
ENCODING 41453
SWIDTH 576 0
DWIDTH 24 0
BBX 24 24 0 -4
BITMAP
000000
000000
1ce000
18c000
318000
210000
420000
000000
000000
000000
000000
000000
000000
000000
000000
000000
000000
000000
000000
000000
000000
000000
000000
000000
ENDCHAR
STARTCHAR a1ee
ENCODING 41454
SWIDTH 576 0
DWIDTH 24 0
BBX 24 24 0 -4
BITMAP
000000
000000
300380
480c64
84301c
84600c
48c004
318004
018000
030000
030000
030000
030000
030000
030000
018000
018000
00c002
00c004
006008
001830
0007c0
000000
000000
ENDCHAR
STARTCHAR a1ef
ENCODING 41455
SWIDTH 576 0
DWIDTH 24 0
BBX 24 24 0 -4
BITMAP
000000
000000
3f80fc
0e0030
060020
030040
030040
018080
3ffffc
00c100
006200
006200
003400
3ffffc
001800
001800
001800
001800
001800
001800
001800
007e00
000000
000000
ENDCHAR
STARTCHAR a1f0
ENCODING 41456
SWIDTH 576 0
DWIDTH 24 0
BBX 24 24 0 -4
BITMAP
000000
000800
000800
003e00
01c980
0308c0
060860
060860
070800
038800
01e800
007e00
001f80
0009e0
000870
000830
060830
060830
030860
0189c0
007e00
000800
000800
000000
ENDCHAR
STARTCHAR a1f1
ENCODING 41457
SWIDTH 576 0
DWIDTH 24 0
BBX 24 24 0 -4
BITMAP
000000
000000
000000
000000
000000
000000
000000
000100
000100
003e00
00c380
0184c0
0184c0
030800
030800
031000
031000
01a040
01a080
00c300
007c00
008000
008000
000000
ENDCHAR
STARTCHAR a1f2
ENCODING 41458
SWIDTH 576 0
DWIDTH 24 0
BBX 24 24 0 -4
BITMAP
000000
000000
000f80
003060
004030
008038
018038
018030
018000
018000
00c000
00c000
3fff00
00c000
006000
006000
0e6000
11e000
207004
20cc18
1187f0
0e01e0
000000
000000
ENDCHAR
STARTCHAR a1f3
ENCODING 41459
SWIDTH 576 0
DWIDTH 24 0
BBX 24 24 0 -4
BITMAP
000000
070002
18c004
104008
306010
306020
306040
306080
104100
18c200
070400
000800
001000
0020e0
004318
008208
01060c
02060c
04060c
08060c
100208
200318
4000e0
000000
ENDCHAR
STARTCHAR a1f4
ENCODING 41460
SWIDTH 576 0
DWIDTH 24 0
BBX 24 24 0 -4
BITMAP
004080
004080
004080
004080
004080
004080
0ffff8
0ffff8
008100
008100
008100
008100
008100
008100
008100
1ffff0
1ffff0
010200
010200
010200
010200
010200
010200
010200
ENDCHAR
STARTCHAR a1f5
ENCODING 41461
SWIDTH 576 0
DWIDTH 24 0
BBX 24 24 0 -4
BITMAP
000000
000000
007000
018c00
030600
060200
060200
060200
030600
030c00
01b0f8
01c020
06c020
086040
187040
303880
301d00
300e00
300704
180b84
0c31f8
03c070
000000
000000
ENDCHAR
STARTCHAR a1f6
ENCODING 41462
SWIDTH 576 0
DWIDTH 24 0
BBX 24 24 0 -4
BITMAP
000000
000000
000000
000000
000000
001000
003800
003800
0610c0
0711c0
01d700
003800
003800
01d700
0711c0
0610c0
003800
003800
001000
000000
000000
000000
000000
000000
ENDCHAR
STARTCHAR a1f7
ENCODING 41463
SWIDTH 576 0
DWIDTH 24 0
BBX 24 24 0 -4
BITMAP
000000
000000
000000
007e00
01e180
038040
070020
0e1d90
0c3390
186188
18c188
10c308
118310
118310
118720
088b40
087180
040010
020020
0180c0
007f00
000000
000000
000000
ENDCHAR
STARTCHAR a1f8
ENCODING 41464
SWIDTH 576 0
DWIDTH 24 0
BBX 24 24 0 -4
BITMAP
000000
000000
007e00
018180
0300c0
0300c0
018000
00e000
003c00
00cf00
010380
0300c0
0300c0
01c080
00f300
003c00
000700
000180
0300c0
0300c0
018180
007e00
000000
000000
ENDCHAR
STARTCHAR a1f9
ENCODING 41465
SWIDTH 576 0
DWIDTH 24 0
BBX 24 24 0 -4
BITMAP
000000
000000
001000
002800
002800
004400
004400
004200
008200
3f81f8
100010
080020
040040
020080
010100
020080
021080
042840
044440
098320
0a00a0
0c0060
000000
000000
ENDCHAR
STARTCHAR a1fa
ENCODING 41466
SWIDTH 576 0
DWIDTH 24 0
BBX 24 24 0 -4
BITMAP
000000
000000
001000
001000
003800
003800
007c00
007c00
00fe00
3ffff8
1ffff0
0fffe0
07ffc0
03ff80
01ff00
01ff00
03ff80
03ef80
07c7c0
0701c0
0e00e0
080020
000000
000000
ENDCHAR
STARTCHAR a1fb
ENCODING 41467
SWIDTH 576 0
DWIDTH 24 0
BBX 24 24 0 -4
BITMAP
000000
007e00
018180
060060
080010
100008
100008
200004
200004
400002
400002
400002
400002
400002
400002
200004
200004
100008
100008
080010
060060
018180
007e00
000000
ENDCHAR
STARTCHAR a1fc
ENCODING 41468
SWIDTH 576 0
DWIDTH 24 0
BBX 24 24 0 -4
BITMAP
000000
007e00
01ff80
07ffe0
0ffff0
1ffff8
1ffff8
3ffffc
3ffffc
7ffffe
7ffffe
7ffffe
7ffffe
7ffffe
7ffffe
3ffffc
3ffffc
1ffff8
1ffff8
0ffff0
07ffe0
01ff80
007e00
000000
ENDCHAR
STARTCHAR a1fd
ENCODING 41469
SWIDTH 576 0
DWIDTH 24 0
BBX 24 24 0 -4
BITMAP
000000
007e00
018180
060060
080010
103c08
10c308
210084
220044
420042
440022
440022
440022
440022
420042
220044
210084
10c308
103c08
080010
060060
018180
007e00
000000
ENDCHAR
STARTCHAR a1fe
ENCODING 41470
SWIDTH 576 0
DWIDTH 24 0
BBX 24 24 0 -4
BITMAP
001800
002400
004200
008100
010080
020040
040020
080010
100008
200004
400002
800001
800001
400002
200004
100008
080010
040020
020040
010080
008100
004200
002400
001800
ENDCHAR
STARTCHAR a2a1
ENCODING 41633
SWIDTH 576 0
DWIDTH 24 0
BBX 24 24 0 -4
BITMAP
001800
003c00
007e00
00ff00
01ff80
03ffc0
07ffe0
0ffff0
1ffff8
3ffffc
7ffffe
ffffff
ffffff
7ffffe
3ffffc
1ffff8
0ffff0
07ffe0
03ffc0
01ff80
00ff00
007e00
003c00
001800
ENDCHAR
STARTCHAR a2a2
ENCODING 41634
SWIDTH 576 0
DWIDTH 24 0
BBX 24 24 0 -4
BITMAP
000000
7ffffe
400002
400002
400002
400002
400002
400002
400002
400002
400002
400002
400002
400002
400002
400002
400002
400002
400002
400002
400002
400002
7ffffe
000000
ENDCHAR
STARTCHAR a2a3
ENCODING 41635
SWIDTH 576 0
DWIDTH 24 0
BBX 24 24 0 -4
BITMAP
000000
7ffffe
7ffffe
7ffffe
7ffffe
7ffffe
7ffffe
7ffffe
7ffffe
7ffffe
7ffffe
7ffffe
7ffffe
7ffffe
7ffffe
7ffffe
7ffffe
7ffffe
7ffffe
7ffffe
7ffffe
7ffffe
7ffffe
000000
ENDCHAR
STARTCHAR a2a4
ENCODING 41636
SWIDTH 576 0
DWIDTH 24 0
BBX 24 24 0 -4
BITMAP
000000
000000
000000
001000
002800
002800
004400
004400
008200
008100
010100
010080
020080
020040
040020
080020
080010
100008
100008
200004
7ffffe
000000
000000
000000
ENDCHAR
STARTCHAR a2a5
ENCODING 41637
SWIDTH 576 0
DWIDTH 24 0
BBX 24 24 0 -4
BITMAP
000000
000000
000000
001000
003800
003800
007c00
007c00
00fe00
00ff00
01ff00
01ff80
03ff80
03ffc0
07ffe0
0fffe0
0ffff0
1ffff8
1ffff8
3ffffc
7ffffe
000000
000000
000000
ENDCHAR
STARTCHAR a2a6
ENCODING 41638
SWIDTH 576 0
DWIDTH 24 0
BBX 24 24 0 -4
BITMAP
000000
000000
000000
7ffffe
200004
100008
100008
080010
080020
040020
020040
020080
010080
010100
008100
008200
004400
004400
002800
002800
001000
000000
000000
000000
ENDCHAR
STARTCHAR a2a7
ENCODING 41639
SWIDTH 576 0
DWIDTH 24 0
BBX 24 24 0 -4
BITMAP
000000
000000
000000
7ffffe
3ffffc
1ffff8
1ffff8
0ffff0
0fffe0
07ffe0
03ffc0
03ff80
01ff80
01ff00
00ff00
00fe00
007c00
007c00
003800
003800
001000
000000
000000
000000
ENDCHAR
STARTCHAR a2a8
ENCODING 41640
SWIDTH 576 0
DWIDTH 24 0
BBX 24 24 0 -4
BITMAP
000000
000000
000000
101808
083c10
043c20
021840
010080
008100
004200
0c2430
1e1878
1e1878
0c2430
004200
008100
010080
021840
043c20
083c10
101808
000000
000000
000000
ENDCHAR
STARTCHAR a2a9
ENCODING 41641
SWIDTH 576 0
DWIDTH 24 0
BBX 24 24 0 -4
BITMAP
000000
000000
7ffffe
7ffffe
000000
000000
000000
000000
7ffffe
7ffffe
001800
001800
001800
001800
001800
001800
001800
001800
001800
001800
001800
001800
001800
000000
ENDCHAR
STARTCHAR a2aa
ENCODING 41642
SWIDTH 576 0
DWIDTH 24 0
BBX 24 24 0 -4
BITMAP
000000
000000
000000
000000
000000
000000
000000
000040
000020
000018
00000c
ffffff
00000c
000018
000020
000040
000000
000000
000000
000000
000000
000000
000000
000000
ENDCHAR
STARTCHAR a2ab
ENCODING 41643
SWIDTH 576 0
DWIDTH 24 0
BBX 24 24 0 -4
BITMAP
000000
000000
000000
000000
000000
000000
000000
020000
040000
180000
300000
ffffff
300000
180000
040000
020000
000000
000000
000000
000000
000000
000000
000000
000000
ENDCHAR
STARTCHAR a2ac
ENCODING 41644
SWIDTH 576 0
DWIDTH 24 0
BBX 24 24 0 -4
BITMAP
001000
001000
003800
007c00
005400
009200
011100
001000
001000
001000
001000
001000
001000
001000
001000
001000
001000
001000
001000
001000
001000
001000
001000
001000
ENDCHAR
STARTCHAR a2ad
ENCODING 41645
SWIDTH 576 0
DWIDTH 24 0
BBX 24 24 0 -4
BITMAP
001000
001000
001000
001000
001000
001000
001000
001000
001000
001000
001000
001000
001000
001000
001000
001000
001000
011100
009200
005400
007c00
003800
001000
001000
ENDCHAR
STARTCHAR a2ae
ENCODING 41646
SWIDTH 576 0
DWIDTH 24 0
BBX 24 24 0 -4
BITMAP
000000
000000
000000
000000
7ffffe
7ffffe
7ffffe
7ffffe
7ffffe
7ffffe
000000
000000
000000
000000
7ffffe
7ffffe
7ffffe
7ffffe
7ffffe
7ffffe
000000
000000
000000
000000
ENDCHAR
STARTCHAR a2af
ENCODING 41647
SWIDTH 576 0
DWIDTH 24 0
BBX 24 24 0 -4
BITMAP
000000
000000
000000
000000
000000
000000
000000
000000
000000
000000
000000
000000
000000
000000
000000
000000
000000
000000
000000
000000
000000
000000
000000
000000
ENDCHAR
STARTCHAR a2b0
ENCODING 41648
SWIDTH 576 0
DWIDTH 24 0
BBX 24 24 0 -4
BITMAP
000000
000000
000000
000000
000000
000000
000000
000000
000000
000000
000000
000000
000000
000000
000000
000000
000000
000000
000000
000000
000000
000000
000000
000000
ENDCHAR
STARTCHAR a2b1
ENCODING 41649
SWIDTH 576 0
DWIDTH 24 0
BBX 24 24 0 -4
BITMAP
000000
000000
000000
000000
000000
000000
000000
000000
000000
000000
000000
000000
000000
000000
000000
000000
000000
000000
000000
000000
000000
000000
000000
000000
ENDCHAR
STARTCHAR a2b2
ENCODING 41650
SWIDTH 576 0
DWIDTH 24 0
BBX 24 24 0 -4
BITMAP
000000
000000
000000
000000
000000
000000
000000
000000
000000
000000
000000
000000
000000
000000
000000
000000
000000
000000
000000
000000
000000
000000
000000
000000
ENDCHAR
STARTCHAR a2b3
ENCODING 41651
SWIDTH 576 0
DWIDTH 24 0
BBX 24 24 0 -4
BITMAP
000000
000000
000000
000000
000000
000000
000000
000000
000000
000000
000000
000000
000000
000000
000000
000000
000000
000000
000000
000000
000000
000000
000000
000000
ENDCHAR
STARTCHAR a2b4
ENCODING 41652
SWIDTH 576 0
DWIDTH 24 0
BBX 24 24 0 -4
BITMAP
000000
000000
000000
000000
000000
000000
000000
000000
000000
000000
000000
000000
000000
000000
000000
000000
000000
000000
000000
000000
000000
000000
000000
000000
ENDCHAR
STARTCHAR a2b5
ENCODING 41653
SWIDTH 576 0
DWIDTH 24 0
BBX 24 24 0 -4
BITMAP
000000
000000
000000
000000
000000
000000
000000
000000
000000
000000
000000
000000
000000
000000
000000
000000
000000
000000
000000
000000
000000
000000
000000
000000
ENDCHAR
STARTCHAR a2b6
ENCODING 41654
SWIDTH 576 0
DWIDTH 24 0
BBX 24 24 0 -4
BITMAP
000000
000000
000000
000000
000000
000000
000000
000000
000000
000000
000000
000000
000000
000000
000000
000000
000000
000000
000000
000000
000000
000000
000000
000000
ENDCHAR
STARTCHAR a2b7
ENCODING 41655
SWIDTH 576 0
DWIDTH 24 0
BBX 24 24 0 -4
BITMAP
000000
000000
000000
000000
000000
000000
000000
000000
000000
000000
000000
000000
000000
000000
000000
000000
000000
000000
000000
000000
000000
000000
000000
000000
ENDCHAR
STARTCHAR a2b8
ENCODING 41656
SWIDTH 576 0
DWIDTH 24 0
BBX 24 24 0 -4
BITMAP
000000
000000
000000
000000
000000
000000
000000
000000
000000
000000
000000
000000
000000
000000
000000
000000
000000
000000
000000
000000
000000
000000
000000
000000
ENDCHAR
STARTCHAR a2b9
ENCODING 41657
SWIDTH 576 0
DWIDTH 24 0
BBX 24 24 0 -4
BITMAP
000000
000000
000000
000000
000000
000000
000000
000000
000000
000000
000000
000000
000000
000000
000000
000000
000000
000000
000000
000000
000000
000000
000000
000000
ENDCHAR
STARTCHAR a2ba
ENCODING 41658
SWIDTH 576 0
DWIDTH 24 0
BBX 24 24 0 -4
BITMAP
000000
000000
000000
000000
000000
000000
000000
000000
000000
000000
000000
000000
000000
000000
000000
000000
000000
000000
000000
000000
000000
000000
000000
000000
ENDCHAR
STARTCHAR a2bb
ENCODING 41659
SWIDTH 576 0
DWIDTH 24 0
BBX 24 24 0 -4
BITMAP
000000
000000
000000
000000
000000
000000
000000
000000
000000
000000
000000
000000
000000
000000
000000
000000
000000
000000
000000
000000
000000
000000
000000
000000
ENDCHAR
STARTCHAR a2bc
ENCODING 41660
SWIDTH 576 0
DWIDTH 24 0
BBX 24 24 0 -4
BITMAP
000000
000000
000000
000000
000000
000000
000000
000000
000000
000000
000000
000000
000000
000000
000000
000000
000000
000000
000000
000000
000000
000000
000000
000000
ENDCHAR
STARTCHAR a2bd
ENCODING 41661
SWIDTH 576 0
DWIDTH 24 0
BBX 24 24 0 -4
BITMAP
000000
000000
000000
000000
000000
000000
000000
000000
000000
000000
000000
000000
000000
000000
000000
000000
000000
000000
000000
000000
000000
000000
000000
000000
ENDCHAR
STARTCHAR a2be
ENCODING 41662
SWIDTH 576 0
DWIDTH 24 0
BBX 24 24 0 -4
BITMAP
000000
000000
000000
000000
000000
000000
000000
000000
000000
000000
000000
000000
000000
000000
000000
000000
000000
000000
000000
000000
000000
000000
000000
000000
ENDCHAR
STARTCHAR a2bf
ENCODING 41663
SWIDTH 576 0
DWIDTH 24 0
BBX 24 24 0 -4
BITMAP
000000
000000
000000
000000
000000
000000
000000
000000
000000
000000
000000
000000
000000
000000
000000
000000
000000
000000
000000
000000
000000
000000
000000
000000
ENDCHAR
STARTCHAR a2c0
ENCODING 41664
SWIDTH 576 0
DWIDTH 24 0
BBX 24 24 0 -4
BITMAP
000000
000000
000000
000000
000000
000000
000000
000000
000000
000000
000000
000000
000000
000000
000000
000000
000000
000000
000000
000000
000000
000000
000000
000000
ENDCHAR
STARTCHAR a2c1
ENCODING 41665
SWIDTH 576 0
DWIDTH 24 0
BBX 24 24 0 -4
BITMAP
000000
000000
000000
000000
000000
000000
000000
000000
000000
000000
000000
000000
000000
000000
000000
000000
000000
000000
000000
000000
000000
000000
000000
000000
ENDCHAR
STARTCHAR a2c2
ENCODING 41666
SWIDTH 576 0
DWIDTH 24 0
BBX 24 24 0 -4
BITMAP
000000
000000
000000
000000
000000
000000
000000
000000
000000
000000
000000
000000
000000
000000
000000
000000
000000
000000
000000
000000
000000
000000
000000
000000
ENDCHAR
STARTCHAR a2c3
ENCODING 41667
SWIDTH 576 0
DWIDTH 24 0
BBX 24 24 0 -4
BITMAP
000000
000000
000000
000000
000000
000000
000000
000000
000000
000000
000000
000000
000000
000000
000000
000000
000000
000000
000000
000000
000000
000000
000000
000000
ENDCHAR
STARTCHAR a2c4
ENCODING 41668
SWIDTH 576 0
DWIDTH 24 0
BBX 24 24 0 -4
BITMAP
000000
000000
000000
000000
000000
000000
000000
000000
000000
000000
000000
000000
000000
000000
000000
000000
000000
000000
000000
000000
000000
000000
000000
000000
ENDCHAR
STARTCHAR a2c5
ENCODING 41669
SWIDTH 576 0
DWIDTH 24 0
BBX 24 24 0 -4
BITMAP
000000
000000
000000
000000
000000
000000
000000
000000
000000
000000
000000
000000
000000
000000
000000
000000
000000
000000
000000
000000
000000
000000
000000
000000
ENDCHAR
STARTCHAR a2c6
ENCODING 41670
SWIDTH 576 0
DWIDTH 24 0
BBX 24 24 0 -4
BITMAP
000000
000000
000000
000000
000000
000000
000000
000000
000000
000000
000000
000000
000000
000000
000000
000000
000000
000000
000000
000000
000000
000000
000000
000000
ENDCHAR
STARTCHAR a2c7
ENCODING 41671
SWIDTH 576 0
DWIDTH 24 0
BBX 24 24 0 -4
BITMAP
000000
000000
000000
000000
000000
000000
000000
000000
000000
000000
000000
000000
000000
000000
000000
000000
000000
000000
000000
000000
000000
000000
000000
000000
ENDCHAR
STARTCHAR a2c8
ENCODING 41672
SWIDTH 576 0
DWIDTH 24 0
BBX 24 24 0 -4
BITMAP
000000
000000
000000
000000
000000
000000
000000
000000
000000
000000
000000
000000
000000
000000
000000
000000
000000
000000
000000
000000
000000
000000
000000
000000
ENDCHAR
STARTCHAR a2c9
ENCODING 41673
SWIDTH 576 0
DWIDTH 24 0
BBX 24 24 0 -4
BITMAP
000000
000000
000000
000000
000000
000000
000000
000000
000000
000000
000000
000000
000000
000000
000000
000000
000000
000000
000000
000000
000000
000000
000000
000000
ENDCHAR
STARTCHAR a2ca
ENCODING 41674
SWIDTH 576 0
DWIDTH 24 0
BBX 24 24 0 -4
BITMAP
000000
000000
000000
000000
000000
000000
000000
000000
000000
000000
000000
000000
000000
000000
000000
000000
000000
000000
000000
000000
000000
000000
000000
000000
ENDCHAR
STARTCHAR a2cb
ENCODING 41675
SWIDTH 576 0
DWIDTH 24 0
BBX 24 24 0 -4
BITMAP
000000
000000
000000
000000
000000
000000
000000
000000
000000
000000
000000
000000
000000
000000
000000
000000
000000
000000
000000
000000
000000
000000
000000
000000
ENDCHAR
STARTCHAR a2cc
ENCODING 41676
SWIDTH 576 0
DWIDTH 24 0
BBX 24 24 0 -4
BITMAP
000000
000000
000000
000000
000000
000000
000000
000000
000000
000000
000000
000000
000000
000000
000000
000000
000000
000000
000000
000000
000000
000000
000000
000000
ENDCHAR
STARTCHAR a2cd
ENCODING 41677
SWIDTH 576 0
DWIDTH 24 0
BBX 24 24 0 -4
BITMAP
000000
000000
000000
000000
000000
000000
000000
000000
000000
000000
000000
000000
000000
000000
000000
000000
000000
000000
000000
000000
000000
000000
000000
000000
ENDCHAR
STARTCHAR a2ce
ENCODING 41678
SWIDTH 576 0
DWIDTH 24 0
BBX 24 24 0 -4
BITMAP
000000
000000
000000
000000
000000
000000
000000
000000
000000
000000
000000
000000
000000
000000
000000
000000
000000
000000
000000
000000
000000
000000
000000
000000
ENDCHAR
STARTCHAR a2cf
ENCODING 41679
SWIDTH 576 0
DWIDTH 24 0
BBX 24 24 0 -4
BITMAP
000000
000000
000000
000000
000000
000000
000000
000000
000000
000000
000000
000000
000000
000000
000000
000000
000000
000000
000000
000000
000000
000000
000000
000000
ENDCHAR
STARTCHAR a2d0
ENCODING 41680
SWIDTH 576 0
DWIDTH 24 0
BBX 24 24 0 -4
BITMAP
000000
000000
000000
000000
000000
000000
000000
000000
000000
000000
000000
000000
000000
000000
000000
000000
000000
000000
000000
000000
000000
000000
000000
000000
ENDCHAR
STARTCHAR a2d1
ENCODING 41681
SWIDTH 576 0
DWIDTH 24 0
BBX 24 24 0 -4
BITMAP
000000
000000
000000
000000
000000
000000
000000
000000
000000
000000
000000
000000
000000
000000
000000
000000
000000
000000
000000
000000
000000
000000
000000
000000
ENDCHAR
STARTCHAR a2d2
ENCODING 41682
SWIDTH 576 0
DWIDTH 24 0
BBX 24 24 0 -4
BITMAP
000000
000000
000000
000000
000000
000000
000000
000000
000000
000000
000000
000000
000000
000000
000000
000000
000000
000000
000000
000000
000000
000000
000000
000000
ENDCHAR
STARTCHAR a2d3
ENCODING 41683
SWIDTH 576 0
DWIDTH 24 0
BBX 24 24 0 -4
BITMAP
000000
000000
000000
000000
000000
000000
000000
000000
000000
000000
000000
000000
000000
000000
000000
000000
000000
000000
000000
000000
000000
000000
000000
000000
ENDCHAR
STARTCHAR a2d4
ENCODING 41684
SWIDTH 576 0
DWIDTH 24 0
BBX 24 24 0 -4
BITMAP
000000
000000
000000
000000
000000
000000
000000
000000
000000
000000
000000
000000
000000
000000
000000
000000
000000
000000
000000
000000
000000
000000
000000
000000
ENDCHAR
STARTCHAR a2d5
ENCODING 41685
SWIDTH 576 0
DWIDTH 24 0
BBX 24 24 0 -4
BITMAP
000000
000000
000000
000000
000000
000000
000000
000000
000000
000000
000000
000000
000000
000000
000000
000000
000000
000000
000000
000000
000000
000000
000000
000000
ENDCHAR
STARTCHAR a2d6
ENCODING 41686
SWIDTH 576 0
DWIDTH 24 0
BBX 24 24 0 -4
BITMAP
000000
000000
000000
000000
000000
000000
000000
000000
000000
000000
000000
000000
000000
000000
000000
000000
000000
000000
000000
000000
000000
000000
000000
000000
ENDCHAR
STARTCHAR a2d7
ENCODING 41687
SWIDTH 576 0
DWIDTH 24 0
BBX 24 24 0 -4
BITMAP
000000
000000
000000
000000
000000
000000
000000
000000
000000
000000
000000
000000
000000
000000
000000
000000
000000
000000
000000
000000
000000
000000
000000
000000
ENDCHAR
STARTCHAR a2d8
ENCODING 41688
SWIDTH 576 0
DWIDTH 24 0
BBX 24 24 0 -4
BITMAP
000000
000000
000000
000000
000000
000000
000000
000000
000000
000000
000000
000000
000000
000000
000000
000000
000000
000000
000000
000000
000000
000000
000000
000000
ENDCHAR
STARTCHAR a2d9
ENCODING 41689
SWIDTH 576 0
DWIDTH 24 0
BBX 24 24 0 -4
BITMAP
000000
000000
000000
000000
000000
000000
000000
000000
000000
000000
000000
000000
000000
000000
000000
000000
000000
000000
000000
000000
000000
000000
000000
000000
ENDCHAR
STARTCHAR a2da
ENCODING 41690
SWIDTH 576 0
DWIDTH 24 0
BBX 24 24 0 -4
BITMAP
000000
000000
000000
000000
000000
000000
000000
000000
000000
000000
000000
000000
000000
000000
000000
000000
000000
000000
000000
000000
000000
000000
000000
000000
ENDCHAR
STARTCHAR a2db
ENCODING 41691
SWIDTH 576 0
DWIDTH 24 0
BBX 24 24 0 -4
BITMAP
000000
000000
000000
000000
000000
000000
000000
000000
000000
000000
000000
000000
000000
000000
000000
000000
000000
000000
000000
000000
000000
000000
000000
000000
ENDCHAR
STARTCHAR a2dc
ENCODING 41692
SWIDTH 576 0
DWIDTH 24 0
BBX 24 24 0 -4
BITMAP
000000
000000
000000
000000
000000
000000
000000
000000
000000
000000
000000
000000
000000
000000
000000
000000
000000
000000
000000
000000
000000
000000
000000
000000
ENDCHAR
STARTCHAR a2dd
ENCODING 41693
SWIDTH 576 0
DWIDTH 24 0
BBX 24 24 0 -4
BITMAP
000000
000000
000000
000000
000000
000000
000000
000000
000000
000000
000000
000000
000000
000000
000000
000000
000000
000000
000000
000000
000000
000000
000000
000000
ENDCHAR
STARTCHAR a2de
ENCODING 41694
SWIDTH 576 0
DWIDTH 24 0
BBX 24 24 0 -4
BITMAP
000000
000000
000000
000000
000000
000000
000000
000000
000000
000000
000000
000000
000000
000000
000000
000000
000000
000000
000000
000000
000000
000000
000000
000000
ENDCHAR
STARTCHAR a2df
ENCODING 41695
SWIDTH 576 0
DWIDTH 24 0
BBX 24 24 0 -4
BITMAP
000000
000000
000000
000000
000000
000000
000000
000000
000000
000000
000000
000000
000000
000000
000000
000000
000000
000000
000000
000000
000000
000000
000000
000000
ENDCHAR
STARTCHAR a2e0
ENCODING 41696
SWIDTH 576 0
DWIDTH 24 0
BBX 24 24 0 -4
BITMAP
000000
000000
000000
000000
000000
000000
000000
000000
000000
000000
000000
000000
000000
000000
000000
000000
000000
000000
000000
000000
000000
000000
000000
000000
ENDCHAR
STARTCHAR a2e1
ENCODING 41697
SWIDTH 576 0
DWIDTH 24 0
BBX 24 24 0 -4
BITMAP
000000
000000
000000
000000
000000
000000
000000
000000
000000
000000
000000
000000
000000
000000
000000
000000
000000
000000
000000
000000
000000
000000
000000
000000
ENDCHAR
STARTCHAR a2e2
ENCODING 41698
SWIDTH 576 0
DWIDTH 24 0
BBX 24 24 0 -4
BITMAP
000000
000000
000000
000000
000000
000000
000000
000000
000000
000000
000000
000000
000000
000000
000000
000000
000000
000000
000000
000000
000000
000000
000000
000000
ENDCHAR
STARTCHAR a2e3
ENCODING 41699
SWIDTH 576 0
DWIDTH 24 0
BBX 24 24 0 -4
BITMAP
000000
000000
000000
000000
000000
000000
000000
000000
000000
000000
000000
000000
000000
000000
000000
000000
000000
000000
000000
000000
000000
000000
000000
000000
ENDCHAR
STARTCHAR a2e4
ENCODING 41700
SWIDTH 576 0
DWIDTH 24 0
BBX 24 24 0 -4
BITMAP
000000
000000
000000
000000
000000
000000
000000
000000
000000
000000
000000
000000
000000
000000
000000
000000
000000
000000
000000
000000
000000
000000
000000
000000
ENDCHAR
STARTCHAR a2e5
ENCODING 41701
SWIDTH 576 0
DWIDTH 24 0
BBX 24 24 0 -4
BITMAP
000000
000000
000000
000000
000000
000000
000000
000000
000000
000000
000000
000000
000000
000000
000000
000000
000000
000000
000000
000000
000000
000000
000000
000000
ENDCHAR
STARTCHAR a2e6
ENCODING 41702
SWIDTH 576 0
DWIDTH 24 0
BBX 24 24 0 -4
BITMAP
000000
000000
000000
000000
000000
000000
000000
000000
000000
000000
000000
000000
000000
000000
000000
000000
000000
000000
000000
000000
000000
000000
000000
000000
ENDCHAR
STARTCHAR a2e7
ENCODING 41703
SWIDTH 576 0
DWIDTH 24 0
BBX 24 24 0 -4
BITMAP
000000
000000
000000
000000
000000
000000
000000
000000
000000
000000
000000
000000
000000
000000
000000
000000
000000
000000
000000
000000
000000
000000
000000
000000
ENDCHAR
STARTCHAR a2e8
ENCODING 41704
SWIDTH 576 0
DWIDTH 24 0
BBX 24 24 0 -4
BITMAP
000000
000000
000000
000000
000000
000000
000000
000000
000000
000000
000000
000000
000000
000000
000000
000000
000000
000000
000000
000000
000000
000000
000000
000000
ENDCHAR
STARTCHAR a2e9
ENCODING 41705
SWIDTH 576 0
DWIDTH 24 0
BBX 24 24 0 -4
BITMAP
000000
000000
000000
000000
000000
000000
000000
000000
000000
000000
000000
000000
000000
000000
000000
000000
000000
000000
000000
000000
000000
000000
000000
000000
ENDCHAR
STARTCHAR a2ea
ENCODING 41706
SWIDTH 576 0
DWIDTH 24 0
BBX 24 24 0 -4
BITMAP
000000
000000
000000
000000
000000
000000
000000
000000
000000
000000
000000
000000
000000
000000
000000
000000
000000
000000
000000
000000
000000
000000
000000
000000
ENDCHAR
STARTCHAR a2eb
ENCODING 41707
SWIDTH 576 0
DWIDTH 24 0
BBX 24 24 0 -4
BITMAP
000000
000000
000000
000000
000000
000000
000000
000000
000000
000000
000000
000000
000000
000000
000000
000000
000000
000000
000000
000000
000000
000000
000000
000000
ENDCHAR
STARTCHAR a2ec
ENCODING 41708
SWIDTH 576 0
DWIDTH 24 0
BBX 24 24 0 -4
BITMAP
000000
000000
000000
000000
000000
000000
000000
000000
000000
000000
000000
000000
000000
000000
000000
000000
000000
000000
000000
000000
000000
000000
000000
000000
ENDCHAR
STARTCHAR a2ed
ENCODING 41709
SWIDTH 576 0
DWIDTH 24 0
BBX 24 24 0 -4
BITMAP
000000
000000
000000
000000
000000
000000
000000
000000
000000
000000
000000
000000
000000
000000
000000
000000
000000
000000
000000
000000
000000
000000
000000
000000
ENDCHAR
STARTCHAR a2ee
ENCODING 41710
SWIDTH 576 0
DWIDTH 24 0
BBX 24 24 0 -4
BITMAP
000000
000000
000000
000000
000000
000000
000000
000000
000000
000000
000000
000000
000000
000000
000000
000000
000000
000000
000000
000000
000000
000000
000000
000000
ENDCHAR
STARTCHAR a2ef
ENCODING 41711
SWIDTH 576 0
DWIDTH 24 0
BBX 24 24 0 -4
BITMAP
000000
000000
000000
000000
000000
000000
000000
000000
000000
000000
000000
000000
000000
000000
000000
000000
000000
000000
000000
000000
000000
000000
000000
000000
ENDCHAR
STARTCHAR a2f0
ENCODING 41712
SWIDTH 576 0
DWIDTH 24 0
BBX 24 24 0 -4
BITMAP
000000
000000
000000
000000
000000
000000
000000
000000
000000
000000
000000
000000
000000
000000
000000
000000
000000
000000
000000
000000
000000
000000
000000
000000
ENDCHAR
STARTCHAR a2f1
ENCODING 41713
SWIDTH 576 0
DWIDTH 24 0
BBX 24 24 0 -4
BITMAP
000000
000000
000000
000000
000000
000000
000000
000000
000000
000000
000000
000000
000000
000000
000000
000000
000000
000000
000000
000000
000000
000000
000000
000000
ENDCHAR
STARTCHAR a2f2
ENCODING 41714
SWIDTH 576 0
DWIDTH 24 0
BBX 24 24 0 -4
BITMAP
000000
000000
000000
000000
000000
000000
000000
000000
000000
000000
000000
000000
000000
000000
000000
000000
000000
000000
000000
000000
000000
000000
000000
000000
ENDCHAR
STARTCHAR a2f3
ENCODING 41715
SWIDTH 576 0
DWIDTH 24 0
BBX 24 24 0 -4
BITMAP
000000
000000
000000
000000
000000
000000
000000
000000
000000
000000
000000
000000
000000
000000
000000
000000
000000
000000
000000
000000
000000
000000
000000
000000
ENDCHAR
STARTCHAR a2f4
ENCODING 41716
SWIDTH 576 0
DWIDTH 24 0
BBX 24 24 0 -4
BITMAP
000000
000000
000000
000000
000000
000000
000000
000000
000000
000000
000000
000000
000000
000000
000000
000000
000000
000000
000000
000000
000000
000000
000000
000000
ENDCHAR
STARTCHAR a2f5
ENCODING 41717
SWIDTH 576 0
DWIDTH 24 0
BBX 24 24 0 -4
BITMAP
000000
000000
000000
000000
000000
000000
000000
000000
000000
000000
000000
000000
000000
000000
000000
000000
000000
000000
000000
000000
000000
000000
000000
000000
ENDCHAR
STARTCHAR a2f6
ENCODING 41718
SWIDTH 576 0
DWIDTH 24 0
BBX 24 24 0 -4
BITMAP
000000
000000
000000
000000
000000
000000
000000
000000
000000
000000
000000
000000
000000
000000
000000
000000
000000
000000
000000
000000
000000
000000
000000
000000
ENDCHAR
STARTCHAR a2f7
ENCODING 41719
SWIDTH 576 0
DWIDTH 24 0
BBX 24 24 0 -4
BITMAP
000000
000000
000000
000000
000000
000000
000000
000000
000000
000000
000000
000000
000000
000000
000000
000000
000000
000000
000000
000000
000000
000000
000000
000000
ENDCHAR
STARTCHAR a2f8
ENCODING 41720
SWIDTH 576 0
DWIDTH 24 0
BBX 24 24 0 -4
BITMAP
000000
000000
000000
000000
000000
000000
000000
000000
000000
000000
000000
000000
000000
000000
000000
000000
000000
000000
000000
000000
000000
000000
000000
000000
ENDCHAR
STARTCHAR a2f9
ENCODING 41721
SWIDTH 576 0
DWIDTH 24 0
BBX 24 24 0 -4
BITMAP
000000
000000
000000
000000
000000
000000
000000
000000
000000
000000
000000
000000
000000
000000
000000
000000
000000
000000
000000
000000
000000
000000
000000
000000
ENDCHAR
STARTCHAR a2fa
ENCODING 41722
SWIDTH 576 0
DWIDTH 24 0
BBX 24 24 0 -4
BITMAP
000000
000000
000000
000000
000000
000000
000000
000000
000000
000000
000000
000000
000000
000000
000000
000000
000000
000000
000000
000000
000000
000000
000000
000000
ENDCHAR
STARTCHAR a2fb
ENCODING 41723
SWIDTH 576 0
DWIDTH 24 0
BBX 24 24 0 -4
BITMAP
000000
000000
000000
000000
000000
000000
000000
000000
000000
000000
000000
000000
000000
000000
000000
000000
000000
000000
000000
000000
000000
000000
000000
000000
ENDCHAR
STARTCHAR a2fc
ENCODING 41724
SWIDTH 576 0
DWIDTH 24 0
BBX 24 24 0 -4
BITMAP
000000
000000
000000
000000
000000
000000
000000
000000
000000
000000
000000
000000
000000
000000
000000
000000
000000
000000
000000
000000
000000
000000
000000
000000
ENDCHAR
STARTCHAR a2fd
ENCODING 41725
SWIDTH 576 0
DWIDTH 24 0
BBX 24 24 0 -4
BITMAP
000000
000000
000000
000000
000000
000000
000000
000000
000000
000000
000000
000000
000000
000000
000000
000000
000000
000000
000000
000000
000000
000000
000000
000000
ENDCHAR
STARTCHAR a2fe
ENCODING 41726
SWIDTH 576 0
DWIDTH 24 0
BBX 24 24 0 -4
BITMAP
000000
000000
000000
000000
000000
000000
000000
000000
000000
000000
000000
000000
000000
000000
000000
000000
000000
000000
000000
000000
000000
000000
000000
000000
ENDCHAR
STARTCHAR a3a1
ENCODING 41889
SWIDTH 576 0
DWIDTH 24 0
BBX 24 24 0 -4
BITMAP
000000
000000
000000
000000
000000
000000
000000
000000
000000
000000
000000
000000
000000
000000
000000
000000
000000
000000
000000
000000
000000
000000
000000
000000
ENDCHAR
STARTCHAR a3a2
ENCODING 41890
SWIDTH 576 0
DWIDTH 24 0
BBX 24 24 0 -4
BITMAP
000000
000000
000000
000000
000000
000000
000000
000000
000000
000000
000000
000000
000000
000000
000000
000000
000000
000000
000000
000000
000000
000000
000000
000000
ENDCHAR
STARTCHAR a3a3
ENCODING 41891
SWIDTH 576 0
DWIDTH 24 0
BBX 24 24 0 -4
BITMAP
000000
000000
000000
000000
000000
000000
000000
000000
000000
000000
000000
000000
000000
000000
000000
000000
000000
000000
000000
000000
000000
000000
000000
000000
ENDCHAR
STARTCHAR a3a4
ENCODING 41892
SWIDTH 576 0
DWIDTH 24 0
BBX 24 24 0 -4
BITMAP
000000
000000
000000
000000
000000
000000
000000
000000
000000
000000
000000
000000
000000
000000
000000
000000
000000
000000
000000
000000
000000
000000
000000
000000
ENDCHAR
STARTCHAR a3a5
ENCODING 41893
SWIDTH 576 0
DWIDTH 24 0
BBX 24 24 0 -4
BITMAP
000000
000000
000000
000000
000000
000000
000000
000000
000000
000000
000000
000000
000000
000000
000000
000000
000000
000000
000000
000000
000000
000000
000000
000000
ENDCHAR
STARTCHAR a3a6
ENCODING 41894
SWIDTH 576 0
DWIDTH 24 0
BBX 24 24 0 -4
BITMAP
000000
000000
000000
000000
000000
000000
000000
000000
000000
000000
000000
000000
000000
000000
000000
000000
000000
000000
000000
000000
000000
000000
000000
000000
ENDCHAR
STARTCHAR a3a7
ENCODING 41895
SWIDTH 576 0
DWIDTH 24 0
BBX 24 24 0 -4
BITMAP
000000
000000
000000
000000
000000
000000
000000
000000
000000
000000
000000
000000
000000
000000
000000
000000
000000
000000
000000
000000
000000
000000
000000
000000
ENDCHAR
STARTCHAR a3a8
ENCODING 41896
SWIDTH 576 0
DWIDTH 24 0
BBX 24 24 0 -4
BITMAP
000000
000000
000000
000000
000000
000000
000000
000000
000000
000000
000000
000000
000000
000000
000000
000000
000000
000000
000000
000000
000000
000000
000000
000000
ENDCHAR
STARTCHAR a3a9
ENCODING 41897
SWIDTH 576 0
DWIDTH 24 0
BBX 24 24 0 -4
BITMAP
000000
000000
000000
000000
000000
000000
000000
000000
000000
000000
000000
000000
000000
000000
000000
000000
000000
000000
000000
000000
000000
000000
000000
000000
ENDCHAR
STARTCHAR a3aa
ENCODING 41898
SWIDTH 576 0
DWIDTH 24 0
BBX 24 24 0 -4
BITMAP
000000
000000
000000
000000
000000
000000
000000
000000
000000
000000
000000
000000
000000
000000
000000
000000
000000
000000
000000
000000
000000
000000
000000
000000
ENDCHAR
STARTCHAR a3ab
ENCODING 41899
SWIDTH 576 0
DWIDTH 24 0
BBX 24 24 0 -4
BITMAP
000000
000000
000000
000000
000000
000000
000000
000000
000000
000000
000000
000000
000000
000000
000000
000000
000000
000000
000000
000000
000000
000000
000000
000000
ENDCHAR
STARTCHAR a3ac
ENCODING 41900
SWIDTH 576 0
DWIDTH 24 0
BBX 24 24 0 -4
BITMAP
000000
000000
000000
000000
000000
000000
000000
000000
000000
000000
000000
000000
000000
000000
000000
000000
000000
000000
000000
000000
000000
000000
000000
000000
ENDCHAR
STARTCHAR a3ad
ENCODING 41901
SWIDTH 576 0
DWIDTH 24 0
BBX 24 24 0 -4
BITMAP
000000
000000
000000
000000
000000
000000
000000
000000
000000
000000
000000
000000
000000
000000
000000
000000
000000
000000
000000
000000
000000
000000
000000
000000
ENDCHAR
STARTCHAR a3ae
ENCODING 41902
SWIDTH 576 0
DWIDTH 24 0
BBX 24 24 0 -4
BITMAP
000000
000000
000000
000000
000000
000000
000000
000000
000000
000000
000000
000000
000000
000000
000000
000000
000000
000000
000000
000000
000000
000000
000000
000000
ENDCHAR
STARTCHAR a3af
ENCODING 41903
SWIDTH 576 0
DWIDTH 24 0
BBX 24 24 0 -4
BITMAP
000000
000000
000000
000000
000000
000000
000000
000000
000000
000000
000000
000000
000000
000000
000000
000000
000000
000000
000000
000000
000000
000000
000000
000000
ENDCHAR
STARTCHAR a3b0
ENCODING 41904
SWIDTH 576 0
DWIDTH 24 0
BBX 24 24 0 -4
BITMAP
000000
000000
003c00
00c300
018180
0300c0
0300c0
060060
060060
060060
060060
060060
060060
060060
060060
060060
060060
0300c0
0300c0
018180
00c300
003c00
000000
000000
ENDCHAR
STARTCHAR a3b1
ENCODING 41905
SWIDTH 576 0
DWIDTH 24 0
BBX 24 24 0 -4
BITMAP
000000
000000
001800
007800
01f800
001800
001800
001800
001800
001800
001800
001800
001800
001800
001800
001800
001800
001800
001800
001800
001800
01ff80
000000
000000
ENDCHAR
STARTCHAR a3b2
ENCODING 41906
SWIDTH 576 0
DWIDTH 24 0
BBX 24 24 0 -4
BITMAP
000000
000000
003e00
00c180
0180c0
030060
020060
040060
000060
0000c0
0000c0
000180
000300
000600
000c00
001000
002000
004020
008020
010060
03ffe0
07ffe0
000000
000000
ENDCHAR
STARTCHAR a3b3
ENCODING 41907
SWIDTH 576 0
DWIDTH 24 0
BBX 24 24 0 -4
BITMAP
000000
000000
007e00
01c780
030180
0401c0
0000c0
0000c0
000080
000100
007e00
00ff80
0003c0
0000e0
000060
000060
000060
0000e0
0000c0
000380
000e00
07f000
000000
000000
ENDCHAR
STARTCHAR a3b4
ENCODING 41908
SWIDTH 576 0
DWIDTH 24 0
BBX 24 24 0 -4
BITMAP
000000
000000
000300
000700
000b00
000b00
001300
002300
004300
004300
008300
010300
020300
020300
040300
080300
1fffe0
000300
000300
000300
000300
001fe0
000000
000000
ENDCHAR
STARTCHAR a3b5
ENCODING 41909
SWIDTH 576 0
DWIDTH 24 0
BBX 24 24 0 -4
BITMAP
000000
000000
03ffe0
03ffc0
020000
020000
020000
020000
020000
023e00
02ff80
0381c0
0200c0
000060
000060
000060
000040
0000c0
000180
000300
001c00
03e000
000000
000000
ENDCHAR
STARTCHAR a3b6
ENCODING 41910
SWIDTH 576 0
DWIDTH 24 0
BBX 24 24 0 -4
BITMAP
000000
000000
000f00
003000
004000
008000
018000
030000
030000
060000
067e00
078180
0600c0
0600c0
060060
060060
060060
0300c0
0300c0
018180
00c300
003c00
000000
000000
ENDCHAR
STARTCHAR a3b7
ENCODING 41911
SWIDTH 576 0
DWIDTH 24 0
BBX 24 24 0 -4
BITMAP
000000
000000
07ffe0
07ffe0
060020
040040
040080
000100
000100
000200
000600
000400
000c00
000c00
000800
001800
001800
001800
003000
003000
003000
003000
000000
000000
ENDCHAR
STARTCHAR a3b8
ENCODING 41912
SWIDTH 576 0
DWIDTH 24 0
BBX 24 24 0 -4
BITMAP
000000
000000
007e00
018180
0300c0
060060
060060
060060
070060
03c0c0
01f900
007e00
008f80
0303c0
0600e0
0c0070
0c0030
0c0030
0c0030
060060
0300c0
00ff00
000000
000000
ENDCHAR
STARTCHAR a3b9
ENCODING 41913
SWIDTH 576 0
DWIDTH 24 0
BBX 24 24 0 -4
BITMAP
000000
000000
003c00
00c300
018180
0300c0
0300c0
060060
060060
060060
030060
030060
018060
00c1e0
003e60
0000c0
0000c0
000180
000300
000600
003800
03c000
000000
000000
ENDCHAR
STARTCHAR a3ba
ENCODING 41914
SWIDTH 576 0
DWIDTH 24 0
BBX 24 24 0 -4
BITMAP
000000
000000
000000
000000
000000
000000
000000
000000
000000
000000
000000
000000
000000
000000
000000
000000
000000
000000
000000
000000
000000
000000
000000
000000
ENDCHAR
STARTCHAR a3bb
ENCODING 41915
SWIDTH 576 0
DWIDTH 24 0
BBX 24 24 0 -4
BITMAP
000000
000000
000000
000000
000000
000000
000000
000000
000000
000000
000000
000000
000000
000000
000000
000000
000000
000000
000000
000000
000000
000000
000000
000000
ENDCHAR
STARTCHAR a3bc
ENCODING 41916
SWIDTH 576 0
DWIDTH 24 0
BBX 24 24 0 -4
BITMAP
000000
000000
000000
000000
000000
000000
000000
000000
000000
000000
000000
000000
000000
000000
000000
000000
000000
000000
000000
000000
000000
000000
000000
000000
ENDCHAR
STARTCHAR a3bd
ENCODING 41917
SWIDTH 576 0
DWIDTH 24 0
BBX 24 24 0 -4
BITMAP
000000
000000
000000
000000
000000
000000
000000
000000
000000
000000
000000
000000
000000
000000
000000
000000
000000
000000
000000
000000
000000
000000
000000
000000
ENDCHAR
STARTCHAR a3be
ENCODING 41918
SWIDTH 576 0
DWIDTH 24 0
BBX 24 24 0 -4
BITMAP
000000
000000
000000
000000
000000
000000
000000
000000
000000
000000
000000
000000
000000
000000
000000
000000
000000
000000
000000
000000
000000
000000
000000
000000
ENDCHAR
STARTCHAR a3bf
ENCODING 41919
SWIDTH 576 0
DWIDTH 24 0
BBX 24 24 0 -4
BITMAP
000000
000000
000000
000000
000000
000000
000000
000000
000000
000000
000000
000000
000000
000000
000000
000000
000000
000000
000000
000000
000000
000000
000000
000000
ENDCHAR
STARTCHAR a3c0
ENCODING 41920
SWIDTH 576 0
DWIDTH 24 0
BBX 24 24 0 -4
BITMAP
000000
000000
000000
000000
000000
000000
000000
000000
000000
000000
000000
000000
000000
000000
000000
000000
000000
000000
000000
000000
000000
000000
000000
000000
ENDCHAR
STARTCHAR a3c1
ENCODING 41921
SWIDTH 576 0
DWIDTH 24 0
BBX 24 24 0 -4
BITMAP
000000
000000
001000
001800
003800
002c00
002c00
004600
004600
004600
008300
008300
010180
010180
01ff80
0200c0
0200c0
040060
040060
0c0070
3f01fc
000000
000000
000000
ENDCHAR
STARTCHAR a3c2
ENCODING 41922
SWIDTH 576 0
DWIDTH 24 0
BBX 24 24 0 -4
BITMAP
000000
000000
0ffe00
030180
0300c0
030060
030060
030060
030060
0300c0
030080
03ff00
0300c0
030060
030030
030030
030030
030030
030060
0300c0
0fff00
000000
000000
000000
ENDCHAR
STARTCHAR a3c3
ENCODING 41923
SWIDTH 576 0
DWIDTH 24 0
BBX 24 24 0 -4
BITMAP
000000
000000
003c00
00c320
0300e0
060060
0c0020
0c0020
180000
180000
180000
180000
180000
180000
180000
0c0000
0c0010
060020
030040
00c180
003e00
000000
000000
000000
ENDCHAR
STARTCHAR a3c4
ENCODING 41924
SWIDTH 576 0
DWIDTH 24 0
BBX 24 24 0 -4
BITMAP
000000
000000
1ff800
060600
060180
0600c0
060060
060060
060030
060030
060030
060030
060030
060030
060030
060060
060060
0600c0
060180
060600
1ff800
000000
000000
000000
ENDCHAR
STARTCHAR a3c5
ENCODING 41925
SWIDTH 576 0
DWIDTH 24 0
BBX 24 24 0 -4
BITMAP
000000
000000
1fffc0
0600c0
060040
060020
060020
060000
060200
060200
060600
07fe00
060600
060200
060200
060000
060010
060010
060020
060060
1fffe0
000000
000000
000000
ENDCHAR
STARTCHAR a3c6
ENCODING 41926
SWIDTH 576 0
DWIDTH 24 0
BBX 24 24 0 -4
BITMAP
000000
000000
0fffe0
030060
030020
030010
030010
030000
030100
030100
030300
03ff00
030300
030100
030100
030000
030000
030000
030000
030000
0fc000
000000
000000
000000
ENDCHAR
STARTCHAR a3c7
ENCODING 41927
SWIDTH 576 0
DWIDTH 24 0
BBX 24 24 0 -4
BITMAP
000000
000000
003c00
00c320
0300e0
060060
0c0020
0c0020
180000
180000
180000
180000
1803fc
180060
180060
0c0060
0c0060
060060
0300e0
00c320
003c20
000000
000000
000000
ENDCHAR
STARTCHAR a3c8
ENCODING 41928
SWIDTH 576 0
DWIDTH 24 0
BBX 24 24 0 -4
BITMAP
000000
000000
1f81f8
060060
060060
060060
060060
060060
060060
060060
060060
07ffe0
060060
060060
060060
060060
060060
060060
060060
060060
1f81f8
000000
000000
000000
ENDCHAR
STARTCHAR a3c9
ENCODING 41929
SWIDTH 576 0
DWIDTH 24 0
BBX 24 24 0 -4
BITMAP
000000
000000
00ff00
001800
001800
001800
001800
001800
001800
001800
001800
001800
001800
001800
001800
001800
001800
001800
001800
001800
00ff00
000000
000000
000000
ENDCHAR
STARTCHAR a3ca
ENCODING 41930
SWIDTH 576 0
DWIDTH 24 0
BBX 24 24 0 -4
BITMAP
000000
000000
001fe0
000300
000300
000300
000300
000300
000300
000300
000300
000300
000300
000300
000300
030300
070300
060600
060600
030c00
00f000
000000
000000
000000
ENDCHAR
STARTCHAR a3cb
ENCODING 41931
SWIDTH 576 0
DWIDTH 24 0
BBX 24 24 0 -4
BITMAP
000000
000000
1f87e0
060180
060100
060200
060400
060800
061000
062000
066000
06f000
073800
061c00
060c00
060600
060700
060380
0601c0
0600e0
1f83f8
000000
000000
000000
ENDCHAR
STARTCHAR a3cc
ENCODING 41932
SWIDTH 576 0
DWIDTH 24 0
BBX 24 24 0 -4
BITMAP
000000
000000
0fc000
030000
030000
030000
030000
030000
030000
030000
030000
030000
030000
030000
030000
030000
030008
030008
030010
030030
0ffff0
000000
000000
000000
ENDCHAR
STARTCHAR a3cd
ENCODING 41933
SWIDTH 576 0
DWIDTH 24 0
BBX 24 24 0 -4
BITMAP
000000
000000
3f00fc
0b00b0
0b00b0
098130
098130
098130
098130
08c230
08c230
08c230
08c430
086430
086430
086830
082830
083830
083830
081030
3e10fc
000000
000000
000000
ENDCHAR
STARTCHAR a3ce
ENCODING 41934
SWIDTH 576 0
DWIDTH 24 0
BBX 24 24 0 -4
BITMAP
000000
000000
1f00f8
070020
058020
05c020
04c020
046020
047020
043020
041820
041c20
040c20
040620
040720
0403a0
0401a0
0400e0
0400e0
040060
1f0020
000000
000000
000000
ENDCHAR
STARTCHAR a3cf
ENCODING 41935
SWIDTH 576 0
DWIDTH 24 0
BBX 24 24 0 -4
BITMAP
000000
000000
007e00
018180
0300c0
060060
0c0030
0c0030
180018
180018
180018
180018
180018
180018
180018
0c0030
0c0030
060060
0300c0
018180
007e00
000000
000000
000000
ENDCHAR
STARTCHAR a3d0
ENCODING 41936
SWIDTH 576 0
DWIDTH 24 0
BBX 24 24 0 -4
BITMAP
000000
000000
0fff00
0300c0
030060
030030
030030
030030
030030
030030
030060
0300c0
03ff00
030000
030000
030000
030000
030000
030000
030000
0fc000
000000
000000
000000
ENDCHAR
STARTCHAR a3d1
ENCODING 41937
SWIDTH 576 0
DWIDTH 24 0
BBX 24 24 0 -4
BITMAP
000000
000000
007e00
018180
0300c0
060060
0c0030
0c0030
180018
180018
180018
180018
180018
180018
180018
0c0030
0c7830
068420
030240
00c280
003f04
000184
0000f8
000070
ENDCHAR
STARTCHAR a3d2
ENCODING 41938
SWIDTH 576 0
DWIDTH 24 0
BBX 24 24 0 -4
BITMAP
000000
000000
1ffe00
060180
0600c0
060060
060060
060060
060060
0600c0
060300
07fc00
060200
060100
060180
060180
060180
060180
060184
0601c8
1f80f0
000000
000000
000000
ENDCHAR
STARTCHAR a3d3
ENCODING 41939
SWIDTH 576 0
DWIDTH 24 0
BBX 24 24 0 -4
BITMAP
000000
000000
007c20
0183e0
0300e0
060060
060020
060020
070000
03c000
00f800
003f00
0007c0
0000e0
000070
040030
040030
060030
070060
07c0c0
043f00
000000
000000
000000
ENDCHAR
STARTCHAR a3d4
ENCODING 41940
SWIDTH 576 0
DWIDTH 24 0
BBX 24 24 0 -4
BITMAP
000000
000000
1ffff8
181818
101808
201804
201804
001800
001800
001800
001800
001800
001800
001800
001800
001800
001800
001800
001800
001800
007e00
000000
000000
000000
ENDCHAR
STARTCHAR a3d5
ENCODING 41941
SWIDTH 576 0
DWIDTH 24 0
BBX 24 24 0 -4
BITMAP
000000
000000
1f80f8
060020
060020
060020
060020
060020
060020
060020
060020
060020
060020
060020
060020
060020
060020
030040
030040
01c180
007e00
000000
000000
000000
ENDCHAR
STARTCHAR a3d6
ENCODING 41942
SWIDTH 576 0
DWIDTH 24 0
BBX 24 24 0 -4
BITMAP
000000
000000
3f80fc
0e0030
060020
060020
030040
030040
030040
018080
018080
00c100
00c100
00c100
006200
006200
003400
003400
001c00
001800
000800
000000
000000
000000
ENDCHAR
STARTCHAR a3d7
ENCODING 41943
SWIDTH 576 0
DWIDTH 24 0
BBX 24 24 0 -4
BITMAP
000000
000000
fe7f3f
381c0c
181c08
181c08
182608
0c2610
0c2610
0c2610
0c4610
0c4320
064320
064320
064320
068340
028140
028140
0381c0
010080
010080
000000
000000
000000
ENDCHAR
STARTCHAR a3d8
ENCODING 41944
SWIDTH 576 0
DWIDTH 24 0
BBX 24 24 0 -4
BITMAP
000000
000000
1f80f8
070060
030040
018080
01c100
00c100
006200
007400
003800
001800
001c00
002e00
004700
004300
008180
0101c0
0200e0
060070
1f00fc
000000
000000
000000
ENDCHAR
STARTCHAR a3d9
ENCODING 41945
SWIDTH 576 0
DWIDTH 24 0
BBX 24 24 0 -4
BITMAP
000000
000000
3f80fc
0e0030
060020
030040
038080
018080
00c100
00e200
006200
003400
003800
001800
001800
001800
001800
001800
001800
001800
007e00
000000
000000
000000
ENDCHAR
STARTCHAR a3da
ENCODING 41946
SWIDTH 576 0
DWIDTH 24 0
BBX 24 24 0 -4
BITMAP
000000
000000
07fff0
0600e0
0401c0
080180
080380
000700
000600
000c00
001c00
003800
003000
006000
00e000
01c000
018010
030010
070020
0e0060
1fffe0
000000
000000
000000
ENDCHAR
STARTCHAR a3db
ENCODING 41947
SWIDTH 576 0
DWIDTH 24 0
BBX 24 24 0 -4
BITMAP
000000
000000
000000
000000
000000
000000
000000
000000
000000
000000
000000
000000
000000
000000
000000
000000
000000
000000
000000
000000
000000
000000
000000
000000
ENDCHAR
STARTCHAR a3dc
ENCODING 41948
SWIDTH 576 0
DWIDTH 24 0
BBX 24 24 0 -4
BITMAP
000000
000000
000000
000000
000000
000000
000000
000000
000000
000000
000000
000000
000000
000000
000000
000000
000000
000000
000000
000000
000000
000000
000000
000000
ENDCHAR
STARTCHAR a3dd
ENCODING 41949
SWIDTH 576 0
DWIDTH 24 0
BBX 24 24 0 -4
BITMAP
000000
000000
000000
000000
000000
000000
000000
000000
000000
000000
000000
000000
000000
000000
000000
000000
000000
000000
000000
000000
000000
000000
000000
000000
ENDCHAR
STARTCHAR a3de
ENCODING 41950
SWIDTH 576 0
DWIDTH 24 0
BBX 24 24 0 -4
BITMAP
000000
000000
000000
000000
000000
000000
000000
000000
000000
000000
000000
000000
000000
000000
000000
000000
000000
000000
000000
000000
000000
000000
000000
000000
ENDCHAR
STARTCHAR a3df
ENCODING 41951
SWIDTH 576 0
DWIDTH 24 0
BBX 24 24 0 -4
BITMAP
000000
000000
000000
000000
000000
000000
000000
000000
000000
000000
000000
000000
000000
000000
000000
000000
000000
000000
000000
000000
000000
000000
000000
000000
ENDCHAR
STARTCHAR a3e0
ENCODING 41952
SWIDTH 576 0
DWIDTH 24 0
BBX 24 24 0 -4
BITMAP
000000
000000
000000
000000
000000
000000
000000
000000
000000
000000
000000
000000
000000
000000
000000
000000
000000
000000
000000
000000
000000
000000
000000
000000
ENDCHAR
STARTCHAR a3e1
ENCODING 41953
SWIDTH 576 0
DWIDTH 24 0
BBX 24 24 0 -4
BITMAP
000000
000000
000000
000000
000000
000000
000000
000000
00fc00
038300
030180
000180
000180
001f80
00e180
030180
060180
060180
060190
030790
00f8e0
000000
000000
000000
ENDCHAR
STARTCHAR a3e2
ENCODING 41954
SWIDTH 576 0
DWIDTH 24 0
BBX 24 24 0 -4
BITMAP
000000
000000
030000
0f0000
030000
030000
030000
030000
031e00
036180
0380c0
0300c0
030060
030060
030060
030060
030060
0300c0
0300c0
03c180
023e00
000000
000000
000000
ENDCHAR
STARTCHAR a3e3
ENCODING 41955
SWIDTH 576 0
DWIDTH 24 0
BBX 24 24 0 -4
BITMAP
000000
000000
000000
000000
000000
000000
000000
000000
003e00
00c180
0180c0
0300c0
030000
060000
060000
060000
030000
030000
018040
00c180
003e00
000000
000000
000000
ENDCHAR
STARTCHAR a3e4
ENCODING 41956
SWIDTH 576 0
DWIDTH 24 0
BBX 24 24 0 -4
BITMAP
000000
000000
0000c0
0003c0
0000c0
0000c0
0000c0
0000c0
0078c0
0186c0
0301c0
0300c0
0600c0
0600c0
0600c0
0600c0
0600c0
0300c0
0300c0
0183c0
007cf0
000000
000000
000000
ENDCHAR
STARTCHAR a3e5
ENCODING 41957
SWIDTH 576 0
DWIDTH 24 0
BBX 24 24 0 -4
BITMAP
000000
000000
000000
000000
000000
000000
000000
000000
003c00
00c300
018180
030180
0300c0
07ffc0
060000
060000
030000
030000
018040
00c180
003e00
000000
000000
000000
ENDCHAR
STARTCHAR a3e6
ENCODING 41958
SWIDTH 576 0
DWIDTH 24 0
BBX 24 24 0 -4
BITMAP
000000
000000
000380
000cc0
0018c0
001800
003000
003000
03ff00
003000
003000
003000
003000
003000
003000
003000
003000
003000
003000
003000
01fe00
000000
000000
000000
ENDCHAR
STARTCHAR a3e7
ENCODING 41959
SWIDTH 576 0
DWIDTH 24 0
BBX 24 24 0 -4
BITMAP
000000
000000
000000
000000
000000
000000
000000
000060
007cf0
018330
030180
030180
030180
018300
007c00
008000
018000
00ff00
013fc0
0200e0
060060
060060
0300c0
00ff00
ENDCHAR
STARTCHAR a3e8
ENCODING 41960
SWIDTH 576 0
DWIDTH 24 0
BBX 24 24 0 -4
BITMAP
000000
000000
030000
0f0000
030000
030000
030000
030000
031e00
036180
0380c0
0300c0
0300c0
0300c0
0300c0
0300c0
0300c0
0300c0
0300c0
0300c0
0fc3f0
000000
000000
000000
ENDCHAR
STARTCHAR a3e9
ENCODING 41961
SWIDTH 576 0
DWIDTH 24 0
BBX 24 24 0 -4
BITMAP
000000
000000
003800
003800
003800
000000
000000
000000
00f800
001800
001800
001800
001800
001800
001800
001800
001800
001800
001800
001800
00ff00
000000
000000
000000
ENDCHAR
STARTCHAR a3ea
ENCODING 41962
SWIDTH 576 0
DWIDTH 24 0
BBX 24 24 0 -4
BITMAP
000000
000000
000e00
000e00
000e00
000000
000000
000000
001e00
000600
000600
000600
000600
000600
000600
000600
000600
000600
000600
000600
000c00
060c00
061800
03e000
ENDCHAR
STARTCHAR a3eb
ENCODING 41963
SWIDTH 576 0
DWIDTH 24 0
BBX 24 24 0 -4
BITMAP
000000
000000
030000
0f0000
030000
030000
030000
030000
0307e0
030100
030200
030400
030800
033000
037800
039c00
030e00
030700
030380
0301c0
0fc7f0
000000
000000
000000
ENDCHAR
STARTCHAR a3ec
ENCODING 41964
SWIDTH 576 0
DWIDTH 24 0
BBX 24 24 0 -4
BITMAP
000000
000000
001800
007800
001800
001800
001800
001800
001800
001800
001800
001800
001800
001800
001800
001800
001800
001800
001800
001800
007e00
000000
000000
000000
ENDCHAR
STARTCHAR a3ed
ENCODING 41965
SWIDTH 576 0
DWIDTH 24 0
BBX 24 24 0 -4
BITMAP
000000
000000
000000
000000
000000
000000
000000
000000
0ce1c0
3f1620
0c1830
0c1830
0c1830
0c1830
0c1830
0c1830
0c1830
0c1830
0c1830
0c1830
3e3c7c
000000
000000
000000
ENDCHAR
STARTCHAR a3ee
ENCODING 41966
SWIDTH 576 0
DWIDTH 24 0
BBX 24 24 0 -4
BITMAP
000000
000000
000000
000000
000000
000000
000000
000000
019e00
07e180
0180c0
0180c0
0180c0
0180c0
0180c0
0180c0
0180c0
0180c0
0180c0
0180c0
07e3f0
000000
000000
000000
ENDCHAR
STARTCHAR a3ef
ENCODING 41967
SWIDTH 576 0
DWIDTH 24 0
BBX 24 24 0 -4
BITMAP
000000
000000
000000
000000
000000
000000
000000
000000
003c00
00c300
018180
0300c0
0300c0
060060
060060
060060
0300c0
0300c0
018180
00c300
003c00
000000
000000
000000
ENDCHAR
STARTCHAR a3f0
ENCODING 41968
SWIDTH 576 0
DWIDTH 24 0
BBX 24 24 0 -4
BITMAP
000000
000000
000000
000000
000000
000000
000000
000000
031e00
0f6180
0380c0
0300c0
030060
030060
030060
0300c0
0300c0
03c180
033e00
030000
030000
030000
030000
0fc000
ENDCHAR
STARTCHAR a3f1
ENCODING 41969
SWIDTH 576 0
DWIDTH 24 0
BBX 24 24 0 -4
BITMAP
000000
000000
000000
000000
000000
000000
000000
000000
007c40
0183c0
0300c0
0300c0
0600c0
0600c0
0600c0
0300c0
0300c0
0183c0
007cc0
0000c0
0000c0
0000c0
0000c0
0003f0
ENDCHAR
STARTCHAR a3f2
ENCODING 41970
SWIDTH 576 0
DWIDTH 24 0
BBX 24 24 0 -4
BITMAP
000000
000000
000000
000000
000000
000000
000000
000000
00c1c0
03c7e0
00cc60
00d000
00e000
00c000
00c000
00c000
00c000
00c000
00c000
00c000
03f000
000000
000000
000000
ENDCHAR
STARTCHAR a3f3
ENCODING 41971
SWIDTH 576 0
DWIDTH 24 0
BBX 24 24 0 -4
BITMAP
000000
000000
000000
000000
000000
000000
000000
000000
007c80
018380
030180
030080
038000
01f800
007f00
000780
0001c0
0200c0
0300c0
038180
027e00
000000
000000
000000
ENDCHAR
STARTCHAR a3f4
ENCODING 41972
SWIDTH 576 0
DWIDTH 24 0
BBX 24 24 0 -4
BITMAP
000000
000000
006000
006000
006000
006000
006000
006000
07ff00
006000
006000
006000
006000
006000
006000
006000
006000
006040
006040
003080
000f00
000000
000000
000000
ENDCHAR
STARTCHAR a3f5
ENCODING 41973
SWIDTH 576 0
DWIDTH 24 0
BBX 24 24 0 -4
BITMAP
000000
000000
000000
000000
000000
000000
000000
000000
030180
0f0780
030180
030180
030180
030180
030180
030180
030180
030180
030180
018780
0079e0
000000
000000
000000
ENDCHAR
STARTCHAR a3f6
ENCODING 41974
SWIDTH 576 0
DWIDTH 24 0
BBX 24 24 0 -4
BITMAP
000000
000000
000000
000000
000000
000000
000000
000000
0fc1f0
030040
018040
018080
00c080
00c100
006100
006200
003200
003400
001c00
001800
000800
000000
000000
000000
ENDCHAR
STARTCHAR a3f7
ENCODING 41975
SWIDTH 576 0
DWIDTH 24 0
BBX 24 24 0 -4
BITMAP
000000
000000
000000
000000
000000
000000
000000
000000
7e7e7e
181818
181810
0c2c10
0c2c10
0c2620
064620
064320
064340
028140
0381c0
010080
010080
000000
000000
000000
ENDCHAR
STARTCHAR a3f8
ENCODING 41976
SWIDTH 576 0
DWIDTH 24 0
BBX 24 24 0 -4
BITMAP
000000
000000
000000
000000
000000
000000
000000
000000
0fe3f0
038080
01c100
00e200
007400
003800
001c00
002e00
004700
008380
0101c0
0200e0
0f83f8
000000
000000
000000
ENDCHAR
STARTCHAR a3f9
ENCODING 41977
SWIDTH 576 0
DWIDTH 24 0
BBX 24 24 0 -4
BITMAP
000000
000000
000000
000000
000000
000000
000000
000000
07e1f0
018040
018080
00c080
00c100
006100
006200
003200
003400
001c00
000800
001000
001000
0c2000
0c4000
078000
ENDCHAR
STARTCHAR a3fa
ENCODING 41978
SWIDTH 576 0
DWIDTH 24 0
BBX 24 24 0 -4
BITMAP
000000
000000
000000
000000
000000
000000
000000
000000
03ffc0
030380
020700
040600
000e00
001c00
003800
007000
006000
00e020
01c040
0380c0
07ffc0
000000
000000
000000
ENDCHAR
STARTCHAR a3fb
ENCODING 41979
SWIDTH 576 0
DWIDTH 24 0
BBX 24 24 0 -4
BITMAP
000000
000000
000000
000000
000000
000000
000000
000000
000000
000000
000000
000000
000000
000000
000000
000000
000000
000000
000000
000000
000000
000000
000000
000000
ENDCHAR
STARTCHAR a3fc
ENCODING 41980
SWIDTH 576 0
DWIDTH 24 0
BBX 24 24 0 -4
BITMAP
000000
000000
000000
000000
000000
000000
000000
000000
000000
000000
000000
000000
000000
000000
000000
000000
000000
000000
000000
000000
000000
000000
000000
000000
ENDCHAR
STARTCHAR a3fd
ENCODING 41981
SWIDTH 576 0
DWIDTH 24 0
BBX 24 24 0 -4
BITMAP
000000
000000
000000
000000
000000
000000
000000
000000
000000
000000
000000
000000
000000
000000
000000
000000
000000
000000
000000
000000
000000
000000
000000
000000
ENDCHAR
STARTCHAR a3fe
ENCODING 41982
SWIDTH 576 0
DWIDTH 24 0
BBX 24 24 0 -4
BITMAP
000000
000000
000000
000000
000000
000000
000000
000000
000000
000000
000000
000000
000000
000000
000000
000000
000000
000000
000000
000000
000000
000000
000000
000000
ENDCHAR
STARTCHAR a4a1
ENCODING 42145
SWIDTH 576 0
DWIDTH 24 0
BBX 24 24 0 -4
BITMAP
000000
000000
000000
000000
000000
004000
003000
003000
002700
07fe00
004000
004400
004400
007f00
01c4c0
034860
064830
045030
086030
08e030
09a060
0e20c0
000700
000000
ENDCHAR
STARTCHAR a4a2
ENCODING 42146
SWIDTH 576 0
DWIDTH 24 0
BBX 24 24 0 -4
BITMAP
00c000
007000
006000
006300
107f80
0ffc00
00c000
00c400
008600
008600
00bf80
01cc60
028830
049818
089018
10a00c
10c00c
20c00c
20c00c
214018
266018
3c6030
300060
000380
ENDCHAR
STARTCHAR a4a3
ENCODING 42147
SWIDTH 576 0
DWIDTH 24 0
BBX 24 24 0 -4
BITMAP
000000
000000
000000
000000
000000
000000
000000
000000
000000
080000
040300
0400c0
040040
040060
040020
042030
044030
064030
0280f0
038030
038000
018000
000000
000000
ENDCHAR
STARTCHAR a4a4
ENCODING 42148
SWIDTH 576 0
DWIDTH 24 0
BBX 24 24 0 -4
BITMAP
000000
000000
000000
200000
100000
1000c0
180020
180010
180018
180008
18000c
18000c
184004
184006
18c006
0c801e
0d800e
0f0006
070000
070000
030000
000000
000000
000000
ENDCHAR
STARTCHAR a4a5
ENCODING 42149
SWIDTH 576 0
DWIDTH 24 0
BBX 24 24 0 -4
BITMAP
000000
000000
000000
000000
000000
002000
001800
000e00
000600
000000
000000
010e00
00f300
00c180
000180
000180
000180
000180
000300
000300
000600
000c00
003000
000000
ENDCHAR
STARTCHAR a4a6
ENCODING 42150
SWIDTH 576 0
DWIDTH 24 0
BBX 24 24 0 -4
BITMAP
006000
001c00
000700
000300
000000
000000
000000
001e00
047100
03c080
0300c0
0000c0
0000c0
0000c0
0000c0
0000c0
0000c0
000180
000180
000300
000600
001800
00e000
000000
ENDCHAR
STARTCHAR a4a7
ENCODING 42151
SWIDTH 576 0
DWIDTH 24 0
BBX 24 24 0 -4
BITMAP
000000
000000
000000
000000
000000
001000
000c00
000700
000300
000000
000200
008f00
007300
004600
000c00
001800
003000
006000
00d000
018800
038c00
0307f0
0003e0
000000
ENDCHAR
STARTCHAR a4a8
ENCODING 42152
SWIDTH 576 0
DWIDTH 24 0
BBX 24 24 0 -4
BITMAP
002000
001800
000e00
000600
000000
000000
000200
021f00
01f300
018600
000c00
001800
003000
002000
004000
00c000
018000
036000
061000
0e1000
1c1800
180ff8
0003f8
000000
ENDCHAR
STARTCHAR a4a9
ENCODING 42153
SWIDTH 576 0
DWIDTH 24 0
BBX 24 24 0 -4
BITMAP
000000
000000
000000
000000
000000
000000
010000
00c000
00c000
0081c0
009830
04f830
038040
008000
008f00
00b0c0
00c060
018060
038060
168060
0c80c0
058f00
008000
000000
ENDCHAR
STARTCHAR a4aa
ENCODING 42154
SWIDTH 576 0
DWIDTH 24 0
BBX 24 24 0 -4
BITMAP
000000
030000
01c000
018000
018060
018018
01980c
31f80c
1fc030
010000
010000
0103c0
011c70
016018
01800c
03000c
07000c
4d000c
790018
390038
1788f0
0387c0
010000
000000
ENDCHAR
STARTCHAR a4ab
ENCODING 42155
SWIDTH 576 0
DWIDTH 24 0
BBX 24 24 0 -4
BITMAP
000000
018000
00c000
00e000
00c000
008000
008060
01f818
47860c
790206
330206
030207
020207
06023f
060606
0c0600
0c0400
180c00
180c00
311800
70f800
607000
006000
000000
ENDCHAR
STARTCHAR a4ac
ENCODING 42156
SWIDTH 576 0
DWIDTH 24 0
BBX 24 24 0 -4
BITMAP
000006
018003
00c033
00e018
00c018
008000
0080c0
01f830
478618
79020c
33020c
03020e
02020e
06023e
06060c
0c0600
0c0400
180c00
180c00
311800
70f800
607000
006000
000000
ENDCHAR
STARTCHAR a4ad
ENCODING 42157
SWIDTH 576 0
DWIDTH 24 0
BBX 24 24 0 -4
BITMAP
01c000
00c000
006000
006700
103e00
0ff000
071800
0008e0
000fc0
081c00
07e200
030300
000180
0000c0
00f8e0
0307e0
040060
080000
080000
0c0000
070000
03fe00
00fe00
000000
ENDCHAR
STARTCHAR a4ae
ENCODING 42158
SWIDTH 576 0
DWIDTH 24 0
BBX 24 24 0 -4
BITMAP
01c006
00c003
006033
006718
103e18
0ff000
071800
0008e0
000fc0
081c00
07e200
030300
000180
0000c0
00f8e0
0307e0
040060
080000
080000
0c0000
070000
03fe00
00fe00
000000
ENDCHAR
STARTCHAR a4af
ENCODING 42159
SWIDTH 576 0
DWIDTH 24 0
BBX 24 24 0 -4
BITMAP
000080
0000c0
0001c0
000380
000700
000e00
003800
006000
018000
060000
080000
080000
040000
030000
01c000
006000
003000
001c00
000e00
000700
000380
000180
0001c0
0000c0
ENDCHAR
STARTCHAR a4b0
ENCODING 42160
SWIDTH 576 0
DWIDTH 24 0
BBX 24 24 0 -4
BITMAP
000100
000180
000386
000703
000e33
001c18
003018
006000
018000
060000
080000
080000
040000
030000
01c000
006000
003000
001800
000c00
000600
000700
000300
000380
000180
ENDCHAR
STARTCHAR a4b1
ENCODING 42161
SWIDTH 576 0
DWIDTH 24 0
BBX 24 24 0 -4
BITMAP
000000
180380
0c00e0
0c0060
0c0060
180060
180066
1841ff
103fe0
101860
300060
300060
320060
320060
320060
340040
3400c0
1c00c0
1800c0
180080
180180
080100
000200
000400
ENDCHAR
STARTCHAR a4b2
ENCODING 42162
SWIDTH 576 0
DWIDTH 24 0
BBX 24 24 0 -4
BITMAP
000006
300003
180e33
180398
180198
300180
300180
30018c
2107fe
20ff80
606180
600180
640180
640180
640180
680100
680300
380300
300300
300200
300600
100400
000800
001000
ENDCHAR
STARTCHAR a4b3
ENCODING 42163
SWIDTH 576 0
DWIDTH 24 0
BBX 24 24 0 -4
BITMAP
000000
000000
020000
01f000
007fc0
0007c0
001c00
006000
000000
000000
000000
000000
000000
000000
080000
100000
100000
100000
100000
0c0000
07fff0
01fff0
000000
000000
ENDCHAR
STARTCHAR a4b4
ENCODING 42164
SWIDTH 576 0
DWIDTH 24 0
BBX 24 24 0 -4
BITMAP
000006
000003
020033
01f018
007f98
000780
001c00
006000
000000
000000
000000
000000
000000
000000
080000
100000
100000
100000
100000
0c0000
07fff0
01fff0
000000
000000
ENDCHAR
STARTCHAR a4b5
ENCODING 42165
SWIDTH 576 0
DWIDTH 24 0
BBX 24 24 0 -4
BITMAP
00e000
01c000
00c180
0060e0
0031c0
101f00
0ffc00
038600
000300
000180
0000c0
0000e0
003e60
01c3f0
060070
040020
080000
080000
040000
070000
03f000
00ff80
000f80
000000
ENDCHAR
STARTCHAR a4b6
ENCODING 42166
SWIDTH 576 0
DWIDTH 24 0
BBX 24 24 0 -4
BITMAP
01c006
038003
018633
00c398
006718
103c00
0ff800
038c00
000600
000300
000180
0001c0
003cc0
01c7e0
0600e0
040040
080000
080000
040000
070000
03f000
00ff80
000f80
000000
ENDCHAR
STARTCHAR a4b7
ENCODING 42167
SWIDTH 576 0
DWIDTH 24 0
BBX 24 24 0 -4
BITMAP
060000
030000
038000
038000
038000
030000
030000
030000
030000
030000
030000
030000
030000
030000
020000
020000
020004
020008
020010
020060
0103c0
01ff00
007800
000000
ENDCHAR
STARTCHAR a4b8
ENCODING 42168
SWIDTH 576 0
DWIDTH 24 0
BBX 24 24 0 -4
BITMAP
060000
030000
038000
038180
0380c0
030cc0
030600
030600
030000
030000
030000
030000
030000
030000
020000
020000
020004
020008
020010
020060
0103c0
01ff00
007800
000000
ENDCHAR
STARTCHAR a4b9
ENCODING 42169
SWIDTH 576 0
DWIDTH 24 0
BBX 24 24 0 -4
BITMAP
001800
000e00
000700
000600
000600
001ffe
83fc1f
7f0400
300400
007c00
008c00
010600
010600
010600
010600
008600
00fe00
006400
000c00
000800
001800
001000
002000
00c000
ENDCHAR
STARTCHAR a4ba
ENCODING 42170
SWIDTH 576 0
DWIDTH 24 0
BBX 24 24 0 -4
BITMAP
001806
000e03
000733
000618
000618
000600
83fffe
7f041f
300400
007c00
008c00
010600
010600
010600
010600
008600
00fe00
006400
000c00
000800
001800
001000
002000
00c000
ENDCHAR
STARTCHAR a4bb
ENCODING 42171
SWIDTH 576 0
DWIDTH 24 0
BBX 24 24 0 -4
BITMAP
000300
000180
0001c0
060180
030180
030180
030180
03018e
031fff
0ff180
fb0180
630180
030100
030300
031300
030e00
030600
010000
010000
018000
00e000
007ff0
001ff0
000000
ENDCHAR
STARTCHAR a4bc
ENCODING 42172
SWIDTH 576 0
DWIDTH 24 0
BBX 24 24 0 -4
BITMAP
000006
000603
000333
060398
030318
030300
030300
03031c
031ffe
0ff300
fb0300
630300
030200
030600
032600
031c00
030c00
010000
010000
018000
00e000
007ff0
001ff0
000000
ENDCHAR
STARTCHAR a4bd
ENCODING 42173
SWIDTH 576 0
DWIDTH 24 0
BBX 24 24 0 -4
BITMAP
000000
000700
013980
01e380
008600
000c00
001800
003000
004000
0081f8
011ffc
066600
0f8800
3c1000
302000
002000
004000
004000
004000
002000
003000
001e00
000f80
000380
ENDCHAR
STARTCHAR a4be
ENCODING 42174
SWIDTH 576 0
DWIDTH 24 0
BBX 24 24 0 -4
BITMAP
000000
000700
013986
01e383
008633
000c18
001818
003000
004000
0081f8
011ffc
066600
0f8800
3c1000
302000
002000
004000
004000
004000
002000
003000
001e00
000f80
000380
ENDCHAR
STARTCHAR a4bf
ENCODING 42175
SWIDTH 576 0
DWIDTH 24 0
BBX 24 24 0 -4
BITMAP
000000
018000
00c000
00c000
008c00
01bc00
41f000
7f81c0
330078
03001c
02001c
060060
040000
0c0000
0c0000
180000
181000
302000
302000
701000
601c00
000ffc
0001fc
000000
ENDCHAR
STARTCHAR a4c0
ENCODING 42176
SWIDTH 576 0
DWIDTH 24 0
BBX 24 24 0 -4
BITMAP
000006
018003
00c033
00c018
008c18
01bc00
41f000
7f81c0
330078
03001c
02001c
060060
040000
0c0000
0c0000
180000
181000
302000
302000
701000
601c00
000ffc
0001fc
000000
ENDCHAR
STARTCHAR a4c1
ENCODING 42177
SWIDTH 576 0
DWIDTH 24 0
BBX 24 24 0 -4
BITMAP
018000
00c000
00c000
008000
018600
21bf00
3fe000
198000
010000
010000
030000
0303c0
021c30
027018
02c00c
07000c
07000c
060018
000038
000070
0000e0
000380
001c00
000000
ENDCHAR
STARTCHAR a4c2
ENCODING 42178
SWIDTH 576 0
DWIDTH 24 0
BBX 24 24 0 -4
BITMAP
018000
00c000
00c006
008003
018633
21bf18
3fe018
198000
010000
010000
030000
0303c0
021c30
027018
02c00c
07000c
07000c
060018
000038
000070
0000e0
000380
001c00
000000
ENDCHAR
STARTCHAR a4c3
ENCODING 42179
SWIDTH 576 0
DWIDTH 24 0
BBX 24 24 0 -4
BITMAP
000000
000000
000000
000000
000000
000000
000000
000000
000000
000f00
0078c0
13c060
0f0030
040030
000030
000030
000060
000060
0000c0
000300
000c00
000000
000000
000000
ENDCHAR
STARTCHAR a4c4
ENCODING 42180
SWIDTH 576 0
DWIDTH 24 0
BBX 24 24 0 -4
BITMAP
000000
000000
000000
000000
000000
000fc0
00f030
03c008
8f000c
7c0004
380006
000006
000006
00000e
00000c
00001c
000038
000070
0001c0
000700
003800
000000
000000
000000
ENDCHAR
STARTCHAR a4c5
ENCODING 42181
SWIDTH 576 0
DWIDTH 24 0
BBX 24 24 0 -4
BITMAP
000006
000003
000033
000018
000018
000f80
00f0e0
03c030
8f0018
7c0018
38000c
00000c
00000c
00000c
000018
000038
000070
0000e0
000380
000e00
007000
000000
000000
000000
ENDCHAR
STARTCHAR a4c6
ENCODING 42182
SWIDTH 576 0
DWIDTH 24 0
BBX 24 24 0 -4
BITMAP
000000
000000
0000f0
001ff8
41f380
7f0600
3c0c00
101000
002000
002000
004000
004000
008000
008000
008000
008000
00c000
004000
006000
003800
001f00
0007c0
0001c0
000000
ENDCHAR
STARTCHAR a4c7
ENCODING 42183
SWIDTH 576 0
DWIDTH 24 0
BBX 24 24 0 -4
BITMAP
000000
000000
0000e0
001ff0
41f380
7f0606
3c0c03
101033
002018
002018
004000
004000
008000
008000
008000
008000
00c000
004000
006000
003800
001f00
0007c0
0001c0
000000
ENDCHAR
STARTCHAR a4c8
ENCODING 42184
SWIDTH 576 0
DWIDTH 24 0
BBX 24 24 0 -4
BITMAP
000000
030000
018000
01c000
018000
018000
018000
008000
0081c0
0087c0
009f00
007800
00e000
018000
030000
060000
040000
080000
080000
080000
0400e0
03ffe0
00ff80
000000
ENDCHAR
STARTCHAR a4c9
ENCODING 42185
SWIDTH 576 0
DWIDTH 24 0
BBX 24 24 0 -4
BITMAP
000000
03000c
018006
01c066
018030
018030
018000
008000
0081c0
0087c0
009f00
007800
00e000
018000
030000
060000
040000
080000
080000
080000
0400e0
03ffe0
00ff80
000000
ENDCHAR
STARTCHAR a4ca
ENCODING 42186
SWIDTH 576 0
DWIDTH 24 0
BBX 24 24 0 -4
BITMAP
006000
003000
006000
006000
40cc00
7ffe00
388000
010070
03000c
02003e
0600c6
0c0100
180100
380200
700200
600200
000200
000200
00fa00
010780
0202e0
020670
01fc30
007800
ENDCHAR
STARTCHAR a4cb
ENCODING 42187
SWIDTH 576 0
DWIDTH 24 0
BBX 24 24 0 -4
BITMAP
000000
080000
0c0000
0c0000
0c01e0
0c0ff8
18303c
180060
180080
180000
100000
300000
300000
310000
310000
321000
322000
322000
143000
1c1ffe
1c07fc
0c0000
080000
000000
ENDCHAR
STARTCHAR a4cc
ENCODING 42188
SWIDTH 576 0
DWIDTH 24 0
BBX 24 24 0 -4
BITMAP
000000
006000
001000
001800
101000
101000
103f80
10f060
132018
16200c
18600c
184006
38c006
2c8006
478006
47000e
83000c
8787cc
cd8838
58083c
300ce6
000386
000000
000000
ENDCHAR
STARTCHAR a4cd
ENCODING 42189
SWIDTH 576 0
DWIDTH 24 0
BBX 24 24 0 -4
BITMAP
060000
030000
018000
018000
018000
030000
030000
0783c0
5f1c30
326018
028008
07000c
06000c
0e000c
0a000c
1a000c
12001c
320798
730c78
6b083c
4f0c66
0607c6
060000
000000
ENDCHAR
STARTCHAR a4ce
ENCODING 42190
SWIDTH 576 0
DWIDTH 24 0
BBX 24 24 0 -4
BITMAP
000000
000000
000000
001f00
00f8c0
038c30
060c18
0c0c0c
18180c
101806
203006
202006
406006
404006
40c006
618006
63000c
36000c
3c0018
180030
0000c0
000300
000000
000000
ENDCHAR
STARTCHAR a4cf
ENCODING 42191
SWIDTH 576 0
DWIDTH 24 0
BBX 24 24 0 -4
BITMAP
000000
300180
180060
1c0060
180060
180040
180040
30204e
301ffc
300c40
300040
200040
600040
640040
640060
640060
6c0060
680fe0
283070
38407c
3840ee
183fc6
100f00
000000
ENDCHAR
STARTCHAR a4d0
ENCODING 42192
SWIDTH 576 0
DWIDTH 24 0
BBX 24 24 0 -4
BITMAP
000006
300003
180633
1c0198
180198
180180
180100
308138
307ff0
303100
300100
200100
600100
640100
640180
640180
6c0180
681f80
2861c0
3881f0
3883b8
187f18
101c00
000000
ENDCHAR
STARTCHAR a4d1
ENCODING 42193
SWIDTH 576 0
DWIDTH 24 0
BBX 24 24 0 -4
BITMAP
000000
300000
18060e
1c0191
180191
180191
18010e
308130
307ff0
303100
300100
200100
600100
640100
640180
640180
6c0180
681f80
2861c0
3881f0
3883b8
187f18
101c00
000000
ENDCHAR
STARTCHAR a4d2
ENCODING 42194
SWIDTH 576 0
DWIDTH 24 0
BBX 24 24 0 -4
BITMAP
000000
000000
008060
03c060
4fc060
398060
030060
020070
060050
040058
0c0098
0c008c
08008e
180187
180102
180100
180300
180200
180600
080c00
0e3800
07f000
01c000
000000
ENDCHAR
STARTCHAR a4d3
ENCODING 42195
SWIDTH 576 0
DWIDTH 24 0
BBX 24 24 0 -4
BITMAP
000006
000003
010033
078198
9f8198
730180
060180
0401c0
0c0140
080160
180160
180130
100138
30011c
300208
300200
300200
300400
300c00
101800
1c7000
0fe000
038000
000000
ENDCHAR
STARTCHAR a4d4
ENCODING 42196
SWIDTH 576 0
DWIDTH 24 0
BBX 24 24 0 -4
BITMAP
000000
000000
01000e
078191
9f8191
730191
06018e
0401c0
0c0140
080160
180160
180130
100138
30011c
300208
300200
300200
300400
300c00
101800
1c7000
0fe000
038000
000000
ENDCHAR
STARTCHAR a4d5
ENCODING 42197
SWIDTH 576 0
DWIDTH 24 0
BBX 24 24 0 -4
BITMAP
000000
004000
002000
003000
001800
000c00
000c00
001000
002000
002000
004000
004000
002000
003000
001fe0
00783c
018806
860c07
9c0c1f
780c06
70fc00
203800
000000
000000
ENDCHAR
STARTCHAR a4d6
ENCODING 42198
SWIDTH 576 0
DWIDTH 24 0
BBX 24 24 0 -4
BITMAP
000000
004000
002000
003000
00180c
000c06
000c66
001030
002030
002000
004000
004000
002000
003000
001fe0
00783c
018806
860c07
9c0c1f
780c06
70fc00
203800
000000
000000
ENDCHAR
STARTCHAR a4d7
ENCODING 42199
SWIDTH 576 0
DWIDTH 24 0
BBX 24 24 0 -4
BITMAP
000000
004000
002000
003000
001800
000c00
000c38
001044
002044
002044
004038
004000
002000
003000
001fe0
00783c
018806
860c07
9c0c1f
780c06
70fc00
203800
000000
000000
ENDCHAR
STARTCHAR a4d8
ENCODING 42200
SWIDTH 576 0
DWIDTH 24 0
BBX 24 24 0 -4
BITMAP
000000
000000
000000
000000
038000
064000
042000
0c2000
0c1000
081800
180c00
180600
b00300
f00180
6000e0
000070
000038
00001e
00000f
000003
000000
000000
000000
000000
ENDCHAR
STARTCHAR a4d9
ENCODING 42201
SWIDTH 576 0
DWIDTH 24 0
BBX 24 24 0 -4
BITMAP
000000
000060
000030
000330
038180
064180
042000
0c2000
0c1000
081800
180c00
180600
b00300
f00180
6000e0
000070
000038
00001e
00000f
000003
000000
000000
000000
000000
ENDCHAR
STARTCHAR a4da
ENCODING 42202
SWIDTH 576 0
DWIDTH 24 0
BBX 24 24 0 -4
BITMAP
000000
000000
000000
000070
038088
064088
042088
0c2070
0c1000
081800
180c00
180600
b00300
f00180
6000e0
000070
000038
00001e
00000f
000003
000000
000000
000000
000000
ENDCHAR
STARTCHAR a4db
ENCODING 42203
SWIDTH 576 0
DWIDTH 24 0
BBX 24 24 0 -4
BITMAP
000000
300000
1801f8
1c3ffc
1800c0
180060
180060
300060
30007c
3001f8
303f60
200060
600060
640060
640060
640060
6c0060
6807e0
281870
38207c
3820ee
181fc6
100700
000000
ENDCHAR
STARTCHAR a4dc
ENCODING 42204
SWIDTH 576 0
DWIDTH 24 0
BBX 24 24 0 -4
BITMAP
000000
300000
1803c6
1cffe3
180303
180198
18018c
30018c
300180
3001f0
30ffe0
200180
600180
640180
640180
640180
6c0180
681f80
2861c0
3881f0
3883b8
187f18
101c00
000000
ENDCHAR
STARTCHAR a4dd
ENCODING 42205
SWIDTH 576 0
DWIDTH 24 0
BBX 24 24 0 -4
BITMAP
00000e
300011
180391
1cffd1
18030e
180180
180180
300180
3001f0
300fe0
30f980
200180
600180
640180
640180
640180
6c0180
681f80
2861c0
3881f0
3883b8
187f18
101c00
000000
ENDCHAR
STARTCHAR a4de
ENCODING 42206
SWIDTH 576 0
DWIDTH 24 0
BBX 24 24 0 -4
BITMAP
001800
000c00
000e00
000c00
000c00
1009e0
0fffc0
070800
000900
0008c0
080bc0
07ff00
038800
000800
000800
000c00
000c00
03fc00
0c0f80
100de0
183c70
0ff830
03e000
000000
ENDCHAR
STARTCHAR a4df
ENCODING 42207
SWIDTH 576 0
DWIDTH 24 0
BBX 24 24 0 -4
BITMAP
000000
000000
083c00
07ce00
030e00
001c00
001800
003040
002020
006030
004030
00c030
03fe60
0d87e0
310070
2300fc
4600ce
4c0186
580180
700300
200200
000400
000000
000000
ENDCHAR
STARTCHAR a4e0
ENCODING 42208
SWIDTH 576 0
DWIDTH 24 0
BBX 24 24 0 -4
BITMAP
000000
060000
030000
030000
033800
03f800
7fe030
330048
02004c
020046
0e0046
13005e
230044
230040
230040
120020
0e0020
060020
040030
040070
0601f0
03ffe0
00ff00
000000
ENDCHAR
STARTCHAR a4e1
ENCODING 42209
SWIDTH 576 0
DWIDTH 24 0
BBX 24 24 0 -4
BITMAP
000000
001800
000c00
200c00
300c00
100800
101f80
18f8e0
0b9038
0e301c
1c200c
34600e
644006
46c006
c38006
83800e
83800c
86c01c
4c4018
700030
2000c0
000300
000000
000000
ENDCHAR
STARTCHAR a4e2
ENCODING 42210
SWIDTH 576 0
DWIDTH 24 0
BBX 24 24 0 -4
BITMAP
00c000
006000
007000
006000
006000
084000
074000
01c000
00c000
018000
068000
088000
090080
07e040
01f860
011820
030030
030030
030030
010060
0180e0
00ffc0
003f00
000000
ENDCHAR
STARTCHAR a4e3
ENCODING 42211
SWIDTH 576 0
DWIDTH 24 0
BBX 24 24 0 -4
BITMAP
000000
000000
000000
000000
000000
002000
001800
01f800
021800
0207c0
033c60
01c030
238030
1ec460
0c6380
003000
001000
001800
000800
000c00
000c00
000600
000600
000000
ENDCHAR
STARTCHAR a4e4
ENCODING 42212
SWIDTH 576 0
DWIDTH 24 0
BBX 24 24 0 -4
BITMAP
001000
000800
038c00
047e00
080c00
0801f0
0c0e0c
067006
03c003
070003
9d8007
f8c61e
7063fc
0060f0
003000
001800
001800
000c00
000c00
000e00
000600
000700
000300
000000
ENDCHAR
STARTCHAR a4e5
ENCODING 42213
SWIDTH 576 0
DWIDTH 24 0
BBX 24 24 0 -4
BITMAP
000000
000000
000000
000000
000000
000000
001800
002400
024700
025ac0
046260
048220
048230
054230
054230
064230
062620
063460
021cc0
000700
000c00
000800
001000
000000
ENDCHAR
STARTCHAR a4e6
ENCODING 42214
SWIDTH 576 0
DWIDTH 24 0
BBX 24 24 0 -4
BITMAP
000000
003800
404400
208600
308fc0
313230
314218
31830c
21030c
630306
650306
650306
688306
68830c
68460c
304618
302670
301fe0
100f80
000800
001800
001000
002000
004000
ENDCHAR
STARTCHAR a4e7
ENCODING 42215
SWIDTH 576 0
DWIDTH 24 0
BBX 24 24 0 -4
BITMAP
000000
000000
000000
000000
000000
000000
001000
000c00
000c00
000c00
0008c0
000fc0
000800
000800
000800
000800
000800
000800
00f800
030f00
020bc0
0118c0
00f000
000000
ENDCHAR
STARTCHAR a4e8
ENCODING 42216
SWIDTH 576 0
DWIDTH 24 0
BBX 24 24 0 -4
BITMAP
006000
003800
001c00
001800
001800
001800
0018e0
001ff0
001800
001800
001800
001800
001800
001800
001800
001800
001800
07fe00
0c1f80
1019e0
101870
187030
0fc000
000000
ENDCHAR
STARTCHAR a4e9
ENCODING 42217
SWIDTH 576 0
DWIDTH 24 0
BBX 24 24 0 -4
BITMAP
004000
002000
003000
001800
003c00
00cc00
010000
010000
020000
020000
020000
020000
020780
061860
066030
078018
0f0018
0e0018
040038
000030
0000e0
000380
001c00
000000
ENDCHAR
STARTCHAR a4ea
ENCODING 42218
SWIDTH 576 0
DWIDTH 24 0
BBX 24 24 0 -4
BITMAP
020000
030000
010f00
011180
0120c0
0120c0
034060
034060
038060
038060
030060
030060
030060
030060
010060
0000c0
0000c0
0000c0
000180
000180
000300
000600
000c00
003000
ENDCHAR
STARTCHAR a4eb
ENCODING 42219
SWIDTH 576 0
DWIDTH 24 0
BBX 24 24 0 -4
BITMAP
000000
000c00
027e00
03c700
018e00
000c00
001800
003000
006000
00c000
008000
019f00
03e0c0
038060
070030
0e0030
1c0030
187030
019830
010c60
0106c0
018700
007c00
000000
ENDCHAR
STARTCHAR a4ec
ENCODING 42220
SWIDTH 576 0
DWIDTH 24 0
BBX 24 24 0 -4
BITMAP
060000
030000
038000
030000
030000
020700
021880
8720c0
7f40c0
3280c0
0700c0
0700c0
0e0080
0c0180
1c0180
1c0180
340180
340180
660180
f601c3
ce00fe
0e0038
040000
000000
ENDCHAR
STARTCHAR a4ed
ENCODING 42221
SWIDTH 576 0
DWIDTH 24 0
BBX 24 24 0 -4
BITMAP
000000
020c00
03fe00
01c600
000c00
001800
001000
002000
006000
00c000
018f80
037060
078030
0e0018
1c0018
380018
300018
000038
000030
000060
0001c0
000700
007800
000000
ENDCHAR
STARTCHAR a4ee
ENCODING 42222
SWIDTH 576 0
DWIDTH 24 0
BBX 24 24 0 -4
BITMAP
000000
000000
000000
000000
000000
008000
006000
006000
004000
004000
00e000
07c700
0298c0
00a060
01c060
018030
038030
028030
048060
0e8060
0980c0
00c700
00c000
000000
ENDCHAR
STARTCHAR a4ef
ENCODING 42223
SWIDTH 576 0
DWIDTH 24 0
BBX 24 24 0 -4
BITMAP
018000
00c000
00e000
00c000
00c000
008000
008000
01e000
27e1e0
1cc638
00980c
01a00e
02c006
028006
058006
0c8006
08800e
18800c
34c018
72c030
61c0c0
01c300
008000
000000
ENDCHAR
STARTCHAR a4f0
ENCODING 42224
SWIDTH 576 0
DWIDTH 24 0
BBX 24 24 0 -4
BITMAP
000000
041800
03fc00
018c00
001800
001800
001000
003000
002000
006f80
00f060
03c010
0c8018
198008
11000c
23000c
22000c
260f1c
3410d8
1c1070
0818e0
000f80
000000
000000
ENDCHAR
STARTCHAR a4f1
ENCODING 42225
SWIDTH 576 0
DWIDTH 24 0
BBX 24 24 0 -4
BITMAP
000600
023f00
03e600
018400
000c00
001800
003780
0078c0
00c060
018060
070060
067860
00ccc0
008d80
007e00
006000
008000
0100e0
060338
0d860c
387c0e
70383e
601004
000000
ENDCHAR
STARTCHAR a4f2
ENCODING 42226
SWIDTH 576 0
DWIDTH 24 0
BBX 24 24 0 -4
BITMAP
006000
003000
003000
102600
0fff00
066000
00c000
008000
010070
036038
07b0f8
0e1bc0
1c1e00
183800
007800
009800
011800
020800
040000
040000
078000
03ffc0
00ffc0
000000
ENDCHAR
STARTCHAR a4f3
ENCODING 42227
SWIDTH 576 0
DWIDTH 24 0
BBX 24 24 0 -4
BITMAP
000000
001800
000c00
001c00
001800
003800
003000
006000
006000
00c000
008000
018000
030000
027000
079800
0e1800
0c1802
181806
180c0c
300c18
700c70
600fe0
600780
000000
ENDCHAR
STARTCHAR a4f4
ENCODING 42228
SWIDTH 576 0
DWIDTH 24 0
BBX 24 24 0 -4
BITMAP
000000
000000
000000
000000
000000
000000
000000
000000
000000
000000
000000
000000
000000
000000
000000
000000
000000
000000
000000
000000
000000
000000
000000
000000
ENDCHAR
STARTCHAR a4f5
ENCODING 42229
SWIDTH 576 0
DWIDTH 24 0
BBX 24 24 0 -4
BITMAP
000000
000000
000000
000000
000000
000000
000000
000000
000000
000000
000000
000000
000000
000000
000000
000000
000000
000000
000000
000000
000000
000000
000000
000000
ENDCHAR
STARTCHAR a4f6
ENCODING 42230
SWIDTH 576 0
DWIDTH 24 0
BBX 24 24 0 -4
BITMAP
000000
000000
000000
000000
000000
000000
000000
000000
000000
000000
000000
000000
000000
000000
000000
000000
000000
000000
000000
000000
000000
000000
000000
000000
ENDCHAR
STARTCHAR a4f7
ENCODING 42231
SWIDTH 576 0
DWIDTH 24 0
BBX 24 24 0 -4
BITMAP
000000
000000
000000
000000
000000
000000
000000
000000
000000
000000
000000
000000
000000
000000
000000
000000
000000
000000
000000
000000
000000
000000
000000
000000
ENDCHAR
STARTCHAR a4f8
ENCODING 42232
SWIDTH 576 0
DWIDTH 24 0
BBX 24 24 0 -4
BITMAP
000000
000000
000000
000000
000000
000000
000000
000000
000000
000000
000000
000000
000000
000000
000000
000000
000000
000000
000000
000000
000000
000000
000000
000000
ENDCHAR
STARTCHAR a4f9
ENCODING 42233
SWIDTH 576 0
DWIDTH 24 0
BBX 24 24 0 -4
BITMAP
000000
000000
000000
000000
000000
000000
000000
000000
000000
000000
000000
000000
000000
000000
000000
000000
000000
000000
000000
000000
000000
000000
000000
000000
ENDCHAR
STARTCHAR a4fa
ENCODING 42234
SWIDTH 576 0
DWIDTH 24 0
BBX 24 24 0 -4
BITMAP
000000
000000
000000
000000
000000
000000
000000
000000
000000
000000
000000
000000
000000
000000
000000
000000
000000
000000
000000
000000
000000
000000
000000
000000
ENDCHAR
STARTCHAR a4fb
ENCODING 42235
SWIDTH 576 0
DWIDTH 24 0
BBX 24 24 0 -4
BITMAP
000000
000000
000000
000000
000000
000000
000000
000000
000000
000000
000000
000000
000000
000000
000000
000000
000000
000000
000000
000000
000000
000000
000000
000000
ENDCHAR
STARTCHAR a4fc
ENCODING 42236
SWIDTH 576 0
DWIDTH 24 0
BBX 24 24 0 -4
BITMAP
000000
000000
000000
000000
000000
000000
000000
000000
000000
000000
000000
000000
000000
000000
000000
000000
000000
000000
000000
000000
000000
000000
000000
000000
ENDCHAR
STARTCHAR a4fd
ENCODING 42237
SWIDTH 576 0
DWIDTH 24 0
BBX 24 24 0 -4
BITMAP
000000
000000
000000
000000
000000
000000
000000
000000
000000
000000
000000
000000
000000
000000
000000
000000
000000
000000
000000
000000
000000
000000
000000
000000
ENDCHAR
STARTCHAR a4fe
ENCODING 42238
SWIDTH 576 0
DWIDTH 24 0
BBX 24 24 0 -4
BITMAP
000000
000000
000000
000000
000000
000000
000000
000000
000000
000000
000000
000000
000000
000000
000000
000000
000000
000000
000000
000000
000000
000000
000000
000000
ENDCHAR
STARTCHAR a5a1
ENCODING 42401
SWIDTH 576 0
DWIDTH 24 0
BBX 24 24 0 -4
BITMAP
000000
000000
000000
000000
000000
000000
000000
000040
083fe0
07e060
0700f0
002300
001c00
001800
001800
001000
003000
003000
002000
006000
004000
008000
010000
000000
ENDCHAR
STARTCHAR a5a2
ENCODING 42402
SWIDTH 576 0
DWIDTH 24 0
BBX 24 24 0 -4
BITMAP
000000
000000
0000f0
21fffc
3fc01e
1c003e
003078
001cc0
000f00
000c00
000c00
001800
001800
001000
003000
002000
006000
004000
00c000
008000
010000
020000
040000
000000
ENDCHAR
STARTCHAR a5a3
ENCODING 42403
SWIDTH 576 0
DWIDTH 24 0
BBX 24 24 0 -4
BITMAP
000000
000000
000000
000000
000000
000000
000100
000180
000180
000300
000600
000c00
001800
003c00
006400
00c400
030400
000400
000400
000c00
000c00
000c00
000400
000000
ENDCHAR
STARTCHAR a5a4
ENCODING 42404
SWIDTH 576 0
DWIDTH 24 0
BBX 24 24 0 -4
BITMAP
000100
000180
0003c0
000380
000700
000600
000e00
001c00
003800
007800
00cc00
018c00
030c00
0c0c00
300c00
000c00
000c00
000c00
000c00
000c00
000c00
000c00
000800
000000
ENDCHAR
STARTCHAR a5a5
ENCODING 42405
SWIDTH 576 0
DWIDTH 24 0
BBX 24 24 0 -4
BITMAP
000000
000000
000000
000000
000000
000000
002000
001800
001800
021fe0
01f070
010060
030060
0300c0
0100c0
000180
000180
000300
000200
000400
000800
001000
002000
000000
ENDCHAR
STARTCHAR a5a6
ENCODING 42406
SWIDTH 576 0
DWIDTH 24 0
BBX 24 24 0 -4
BITMAP
000000
007000
003800
001800
001800
3018f0
1ffff8
0f803c
0c0038
0c0030
0c0070
0c0060
0c0060
0c00c0
0800c0
000180
000180
000300
000600
000400
000800
001000
002000
000000
ENDCHAR
STARTCHAR a5a7
ENCODING 42407
SWIDTH 576 0
DWIDTH 24 0
BBX 24 24 0 -4
BITMAP
000000
000000
000000
000000
000000
000000
000000
000000
000000
000000
020380
01ffc0
01a000
001800
001800
001800
001800
001000
001000
1010c0
0ffff0
070030
000000
000000
ENDCHAR
STARTCHAR a5a8
ENCODING 42408
SWIDTH 576 0
DWIDTH 24 0
BBX 24 24 0 -4
BITMAP
000000
000000
000000
000000
1000e0
0ffff0
073030
001800
001800
001800
001800
001800
001800
001800
003800
003000
003000
80fff8
7ffffe
3c000e
000000
000000
000000
000000
ENDCHAR
STARTCHAR a5a9
ENCODING 42409
SWIDTH 576 0
DWIDTH 24 0
BBX 24 24 0 -4
BITMAP
000000
000000
000000
000000
000000
000000
001000
000c00
000c00
000c60
087ff0
07cc00
021c00
001400
003400
006400
00c400
018400
030400
0c0400
003c00
001c00
000c00
000000
ENDCHAR
STARTCHAR a5aa
ENCODING 42410
SWIDTH 576 0
DWIDTH 24 0
BBX 24 24 0 -4
BITMAP
000000
000c00
000700
000300
000300
000300
0003fc
21fffe
1fc700
0c0f00
001f00
003b00
003300
006300
00c300
018300
030300
060300
180300
600300
001300
000f00
000700
000200
ENDCHAR
STARTCHAR a5ab
ENCODING 42411
SWIDTH 576 0
DWIDTH 24 0
BBX 24 24 0 -4
BITMAP
000000
001800
000c00
000e00
000c00
001c00
001820
107ff0
0ffe38
073038
006030
006030
00c060
00c060
018060
0180c0
0300c0
0600c0
0c0180
182180
301380
400f00
000700
000200
ENDCHAR
STARTCHAR a5ac
ENCODING 42412
SWIDTH 576 0
DWIDTH 24 0
BBX 24 24 0 -4
BITMAP
000006
001803
000c33
000e18
000c18
001c00
001820
107ff0
0ffe38
073038
006030
006030
00c060
00c060
018060
0180c0
0300c0
0600c0
0c0180
182180
301380
400f00
000700
000200
ENDCHAR
STARTCHAR a5ad
ENCODING 42413
SWIDTH 576 0
DWIDTH 24 0
BBX 24 24 0 -4
BITMAP
000000
018000
00e000
006000
0061c0
002fe0
007e00
21e000
1f3000
0c3000
001038
001bfc
001f00
40f800
3f8c00
1c0c00
000400
000600
000600
000600
000300
000300
000300
000100
ENDCHAR
STARTCHAR a5ae
ENCODING 42414
SWIDTH 576 0
DWIDTH 24 0
BBX 24 24 0 -4
BITMAP
000006
018003
00e033
006018
006198
002fc0
007c00
21e000
1f3000
0c3000
001038
001bfc
001f00
40f800
3f8c00
1c0c00
000400
000600
000600
000600
000300
000300
000300
000100
ENDCHAR
STARTCHAR a5af
ENCODING 42415
SWIDTH 576 0
DWIDTH 24 0
BBX 24 24 0 -4
BITMAP
000000
002000
003800
003040
007fe0
007c70
00e070
01c0e0
0300c0
0601c0
080180
100380
000700
000e00
000c00
001800
003000
006000
00c000
018000
030000
060000
180000
000000
ENDCHAR
STARTCHAR a5b0
ENCODING 42416
SWIDTH 576 0
DWIDTH 24 0
BBX 24 24 0 -4
BITMAP
000006
000003
004033
007018
006098
00ffc0
00f8e0
01c0e0
0381c0
060180
0c0380
100700
200e00
001c00
001800
003000
006000
00c000
018000
030000
060000
0c0000
300000
000000
ENDCHAR
STARTCHAR a5b1
ENCODING 42417
SWIDTH 576 0
DWIDTH 24 0
BBX 24 24 0 -4
BITMAP
000000
00c000
006000
006000
00e000
00c000
01807c
03fffe
067e00
0c0300
100300
200300
000600
000600
000c00
000c00
001800
003000
006000
00c000
018000
030000
0c0000
000000
ENDCHAR
STARTCHAR a5b2
ENCODING 42418
SWIDTH 576 0
DWIDTH 24 0
BBX 24 24 0 -4
BITMAP
000006
00c003
006033
006018
00e018
00c000
018000
03007c
06fffe
0c3e00
100300
200300
000600
000600
000c00
000c00
001800
003000
006000
00c000
018000
030000
0c0000
000000
ENDCHAR
STARTCHAR a5b3
ENCODING 42419
SWIDTH 576 0
DWIDTH 24 0
BBX 24 24 0 -4
BITMAP
000000
000000
000000
000000
0000e0
107ff0
0ff038
070030
000030
000070
000060
000060
000060
000060
0000e0
0000c0
0000c0
1000c0
0fffe0
07c060
000000
000000
000000
000000
ENDCHAR
STARTCHAR a5b4
ENCODING 42420
SWIDTH 576 0
DWIDTH 24 0
BBX 24 24 0 -4
BITMAP
000006
000003
000033
000018
000018
0001c0
107fe0
0ff070
070060
000060
0000e0
0000c0
0000c0
0000c0
0001c0
000180
000180
100180
0fffc0
07c0c0
000000
000000
000000
000000
ENDCHAR
STARTCHAR a5b5
ENCODING 42421
SWIDTH 576 0
DWIDTH 24 0
BBX 24 24 0 -4
BITMAP
000000
000600
000380
0301c0
018180
018180
01819e
819fff
7ff180
398180
018180
018180
018380
018300
018300
010300
000600
000600
000400
000c00
001800
001000
002000
004000
ENDCHAR
STARTCHAR a5b6
ENCODING 42422
SWIDTH 576 0
DWIDTH 24 0
BBX 24 24 0 -4
BITMAP
000006
000c03
000733
030398
018318
018300
018300
01831c
819ffe
7ff300
398300
018300
018700
018600
018600
010600
000c00
000c00
000800
001800
003000
002000
004000
008000
ENDCHAR
STARTCHAR a5b7
ENCODING 42423
SWIDTH 576 0
DWIDTH 24 0
BBX 24 24 0 -4
BITMAP
000000
000000
060000
038000
01c000
00c000
000000
000000
000002
180004
0f0008
038010
018060
0000c0
000180
000300
000e00
003c00
10f000
1fe000
0f8000
060000
000000
000000
ENDCHAR
STARTCHAR a5b8
ENCODING 42424
SWIDTH 576 0
DWIDTH 24 0
BBX 24 24 0 -4
BITMAP
000006
000003
060033
038018
01c018
00c000
000000
000000
000002
180004
0f0008
038010
018060
0000c0
000180
000300
000e00
003c00
10f000
1fe000
0f8000
060000
000000
000000
ENDCHAR
STARTCHAR a5b9
ENCODING 42425
SWIDTH 576 0
DWIDTH 24 0
BBX 24 24 0 -4
BITMAP
000000
000000
000000
000180
041fc0
03f8e0
01c1c0
000180
000380
000300
000600
000600
000c00
001c00
003200
006180
00c0e0
018070
060038
18001c
60000c
000000
000000
000000
ENDCHAR
STARTCHAR a5ba
ENCODING 42426
SWIDTH 576 0
DWIDTH 24 0
BBX 24 24 0 -4
BITMAP
000006
000003
000033
000318
083f98
07f1c0
038180
000380
000300
000700
000600
000e00
000c00
001800
003600
006180
00c0e0
018070
060038
18001c
60000c
000000
000000
000000
ENDCHAR
STARTCHAR a5bb
ENCODING 42427
SWIDTH 576 0
DWIDTH 24 0
BBX 24 24 0 -4
BITMAP
000000
000000
018000
00c000
00e000
00c000
00c000
00c070
00cff8
00fc3c
07c070
7ec0c0
30c100
00c200
00c000
00c000
00c000
004000
007000
003ff8
000ff8
000000
000000
000000
ENDCHAR
STARTCHAR a5bc
ENCODING 42428
SWIDTH 576 0
DWIDTH 24 0
BBX 24 24 0 -4
BITMAP
000006
000003
018033
00c018
00e018
00c000
00c000
00c070
00cff8
00fc3c
07c070
7ec0c0
30c100
00c200
00c000
00c000
00c000
004000
007000
003ff8
000ff8
000000
000000
000000
ENDCHAR
STARTCHAR a5bd
ENCODING 42429
SWIDTH 576 0
DWIDTH 24 0
BBX 24 24 0 -4
BITMAP
000000
000000
000060
000030
100038
0c0030
060070
070060
0300e0
0380c0
0181c0
000180
000300
000300
000600
000c00
000c00
001800
003000
002000
004000
008000
010000
000000
ENDCHAR
STARTCHAR a5be
ENCODING 42430
SWIDTH 576 0
DWIDTH 24 0
BBX 24 24 0 -4
BITMAP
000006
000003
000033
000318
400198
3001c0
180180
1c0180
0c0300
0e0300
060600
000600
000c00
000c00
001800
001000
003000
006000
004000
008000
010000
020000
040000
000000
ENDCHAR
STARTCHAR a5bf
ENCODING 42431
SWIDTH 576 0
DWIDTH 24 0
BBX 24 24 0 -4
BITMAP
000000
003000
001800
001860
003ff0
007738
006030
00c070
018060
0360c0
0631c0
181980
001b00
000700
000600
000c00
001800
003000
006000
00c000
018000
060000
180000
000000
ENDCHAR
STARTCHAR a5c0
ENCODING 42432
SWIDTH 576 0
DWIDTH 24 0
BBX 24 24 0 -4
BITMAP
000006
006003
003033
003018
006198
007fc0
00d8e0
0180c0
030180
06c180
0c6300
303300
003600
000c00
000c00
001800
003000
006000
00c000
018000
030000
0c0000
300000
000000
ENDCHAR
STARTCHAR a5c1
ENCODING 42433
SWIDTH 576 0
DWIDTH 24 0
BBX 24 24 0 -4
BITMAP
000000
000200
000300
000f80
003e00
00f800
070c00
000c00
000c00
000c78
41fffe
3f8c06
1c0c00
000c00
000c00
001800
001800
001800
003000
003000
006000
004000
008000
010000
ENDCHAR
STARTCHAR a5c2
ENCODING 42434
SWIDTH 576 0
DWIDTH 24 0
BBX 24 24 0 -4
BITMAP
000006
000203
000333
000f98
003e18
00f800
070c00
000c00
000c00
000c78
41fffe
3f8c06
1c0c00
000c00
000c00
001800
001800
001800
003000
003000
006000
004000
008000
010000
ENDCHAR
STARTCHAR a5c3
ENCODING 42435
SWIDTH 576 0
DWIDTH 24 0
BBX 24 24 0 -4
BITMAP
000000
000000
000000
000000
000000
000000
000000
000000
000000
002040
041070
021860
031860
0308c0
0100c0
000180
000100
000300
000600
000400
000800
001000
002000
000000
ENDCHAR
STARTCHAR a5c4
ENCODING 42436
SWIDTH 576 0
DWIDTH 24 0
BBX 24 24 0 -4
BITMAP
000000
000000
000000
004030
006018
20201c
103018
183038
1c3030
0c0030
0c0060
000060
0000c0
0000c0
000180
000180
000300
000600
000c00
001800
003000
006000
018000
000000
ENDCHAR
STARTCHAR a5c5
ENCODING 42437
SWIDTH 576 0
DWIDTH 24 0
BBX 24 24 0 -4
BITMAP
000006
000003
000033
010318
018198
4081c0
20c180
30c180
38c380
180300
180300
000600
000600
000c00
000c00
001800
001800
003000
006000
00c000
018000
030000
0c0000
000000
ENDCHAR
STARTCHAR a5c6
ENCODING 42438
SWIDTH 576 0
DWIDTH 24 0
BBX 24 24 0 -4
BITMAP
000000
000000
0403c0
03ffe0
01e000
000000
000000
000000
000078
40fffe
3fc80e
1c0c00
000c00
000c00
001800
001800
001800
003000
003000
002000
006000
004000
008000
010000
ENDCHAR
STARTCHAR a5c7
ENCODING 42439
SWIDTH 576 0
DWIDTH 24 0
BBX 24 24 0 -4
BITMAP
000006
000003
040733
03ff98
01c018
000000
000000
000000
0000f0
40fffc
3fc81c
1c0c00
000c00
000c00
001800
001800
001800
003000
003000
002000
006000
004000
008000
010000
ENDCHAR
STARTCHAR a5c8
ENCODING 42440
SWIDTH 576 0
DWIDTH 24 0
BBX 24 24 0 -4
BITMAP
000000
030000
01c000
00e000
00e000
00c000
00c000
00c000
00c000
00f000
00ce00
00c380
00c0e0
00c070
00c030
00c000
00c000
00c000
00c000
00c000
00c000
00c000
008000
000000
ENDCHAR
STARTCHAR a5c9
ENCODING 42441
SWIDTH 576 0
DWIDTH 24 0
BBX 24 24 0 -4
BITMAP
000000
030000
01c030
00e018
00e198
00c0c0
00c0c0
00c000
00c000
00f000
00ce00
00c380
00c0e0
00c070
00c030
00c000
00c000
00c000
00c000
00c000
00c000
00c000
008000
000000
ENDCHAR
STARTCHAR a5ca
ENCODING 42442
SWIDTH 576 0
DWIDTH 24 0
BBX 24 24 0 -4
BITMAP
000000
003000
001800
000c00
000c00
000c00
000c00
000c78
41fffe
3f8c0e
1c0c00
000c00
001c00
001800
001800
001800
003000
003000
002000
006000
004000
008000
010000
000000
ENDCHAR
STARTCHAR a5cb
ENCODING 42443
SWIDTH 576 0
DWIDTH 24 0
BBX 24 24 0 -4
BITMAP
000000
000000
000000
000000
080780
07ffe0
0380e0
000000
000000
000000
000000
000000
000000
000000
000000
000000
400ff0
3ffffe
1f001e
000000
000000
000000
000000
000000
ENDCHAR
STARTCHAR a5cc
ENCODING 42444
SWIDTH 576 0
DWIDTH 24 0
BBX 24 24 0 -4
BITMAP
000000
000000
000000
0200e0
01fff0
00e0e0
0000c0
0001c0
000180
030300
00c300
003600
001c00
000e00
001b00
003380
003180
0061c0
00c0c0
018000
030000
0c0000
300000
000000
ENDCHAR
STARTCHAR a5cd
ENCODING 42445
SWIDTH 576 0
DWIDTH 24 0
BBX 24 24 0 -4
BITMAP
003000
001c00
000e00
000600
000000
000180
087fc0
07e380
030700
000e00
001c00
003c80
006c60
00cc38
018c1c
030c0e
0c0c06
300c00
000c00
000c00
000c00
000c00
000800
000000
ENDCHAR
STARTCHAR a5ce
ENCODING 42446
SWIDTH 576 0
DWIDTH 24 0
BBX 24 24 0 -4
BITMAP
000000
000000
000060
000030
000038
000070
000060
0000e0
0000c0
0001c0
000180
000300
000700
000600
000c00
001800
003000
006000
00c000
018000
060000
180000
000000
000000
ENDCHAR
STARTCHAR a5cf
ENCODING 42447
SWIDTH 576 0
DWIDTH 24 0
BBX 24 24 0 -4
BITMAP
000000
000000
000000
000000
030000
018200
018100
018080
0380c0
030060
030030
060038
060018
0c001c
0c000c
18000e
100006
200006
c00006
000000
000000
000000
000000
000000
ENDCHAR
STARTCHAR a5d0
ENCODING 42448
SWIDTH 576 0
DWIDTH 24 0
BBX 24 24 0 -4
BITMAP
000006
000003
000033
000018
030018
018200
018100
018080
0380c0
030060
030030
060038
060018
0c001c
0c000c
18000e
100006
200006
c00006
000000
000000
000000
000000
000000
ENDCHAR
STARTCHAR a5d1
ENCODING 42449
SWIDTH 576 0
DWIDTH 24 0
BBX 24 24 0 -4
BITMAP
000000
000000
00000e
000011
030011
018211
01810e
018080
0380c0
030060
030030
060038
060018
0c001c
0c000c
18000e
100006
200006
c00006
000000
000000
000000
000000
000000
ENDCHAR
STARTCHAR a5d2
ENCODING 42450
SWIDTH 576 0
DWIDTH 24 0
BBX 24 24 0 -4
BITMAP
000000
180000
0e0000
070000
060000
060000
060000
060780
07ffc0
06e000
060000
060000
060000
060000
060000
060000
060000
070000
03c070
01fff0
007fc0
000000
000000
000000
ENDCHAR
STARTCHAR a5d3
ENCODING 42451
SWIDTH 576 0
DWIDTH 24 0
BBX 24 24 0 -4
BITMAP
000006
180003
0e0033
070018
060018
060000
060000
060780
07ffc0
06e000
060000
060000
060000
060000
060000
060000
060000
070000
03c070
01fff0
007fc0
000000
000000
000000
ENDCHAR
STARTCHAR a5d4
ENCODING 42452
SWIDTH 576 0
DWIDTH 24 0
BBX 24 24 0 -4
BITMAP
000000
180000
0e001c
070022
060022
060022
06001c
060780
07ffc0
06e000
060000
060000
060000
060000
060000
060000
060000
070000
03c070
01fff0
007fc0
000000
000000
000000
ENDCHAR
STARTCHAR a5d5
ENCODING 42453
SWIDTH 576 0
DWIDTH 24 0
BBX 24 24 0 -4
BITMAP
000000
000000
000000
000000
1003e0
0ffff0
03c038
000070
000060
000060
0000c0
0000c0
000180
000180
000300
000600
000c00
001800
003000
006000
018000
060000
000000
000000
ENDCHAR
STARTCHAR a5d6
ENCODING 42454
SWIDTH 576 0
DWIDTH 24 0
BBX 24 24 0 -4
BITMAP
000006
000003
000033
000018
200798
1fffc0
0780e0
0000c0
0001c0
000180
000180
000300
000300
000600
000600
000c00
001800
003000
006000
00c000
030000
0c0000
000000
000000
ENDCHAR
STARTCHAR a5d7
ENCODING 42455
SWIDTH 576 0
DWIDTH 24 0
BBX 24 24 0 -4
BITMAP
000000
000000
00000e
000011
400f11
3fff91
0f01ce
000180
000380
000300
000300
000600
000600
000c00
000c00
001800
003000
006000
00c000
018000
060000
180000
000000
000000
ENDCHAR
STARTCHAR a5d8
ENCODING 42456
SWIDTH 576 0
DWIDTH 24 0
BBX 24 24 0 -4
BITMAP
000000
000000
000000
000000
010000
038000
02c000
066000
0c3000
0c1800
180c00
380600
f00300
600180
0000e0
000070
00003c
00001e
000007
000003
000000
000000
000000
000000
ENDCHAR
STARTCHAR a5d9
ENCODING 42457
SWIDTH 576 0
DWIDTH 24 0
BBX 24 24 0 -4
BITMAP
000000
000060
000030
000330
010180
038180
02c000
066000
0c3000
0c1800
180c00
380600
f00300
600180
0000e0
000070
00003c
00001e
000007
000003
000000
000000
000000
000000
ENDCHAR
STARTCHAR a5da
ENCODING 42458
SWIDTH 576 0
DWIDTH 24 0
BBX 24 24 0 -4
BITMAP
000000
000000
000000
0000e0
010110
038110
02c110
0660e0
0c3000
0c1800
180c00
380600
f00300
600180
0000e0
000070
00003c
00001e
000007
000003
000000
000000
000000
000000
ENDCHAR
STARTCHAR a5db
ENCODING 42459
SWIDTH 576 0
DWIDTH 24 0
BBX 24 24 0 -4
BITMAP
000000
003000
001800
001c00
001800
001800
001870
403ffc
3ff80c
1e1800
001800
001800
001840
041820
041830
0c1818
08181c
18180c
38180c
309800
007800
003800
001000
000000
ENDCHAR
STARTCHAR a5dc
ENCODING 42460
SWIDTH 576 0
DWIDTH 24 0
BBX 24 24 0 -4
BITMAP
000006
003003
001833
001c18
001818
001800
0018e0
203ff8
1ff818
0e1800
001800
001800
001840
041820
041830
0c1818
08181c
18180c
38180c
309800
007800
003800
001000
000000
ENDCHAR
STARTCHAR a5dd
ENCODING 42461
SWIDTH 576 0
DWIDTH 24 0
BBX 24 24 0 -4
BITMAP
000000
006000
00300e
003811
003011
003011
0031ce
407fe0
3ff060
1c3000
003000
003000
003080
083040
083060
183030
103038
303018
703018
613000
00f000
007000
002000
000000
ENDCHAR
STARTCHAR a5de
ENCODING 42462
SWIDTH 576 0
DWIDTH 24 0
BBX 24 24 0 -4
BITMAP
000000
000000
000000
000000
000038
401ffc
3ff80e
1f001c
080038
000030
000060
0000c0
000180
008200
006400
003800
001c00
000e00
000700
000700
000300
000000
000000
000000
ENDCHAR
STARTCHAR a5df
ENCODING 42463
SWIDTH 576 0
DWIDTH 24 0
BBX 24 24 0 -4
BITMAP
000000
010000
00c000
007c00
001f80
0003c0
0000c0
000000
010000
018000
00f000
003f00
0007c0
0000c0
000000
000000
040000
030000
01e000
007f00
000fc0
0001e0
000060
000000
ENDCHAR
STARTCHAR a5e0
ENCODING 42464
SWIDTH 576 0
DWIDTH 24 0
BBX 24 24 0 -4
BITMAP
000000
000000
003000
001800
001c00
001c00
003800
003000
003000
006000
006000
004100
00c080
008040
018060
010030
030018
4201f8
7ffe0c
3f800c
18000c
000000
000000
000000
ENDCHAR
STARTCHAR a5e1
ENCODING 42465
SWIDTH 576 0
DWIDTH 24 0
BBX 24 24 0 -4
BITMAP
000000
000000
0000c0
000060
000070
0000e0
0000c0
030180
00c180
003300
001f00
000e00
000f00
001b80
0031c0
0060c0
00c0e0
018060
030000
060000
180000
600000
000000
000000
ENDCHAR
STARTCHAR a5e2
ENCODING 42466
SWIDTH 576 0
DWIDTH 24 0
BBX 24 24 0 -4
BITMAP
000000
000000
000000
100780
0fffc0
07c000
006000
006000
006000
006000
0063f8
41fffc
3fe000
1c6000
006000
006000
006000
006000
006000
007800
003ff8
000ff8
000000
000000
ENDCHAR
STARTCHAR a5e3
ENCODING 42467
SWIDTH 576 0
DWIDTH 24 0
BBX 24 24 0 -4
BITMAP
000000
000000
000000
000000
000000
000000
000000
01c000
00c000
00c060
0043f0
007c38
21e040
1f2080
0c3100
001000
001000
001800
001800
000800
000c00
000c00
000c00
000000
ENDCHAR
STARTCHAR a5e4
ENCODING 42468
SWIDTH 576 0
DWIDTH 24 0
BBX 24 24 0 -4
BITMAP
000000
018000
03c000
00c000
00c000
00400c
0061fe
007f07
01f00e
8fa01c
7c3030
3030c0
001000
001000
001800
001800
000800
000800
000c00
000c00
000600
000600
000600
000000
ENDCHAR
STARTCHAR a5e5
ENCODING 42469
SWIDTH 576 0
DWIDTH 24 0
BBX 24 24 0 -4
BITMAP
000000
000000
000000
000000
000000
000000
000000
000000
000000
000000
010300
00ff80
00c300
000300
000300
000200
000600
000400
000400
107ff8
0fc038
0c0000
000000
000000
ENDCHAR
STARTCHAR a5e6
ENCODING 42470
SWIDTH 576 0
DWIDTH 24 0
BBX 24 24 0 -4
BITMAP
000000
000000
000000
000000
000000
080f00
07ff80
038380
000300
000300
000300
000300
000600
000600
000600
000400
000400
81fffe
7fc03f
380000
000000
000000
000000
000000
ENDCHAR
STARTCHAR a5e7
ENCODING 42471
SWIDTH 576 0
DWIDTH 24 0
BBX 24 24 0 -4
BITMAP
000000
000000
000000
000000
000000
000000
000000
000000
000000
020180
01ffc0
00c180
000180
000180
020180
01ff80
00c100
000100
000100
000100
020100
01ff80
00c000
000000
ENDCHAR
STARTCHAR a5e8
ENCODING 42472
SWIDTH 576 0
DWIDTH 24 0
BBX 24 24 0 -4
BITMAP
000000
000000
000000
1003e0
0ffff0
070070
000060
000060
000060
000060
080fe0
07fcc0
0380c0
0000c0
0000c0
0000c0
000080
000080
101f80
0fffc0
070000
000000
000000
000000
ENDCHAR
STARTCHAR a5e9
ENCODING 42473
SWIDTH 576 0
DWIDTH 24 0
BBX 24 24 0 -4
BITMAP
000000
000000
0403c0
03ffe0
01c000
000000
000000
000030
101ff8
0ffc38
070030
000070
000060
0000e0
0000c0
0001c0
000380
000300
000600
000c00
001800
006000
038000
000000
ENDCHAR
STARTCHAR a5ea
ENCODING 42474
SWIDTH 576 0
DWIDTH 24 0
BBX 24 24 0 -4
BITMAP
000000
000180
0400c0
0200e0
0300c0
0300c0
0300c0
0300c0
0300c0
0300c0
0300c0
0300c0
0300c0
0300c0
0201c0
000180
000180
000300
000300
000600
000c00
003000
01c000
000000
ENDCHAR
STARTCHAR a5eb
ENCODING 42475
SWIDTH 576 0
DWIDTH 24 0
BBX 24 24 0 -4
BITMAP
000000
000000
003000
001800
001c00
0c1800
071800
061800
061800
061800
061801
0c1802
0c1804
0c1808
0c1810
181860
1818c0
101b80
301f00
203e00
401c00
800800
000000
000000
ENDCHAR
STARTCHAR a5ec
ENCODING 42476
SWIDTH 576 0
DWIDTH 24 0
BBX 24 24 0 -4
BITMAP
000000
000000
180000
0e0000
070000
060000
060000
060000
060000
060004
060008
060010
060020
0600c0
060180
060700
060e00
063800
07f000
0fc000
0f0000
040000
000000
000000
ENDCHAR
STARTCHAR a5ed
ENCODING 42477
SWIDTH 576 0
DWIDTH 24 0
BBX 24 24 0 -4
BITMAP
000000
000000
000000
000000
000000
301ff0
1ffff8
18001c
18001c
180018
080018
0c0018
0c0030
0c0030
0c0030
0c0020
0c0060
0c0060
0ffff0
040030
040000
000000
000000
000000
ENDCHAR
STARTCHAR a5ee
ENCODING 42478
SWIDTH 576 0
DWIDTH 24 0
BBX 24 24 0 -4
BITMAP
000000
000000
000000
000000
000000
000000
000000
000000
000040
041fe0
03f070
010060
0100c0
0100c0
030180
030180
010300
000200
000600
000c00
000800
001000
006000
000000
ENDCHAR
STARTCHAR a5ef
ENCODING 42479
SWIDTH 576 0
DWIDTH 24 0
BBX 24 24 0 -4
BITMAP
000000
000000
000000
3000f0
1ffff8
0fc01c
0c0018
0c0038
0c0030
0c0030
0c0060
0c0060
0400c0
000180
000180
000300
000600
000c00
001800
003000
006000
018000
000000
000000
ENDCHAR
STARTCHAR a5f0
ENCODING 42480
SWIDTH 576 0
DWIDTH 24 0
BBX 24 24 0 -4
BITMAP
000c00
000600
000700
000600
000600
000600
101fe0
0ffff0
07c600
030600
030600
030600
030600
03061c
87fffe
7f860e
380600
000600
000600
000600
000600
000600
000600
000400
ENDCHAR
STARTCHAR a5f1
ENCODING 42481
SWIDTH 576 0
DWIDTH 24 0
BBX 24 24 0 -4
BITMAP
000000
000000
000000
000000
0001c0
10fff0
0fc0e0
0601c0
003300
001c00
001800
001800
001800
001000
001000
001000
0010f0
80fffe
7fe01f
3c0003
000000
000000
000000
000000
ENDCHAR
STARTCHAR a5f2
ENCODING 42482
SWIDTH 576 0
DWIDTH 24 0
BBX 24 24 0 -4
BITMAP
000000
000000
000060
0407f0
03fe18
01e038
000030
000030
000060
081fe0
07f8c0
0381c0
000180
000300
000700
000600
000c00
001800
003000
006000
00c000
018000
020000
000000
ENDCHAR
STARTCHAR a5f3
ENCODING 42483
SWIDTH 576 0
DWIDTH 24 0
BBX 24 24 0 -4
BITMAP
000000
000000
000000
080000
040000
070000
038002
01c004
00c008
000010
000020
0000c0
000180
000300
000600
000c00
003800
007000
11e000
0f8000
0f0000
040000
000000
000000
ENDCHAR
STARTCHAR a5f4
ENCODING 42484
SWIDTH 576 0
DWIDTH 24 0
BBX 24 24 0 -4
BITMAP
000006
00e003
007033
003018
003018
3031c0
1fffe0
0f80f0
0c00e0
0c00c0
0c01c0
0c0180
0c0180
0c0300
080300
000600
000600
000c00
000800
001000
002000
004000
008000
000000
ENDCHAR
STARTCHAR a5f5
ENCODING 42485
SWIDTH 576 0
DWIDTH 24 0
BBX 24 24 0 -4
BITMAP
000000
000000
000000
000000
000000
000000
001000
000c00
000c00
000c00
020860
01fff0
019060
003060
002040
0060c0
00c0c0
008080
010180
021100
040f00
000600
000400
000000
ENDCHAR
STARTCHAR a5f6
ENCODING 42486
SWIDTH 576 0
DWIDTH 24 0
BBX 24 24 0 -4
BITMAP
000000
000000
000000
000000
000000
000000
000000
004000
006000
00c000
00c0e0
018ff0
037c00
060600
080600
000400
000c00
000800
001800
001000
002000
004000
018000
000000
ENDCHAR
STARTCHAR a5f7
ENCODING 42487
SWIDTH 576 0
DWIDTH 24 0
BBX 24 24 0 -4
BITMAP
000000
000000
000000
000000
000000
000000
000000
000000
000000
000000
000000
000000
000000
000000
000000
000000
000000
000000
000000
000000
000000
000000
000000
000000
ENDCHAR
STARTCHAR a5f8
ENCODING 42488
SWIDTH 576 0
DWIDTH 24 0
BBX 24 24 0 -4
BITMAP
000000
000000
000000
000000
000000
000000
000000
000000
000000
000000
000000
000000
000000
000000
000000
000000
000000
000000
000000
000000
000000
000000
000000
000000
ENDCHAR
STARTCHAR a5f9
ENCODING 42489
SWIDTH 576 0
DWIDTH 24 0
BBX 24 24 0 -4
BITMAP
000000
000000
000000
000000
000000
000000
000000
000000
000000
000000
000000
000000
000000
000000
000000
000000
000000
000000
000000
000000
000000
000000
000000
000000
ENDCHAR
STARTCHAR a5fa
ENCODING 42490
SWIDTH 576 0
DWIDTH 24 0
BBX 24 24 0 -4
BITMAP
000000
000000
000000
000000
000000
000000
000000
000000
000000
000000
000000
000000
000000
000000
000000
000000
000000
000000
000000
000000
000000
000000
000000
000000
ENDCHAR
STARTCHAR a5fb
ENCODING 42491
SWIDTH 576 0
DWIDTH 24 0
BBX 24 24 0 -4
BITMAP
000000
000000
000000
000000
000000
000000
000000
000000
000000
000000
000000
000000
000000
000000
000000
000000
000000
000000
000000
000000
000000
000000
000000
000000
ENDCHAR
STARTCHAR a5fc
ENCODING 42492
SWIDTH 576 0
DWIDTH 24 0
BBX 24 24 0 -4
BITMAP
000000
000000
000000
000000
000000
000000
000000
000000
000000
000000
000000
000000
000000
000000
000000
000000
000000
000000
000000
000000
000000
000000
000000
000000
ENDCHAR
STARTCHAR a5fd
ENCODING 42493
SWIDTH 576 0
DWIDTH 24 0
BBX 24 24 0 -4
BITMAP
000000
000000
000000
000000
000000
000000
000000
000000
000000
000000
000000
000000
000000
000000
000000
000000
000000
000000
000000
000000
000000
000000
000000
000000
ENDCHAR
STARTCHAR a5fe
ENCODING 42494
SWIDTH 576 0
DWIDTH 24 0
BBX 24 24 0 -4
BITMAP
000000
000000
000000
000000
000000
000000
000000
000000
000000
000000
000000
000000
000000
000000
000000
000000
000000
000000
000000
000000
000000
000000
000000
000000
ENDCHAR
STARTCHAR a6a1
ENCODING 42657
SWIDTH 576 0
DWIDTH 24 0
BBX 24 24 0 -4
BITMAP
000000
000000
001000
001000
003800
003800
002c00
004c00
004600
008600
008300
008300
010180
010180
03ffc0
0200c0
040060
040060
080030
080030
3e00fc
000000
000000
000000
ENDCHAR
STARTCHAR a6a2
ENCODING 42658
SWIDTH 576 0
DWIDTH 24 0
BBX 24 24 0 -4
BITMAP
000000
000000
0ffe00
030180
0300c0
030060
030060
030060
030060
0300c0
030080
03ff00
0300c0
030060
030030
030030
030030
030030
030060
0300c0
0fff00
000000
000000
000000
ENDCHAR
STARTCHAR a6a3
ENCODING 42659
SWIDTH 576 0
DWIDTH 24 0
BBX 24 24 0 -4
BITMAP
000000
000000
0ffff0
030030
030010
030010
030010
030000
030000
030000
030000
030000
030000
030000
030000
030000
030000
030000
030000
030000
0fc000
000000
000000
000000
ENDCHAR
STARTCHAR a6a4
ENCODING 42660
SWIDTH 576 0
DWIDTH 24 0
BBX 24 24 0 -4
BITMAP
000000
000000
001000
001000
003800
003800
002c00
004c00
004600
008600
008300
008300
010180
010180
0200c0
0200c0
040060
040060
080030
0ffff0
1ffff8
000000
000000
000000
ENDCHAR
STARTCHAR a6a5
ENCODING 42661
SWIDTH 576 0
DWIDTH 24 0
BBX 24 24 0 -4
BITMAP
000000
000000
1fffc0
0600c0
060040
060040
060000
060000
060200
060200
060600
07fe00
060600
060200
060200
060000
060020
060020
060020
060060
1fffe0
000000
000000
000000
ENDCHAR
STARTCHAR a6a6
ENCODING 42662
SWIDTH 576 0
DWIDTH 24 0
BBX 24 24 0 -4
BITMAP
000000
000000
0ffff0
0c00e0
0801c0
080180
080380
000700
000600
000c00
001c00
003800
003000
006000
00e000
01c000
018010
030010
070010
0e0030
1ffff0
000000
000000
000000
ENDCHAR
STARTCHAR a6a7
ENCODING 42663
SWIDTH 576 0
DWIDTH 24 0
BBX 24 24 0 -4
BITMAP
000000
000000
1f81f8
060060
060060
060060
060060
060060
060060
060060
060060
07ffe0
060060
060060
060060
060060
060060
060060
060060
060060
1f81f8
000000
000000
000000
ENDCHAR
STARTCHAR a6a8
ENCODING 42664
SWIDTH 576 0
DWIDTH 24 0
BBX 24 24 0 -4
BITMAP
000000
000000
007e00
018180
0300c0
060060
0c0030
0c0030
180018
188118
18ff18
18ff18
188118
180018
180018
0c0030
0c0030
060060
0300c0
018180
007e00
000000
000000
000000
ENDCHAR
STARTCHAR a6a9
ENCODING 42665
SWIDTH 576 0
DWIDTH 24 0
BBX 24 24 0 -4
BITMAP
000000
000000
007e00
001800
001800
001800
001800
001800
001800
001800
001800
001800
001800
001800
001800
001800
001800
001800
001800
001800
007e00
000000
000000
000000
ENDCHAR
STARTCHAR a6aa
ENCODING 42666
SWIDTH 576 0
DWIDTH 24 0
BBX 24 24 0 -4
BITMAP
000000
000000
1f87e0
060180
060100
060200
060400
060800
061000
062000
066000
06f000
073800
061c00
060c00
060600
060700
060380
0601c0
0600e0
1f83f8
000000
000000
000000
ENDCHAR
STARTCHAR a6ab
ENCODING 42667
SWIDTH 576 0
DWIDTH 24 0
BBX 24 24 0 -4
BITMAP
000000
000000
001000
001000
003800
003800
002c00
004c00
004600
008600
008300
008300
010180
010180
0200c0
0200c0
040060
040060
080030
080030
3e00fc
000000
000000
000000
ENDCHAR
STARTCHAR a6ac
ENCODING 42668
SWIDTH 576 0
DWIDTH 24 0
BBX 24 24 0 -4
BITMAP
000000
000000
3f00fc
0b00b0
0b00b0
098130
098130
098130
098130
08c230
08c230
08c230
08c430
086430
086430
086830
082830
083830
083830
081030
3e10fc
000000
000000
000000
ENDCHAR
STARTCHAR a6ad
ENCODING 42669
SWIDTH 576 0
DWIDTH 24 0
BBX 24 24 0 -4
BITMAP
000000
000000
1f00f8
070020
058020
05c020
04c020
046020
047020
043020
041820
041c20
040c20
040620
040720
0403a0
0401a0
0400e0
0400e0
040060
1f0020
000000
000000
000000
ENDCHAR
STARTCHAR a6ae
ENCODING 42670
SWIDTH 576 0
DWIDTH 24 0
BBX 24 24 0 -4
BITMAP
000000
000000
07fff0
07fff0
0c0030
080020
080020
000000
000000
010040
01ffc0
03ff80
020080
000000
000000
000000
040010
040010
0c0030
0fffe0
0fffe0
000000
000000
000000
ENDCHAR
STARTCHAR a6af
ENCODING 42671
SWIDTH 576 0
DWIDTH 24 0
BBX 24 24 0 -4
BITMAP
000000
000000
007e00
018180
0300c0
060060
0c0030
0c0030
180018
180018
180018
180018
180018
180018
180018
0c0030
0c0030
060060
0300c0
018180
007e00
000000
000000
000000
ENDCHAR
STARTCHAR a6b0
ENCODING 42672
SWIDTH 576 0
DWIDTH 24 0
BBX 24 24 0 -4
BITMAP
000000
000000
1ffff8
0300c0
0300c0
0300c0
0300c0
0300c0
0300c0
0300c0
0300c0
0300c0
0300c0
0300c0
0300c0
0300c0
0300c0
0300c0
0300c0
0300c0
1fc3f8
000000
000000
000000
ENDCHAR
STARTCHAR a6b1
ENCODING 42673
SWIDTH 576 0
DWIDTH 24 0
BBX 24 24 0 -4
BITMAP
000000
000000
0fff00
0300c0
030060
030030
030030
030030
030030
030030
030060
0300c0
03ff00
030000
030000
030000
030000
030000
030000
030000
0fc000
000000
000000
000000
ENDCHAR
STARTCHAR a6b2
ENCODING 42674
SWIDTH 576 0
DWIDTH 24 0
BBX 24 24 0 -4
BITMAP
000000
000040
1fffe0
0e0020
070010
038010
01c000
00e000
007000
003800
001c00
000c00
001800
003000
006000
00c000
018008
030008
060018
0ffff0
1ffff0
000010
000000
000000
ENDCHAR
STARTCHAR a6b3
ENCODING 42675
SWIDTH 576 0
DWIDTH 24 0
BBX 24 24 0 -4
BITMAP
000000
000000
1ffff8
181818
101808
201804
201804
001800
001800
001800
001800
001800
001800
001800
001800
001800
001800
001800
001800
001800
007e00
000000
000000
000000
ENDCHAR
STARTCHAR a6b4
ENCODING 42676
SWIDTH 576 0
DWIDTH 24 0
BBX 24 24 0 -4
BITMAP
000000
000000
0781e0
0cc330
186618
103c08
203c04
001800
001800
001800
001800
001800
001800
001800
001800
001800
001800
001800
001800
001800
007e00
000000
000000
000000
ENDCHAR
STARTCHAR a6b5
ENCODING 42677
SWIDTH 576 0
DWIDTH 24 0
BBX 24 24 0 -4
BITMAP
000000
000000
00ff00
001800
001800
00ff00
0318c0
061860
0c1830
181818
181818
181818
181818
181818
0c1830
061860
0318c0
00ff00
001800
001800
00ff00
000000
000000
000000
ENDCHAR
STARTCHAR a6b6
ENCODING 42678
SWIDTH 576 0
DWIDTH 24 0
BBX 24 24 0 -4
BITMAP
000000
000000
1f80f8
070060
030040
018080
01c100
00c100
006200
007400
003800
001800
001c00
002e00
004700
004300
008180
0101c0
0200e0
060070
1f00fc
000000
000000
000000
ENDCHAR
STARTCHAR a6b7
ENCODING 42679
SWIDTH 576 0
DWIDTH 24 0
BBX 24 24 0 -4
BITMAP
000000
000000
007e00
001800
1c1838
3e187c
261864
061860
061860
061860
061860
0318c0
0318c0
011880
019980
00db00
003c00
001800
001800
001800
007e00
000000
000000
000000
ENDCHAR
STARTCHAR a6b8
ENCODING 42680
SWIDTH 576 0
DWIDTH 24 0
BBX 24 24 0 -4
BITMAP
000000
000000
007e00
018180
0300c0
060060
0c0030
0c0030
180018
180018
180018
180018
0c0030
0c0030
060060
0300c0
018180
104208
104208
1fc3f8
1fc3f8
000000
000000
000000
ENDCHAR
STARTCHAR a6b9
ENCODING 42681
SWIDTH 576 0
DWIDTH 24 0
BBX 24 24 0 -4
BITMAP
000000
000000
000000
000000
000000
000000
000000
000000
000000
000000
000000
000000
000000
000000
000000
000000
000000
000000
000000
000000
000000
000000
000000
000000
ENDCHAR
STARTCHAR a6ba
ENCODING 42682
SWIDTH 576 0
DWIDTH 24 0
BBX 24 24 0 -4
BITMAP
000000
000000
000000
000000
000000
000000
000000
000000
000000
000000
000000
000000
000000
000000
000000
000000
000000
000000
000000
000000
000000
000000
000000
000000
ENDCHAR
STARTCHAR a6bb
ENCODING 42683
SWIDTH 576 0
DWIDTH 24 0
BBX 24 24 0 -4
BITMAP
000000
000000
000000
000000
000000
000000
000000
000000
000000
000000
000000
000000
000000
000000
000000
000000
000000
000000
000000
000000
000000
000000
000000
000000
ENDCHAR
STARTCHAR a6bc
ENCODING 42684
SWIDTH 576 0
DWIDTH 24 0
BBX 24 24 0 -4
BITMAP
000000
000000
000000
000000
000000
000000
000000
000000
000000
000000
000000
000000
000000
000000
000000
000000
000000
000000
000000
000000
000000
000000
000000
000000
ENDCHAR
STARTCHAR a6bd
ENCODING 42685
SWIDTH 576 0
DWIDTH 24 0
BBX 24 24 0 -4
BITMAP
000000
000000
000000
000000
000000
000000
000000
000000
000000
000000
000000
000000
000000
000000
000000
000000
000000
000000
000000
000000
000000
000000
000000
000000
ENDCHAR
STARTCHAR a6be
ENCODING 42686
SWIDTH 576 0
DWIDTH 24 0
BBX 24 24 0 -4
BITMAP
000000
000000
000000
000000
000000
000000
000000
000000
000000
000000
000000
000000
000000
000000
000000
000000
000000
000000
000000
000000
000000
000000
000000
000000
ENDCHAR
STARTCHAR a6bf
ENCODING 42687
SWIDTH 576 0
DWIDTH 24 0
BBX 24 24 0 -4
BITMAP
000000
000000
000000
000000
000000
000000
000000
000000
000000
000000
000000
000000
000000
000000
000000
000000
000000
000000
000000
000000
000000
000000
000000
000000
ENDCHAR
STARTCHAR a6c0
ENCODING 42688
SWIDTH 576 0
DWIDTH 24 0
BBX 24 24 0 -4
BITMAP
000000
000000
000000
000000
000000
000000
000000
000000
000000
000000
000000
000000
000000
000000
000000
000000
000000
000000
000000
000000
000000
000000
000000
000000
ENDCHAR
STARTCHAR a6c1
ENCODING 42689
SWIDTH 576 0
DWIDTH 24 0
BBX 24 24 0 -4
BITMAP
000000
000000
000000
000000
000000
000000
000000
000000
003860
00c460
018260
0302c0
0702c0
060380
0e0300
0c0600
0c0600
0c0e00
0c1a40
0633c0
03c180
000000
000000
000000
ENDCHAR
STARTCHAR a6c2
ENCODING 42690
SWIDTH 576 0
DWIDTH 24 0
BBX 24 24 0 -4
BITMAP
000000
000000
000700
0018c0
003060
002060
006060
004060
00c060
0080c0
019980
019e00
010180
0300c0
0300c0
0200c0
0600c0
060180
068380
0c6700
0c3c00
0c0000
180000
180000
ENDCHAR
STARTCHAR a6c3
ENCODING 42691
SWIDTH 576 0
DWIDTH 24 0
BBX 24 24 0 -4
BITMAP
000000
000000
000000
000000
000000
000000
000000
000000
01e030
0330f0
041980
081a00
001c00
001800
001800
003000
003000
007000
006000
00e000
00e000
00c000
01c000
018000
ENDCHAR
STARTCHAR a6c4
ENCODING 42692
SWIDTH 576 0
DWIDTH 24 0
BBX 24 24 0 -4
BITMAP
000000
000000
003c00
004300
004180
0020e0
001070
000830
000400
003a00
00c300
018100
030180
030180
060180
060180
060300
060300
020600
030c00
00f000
000000
000000
000000
ENDCHAR
STARTCHAR a6c5
ENCODING 42693
SWIDTH 576 0
DWIDTH 24 0
BBX 24 24 0 -4
BITMAP
000000
000000
000000
000000
000000
000000
000000
000000
003e00
00e380
0180c0
018040
01c000
00fc00
039800
070000
060000
060040
070180
03ff00
01fc00
000000
000000
000000
ENDCHAR
STARTCHAR a6c6
ENCODING 42694
SWIDTH 576 0
DWIDTH 24 0
BBX 24 24 0 -4
BITMAP
000000
000000
003000
004000
0080e0
0083e0
007f80
000c00
001800
003000
006000
00c000
018000
030000
030000
060000
060000
07c000
03f800
003e00
000700
000300
01c600
01f800
ENDCHAR
STARTCHAR a6c7
ENCODING 42695
SWIDTH 576 0
DWIDTH 24 0
BBX 24 24 0 -4
BITMAP
000000
000000
000000
000000
000000
000000
000000
000000
01c3c0
066c20
087030
006030
00c030
00c060
018060
0180c0
0300c0
030180
060180
060300
000300
000600
000e00
000c00
ENDCHAR
STARTCHAR a6c8
ENCODING 42696
SWIDTH 576 0
DWIDTH 24 0
BBX 24 24 0 -4
BITMAP
000000
000000
000780
001860
003020
006030
00c030
018030
018030
030060
03ffe0
060060
0600c0
0600c0
0c0180
0c0180
0c0300
0c0200
040400
061800
01e000
000000
000000
000000
ENDCHAR
STARTCHAR a6c9
ENCODING 42697
SWIDTH 576 0
DWIDTH 24 0
BBX 24 24 0 -4
BITMAP
000000
000000
000000
000000
000000
000000
000000
000000
006000
006000
006000
00c000
00c000
018000
018000
018000
030040
030080
030700
01fc00
00f000
000000
000000
000000
ENDCHAR
STARTCHAR a6ca
ENCODING 42698
SWIDTH 576 0
DWIDTH 24 0
BBX 24 24 0 -4
BITMAP
000000
000000
000000
000000
000000
000000
000000
000000
00c0e0
00c1f0
00c330
018600
019800
03e000
033000
061800
061800
0c1840
0c1880
181f00
180e00
000000
000000
000000
ENDCHAR
STARTCHAR a6cb
ENCODING 42699
SWIDTH 576 0
DWIDTH 24 0
BBX 24 24 0 -4
BITMAP
000000
000000
007000
007800
001800
000c00
000c00
000400
000400
000400
000c00
001c00
003400
006400
00c600
018600
038300
030300
060380
0e01e0
0c00e0
000000
000000
000000
ENDCHAR
STARTCHAR a6cc
ENCODING 42700
SWIDTH 576 0
DWIDTH 24 0
BBX 24 24 0 -4
BITMAP
000000
000000
000000
000000
000000
000000
000000
000000
00c060
00c060
01c0e0
0180c0
0180c0
0381c0
030180
030180
030100
030300
070290
0584f0
0c7860
180000
380000
300000
ENDCHAR
STARTCHAR a6cd
ENCODING 42701
SWIDTH 576 0
DWIDTH 24 0
BBX 24 24 0 -4
BITMAP
000000
000000
000000
000000
000000
000000
000000
000000
000000
030020
038020
018040
018040
018080
010180
010300
020e00
023c00
07f000
07c000
060000
000000
000000
000000
ENDCHAR
STARTCHAR a6ce
ENCODING 42702
SWIDTH 576 0
DWIDTH 24 0
BBX 24 24 0 -4
BITMAP
000000
000000
001f80
006000
004000
003fe0
00ffc0
010000
020000
020000
018000
007fe0
00ffc0
030000
040000
080000
080000
0f8000
07f800
007e00
000300
000300
030600
03f800
ENDCHAR
STARTCHAR a6cf
ENCODING 42703
SWIDTH 576 0
DWIDTH 24 0
BBX 24 24 0 -4
BITMAP
000000
000000
000000
000000
000000
000000
000000
000000
003e00
00c180
018080
0300c0
0300c0
0600c0
0600c0
0600c0
060180
060180
020300
030600
00f800
000000
000000
000000
ENDCHAR
STARTCHAR a6d0
ENCODING 42704
SWIDTH 576 0
DWIDTH 24 0
BBX 24 24 0 -4
BITMAP
000000
000000
000000
000000
000000
000000
000000
000010
03fff0
07ffe0
046300
086300
00c600
00c600
018c00
018c00
030800
031840
061880
0e1f00
0c0e00
000000
000000
000000
ENDCHAR
STARTCHAR a6d1
ENCODING 42705
SWIDTH 576 0
DWIDTH 24 0
BBX 24 24 0 -4
BITMAP
000000
000000
000000
000000
000000
000000
000000
000000
000f00
0030c0
006040
00c060
008060
018060
010060
0300c0
0280c0
028180
064300
063c00
060000
0c0000
0c0000
0c0000
ENDCHAR
STARTCHAR a6d2
ENCODING 42706
SWIDTH 576 0
DWIDTH 24 0
BBX 24 24 0 -4
BITMAP
000000
000000
000000
000000
000000
000000
000020
000030
001ff0
007fe0
00c200
018100
030080
0300c0
0600c0
0600c0
060180
060180
020300
030600
00f800
000000
000000
000000
ENDCHAR
STARTCHAR a6d3
ENCODING 42707
SWIDTH 576 0
DWIDTH 24 0
BBX 24 24 0 -4
BITMAP
000000
000000
000000
000000
000000
000000
000000
000010
03fff0
07ffe0
043000
083000
006000
006000
00c000
00c000
018080
018100
018600
00fc00
007000
000000
000000
000000
ENDCHAR
STARTCHAR a6d4
ENCODING 42708
SWIDTH 576 0
DWIDTH 24 0
BBX 24 24 0 -4
BITMAP
000000
000000
000000
000000
000000
000000
000000
000000
000000
0180c0
018060
018060
018060
0300c0
0300c0
030180
060180
060300
060600
021800
01e000
000000
000000
000000
ENDCHAR
STARTCHAR a6d5
ENCODING 42709
SWIDTH 576 0
DWIDTH 24 0
BBX 24 24 0 -4
BITMAP
000000
000000
000300
000300
000300
000600
000600
000400
000400
007f00
018cc0
030860
060830
0c1830
0c1030
0c1030
0c3060
0620c0
032180
00fe00
006000
006000
00c000
00c000
ENDCHAR
STARTCHAR a6d6
ENCODING 42710
SWIDTH 576 0
DWIDTH 24 0
BBX 24 24 0 -4
BITMAP
000000
000000
000000
000000
000000
000000
000000
000000
000000
01c060
03e0e0
0231c0
041380
001700
001c00
001800
003000
007000
01d000
039000
071040
0e1880
1c0f80
180700
ENDCHAR
STARTCHAR a6d7
ENCODING 42711
SWIDTH 576 0
DWIDTH 24 0
BBX 24 24 0 -4
BITMAP
000000
000000
000300
000300
000300
000200
000600
000600
070460
098470
018c30
018c30
030830
030830
031860
061060
0610c0
063180
022300
01fc00
006000
006000
00c000
00c000
ENDCHAR
STARTCHAR a6d8
ENCODING 42712
SWIDTH 576 0
DWIDTH 24 0
BBX 24 24 0 -4
BITMAP
000000
000000
000000
000000
000000
000000
000000
000000
006040
018020
030030
060010
0c0c18
0c0c18
181c18
181818
181818
183830
083430
0c6460
038380
000000
000000
000000
ENDCHAR
STARTCHAR a6d9
ENCODING 42713
SWIDTH 576 0
DWIDTH 24 0
BBX 24 24 0 -4
BITMAP
000000
000000
000000
000000
000000
000000
000000
000000
000000
000000
000000
000000
000000
000000
000000
000000
000000
000000
000000
000000
000000
000000
000000
000000
ENDCHAR
STARTCHAR a6da
ENCODING 42714
SWIDTH 576 0
DWIDTH 24 0
BBX 24 24 0 -4
BITMAP
000000
000000
000000
000000
000000
000000
000000
000000
000000
000000
000000
000000
000000
000000
000000
000000
000000
000000
000000
000000
000000
000000
000000
000000
ENDCHAR
STARTCHAR a6db
ENCODING 42715
SWIDTH 576 0
DWIDTH 24 0
BBX 24 24 0 -4
BITMAP
000000
000000
000000
000000
000000
000000
000000
000000
000000
000000
000000
000000
000000
000000
000000
000000
000000
000000
000000
000000
000000
000000
000000
000000
ENDCHAR
STARTCHAR a6dc
ENCODING 42716
SWIDTH 576 0
DWIDTH 24 0
BBX 24 24 0 -4
BITMAP
000000
000000
000000
000000
000000
000000
000000
000000
000000
000000
000000
000000
000000
000000
000000
000000
000000
000000
000000
000000
000000
000000
000000
000000
ENDCHAR
STARTCHAR a6dd
ENCODING 42717
SWIDTH 576 0
DWIDTH 24 0
BBX 24 24 0 -4
BITMAP
000000
000000
000000
000000
000000
000000
000000
000000
000000
000000
000000
000000
000000
000000
000000
000000
000000
000000
000000
000000
000000
000000
000000
000000
ENDCHAR
STARTCHAR a6de
ENCODING 42718
SWIDTH 576 0
DWIDTH 24 0
BBX 24 24 0 -4
BITMAP
000000
000000
000000
000000
000000
000000
000000
000000
000000
000000
000000
000000
000000
000000
000000
000000
000000
000000
000000
000000
000000
000000
000000
000000
ENDCHAR
STARTCHAR a6df
ENCODING 42719
SWIDTH 576 0
DWIDTH 24 0
BBX 24 24 0 -4
BITMAP
000000
000000
000000
000000
000000
000000
000000
000000
000000
000000
000000
000000
000000
000000
000000
000000
000000
000000
000000
000000
000000
000000
000000
000000
ENDCHAR
STARTCHAR a6e0
ENCODING 42720
SWIDTH 576 0
DWIDTH 24 0
BBX 24 24 0 -4
BITMAP
000000
000000
000000
000000
000000
000000
000000
000000
000000
000000
000000
000000
000000
000000
000000
000000
000000
000000
000000
000000
000000
000000
000000
000000
ENDCHAR
STARTCHAR a6e1
ENCODING 42721
SWIDTH 576 0
DWIDTH 24 0
BBX 24 24 0 -4
BITMAP
000000
000000
000000
000000
000000
000000
000000
000000
000000
000000
000000
000000
000000
000000
000000
000000
000000
000000
000000
000000
000000
000000
000000
000000
ENDCHAR
STARTCHAR a6e2
ENCODING 42722
SWIDTH 576 0
DWIDTH 24 0
BBX 24 24 0 -4
BITMAP
000000
000000
000000
000000
000000
000000
000000
000000
000000
000000
000000
000000
000000
000000
000000
000000
000000
000000
000000
000000
000000
000000
000000
000000
ENDCHAR
STARTCHAR a6e3
ENCODING 42723
SWIDTH 576 0
DWIDTH 24 0
BBX 24 24 0 -4
BITMAP
000000
000000
000000
000000
000000
000000
000000
000000
000000
000000
000000
000000
000000
000000
000000
000000
000000
000000
000000
000000
000000
000000
000000
000000
ENDCHAR
STARTCHAR a6e4
ENCODING 42724
SWIDTH 576 0
DWIDTH 24 0
BBX 24 24 0 -4
BITMAP
000000
000000
000000
000000
000000
000000
000000
000000
000000
000000
000000
000000
000000
000000
000000
000000
000000
000000
000000
000000
000000
000000
000000
000000
ENDCHAR
STARTCHAR a6e5
ENCODING 42725
SWIDTH 576 0
DWIDTH 24 0
BBX 24 24 0 -4
BITMAP
000000
000000
000000
000000
000000
000000
000000
000000
000000
000000
000000
000000
000000
000000
000000
000000
000000
000000
000000
000000
000000
000000
000000
000000
ENDCHAR
STARTCHAR a6e6
ENCODING 42726
SWIDTH 576 0
DWIDTH 24 0
BBX 24 24 0 -4
BITMAP
000000
000000
000000
000000
000000
000000
000000
000000
000000
000000
000000
000000
000000
000000
000000
000000
000000
000000
000000
000000
000000
000000
000000
000000
ENDCHAR
STARTCHAR a6e7
ENCODING 42727
SWIDTH 576 0
DWIDTH 24 0
BBX 24 24 0 -4
BITMAP
000000
000000
000000
000000
000000
000000
000000
000000
000000
000000
000000
000000
000000
000000
000000
000000
000000
000000
000000
000000
000000
000000
000000
000000
ENDCHAR
STARTCHAR a6e8
ENCODING 42728
SWIDTH 576 0
DWIDTH 24 0
BBX 24 24 0 -4
BITMAP
000000
000000
000000
000000
000000
000000
000000
000000
000000
000000
000000
000000
000000
000000
000000
000000
000000
000000
000000
000000
000000
000000
000000
000000
ENDCHAR
STARTCHAR a6e9
ENCODING 42729
SWIDTH 576 0
DWIDTH 24 0
BBX 24 24 0 -4
BITMAP
000000
000000
000000
000000
000000
000000
000000
000000
000000
000000
000000
000000
000000
000000
000000
000000
000000
000000
000000
000000
000000
000000
000000
000000
ENDCHAR
STARTCHAR a6ea
ENCODING 42730
SWIDTH 576 0
DWIDTH 24 0
BBX 24 24 0 -4
BITMAP
000000
000000
000000
000000
000000
000000
000000
000000
000000
000000
000000
000000
000000
000000
000000
000000
000000
000000
000000
000000
000000
000000
000000
000000
ENDCHAR
STARTCHAR a6eb
ENCODING 42731
SWIDTH 576 0
DWIDTH 24 0
BBX 24 24 0 -4
BITMAP
000000
000000
000000
000000
000000
000000
000000
000000
000000
000000
000000
000000
000000
000000
000000
000000
000000
000000
000000
000000
000000
000000
000000
000000
ENDCHAR
STARTCHAR a6ec
ENCODING 42732
SWIDTH 576 0
DWIDTH 24 0
BBX 24 24 0 -4
BITMAP
000000
000000
000000
000000
000000
000000
000000
000000
000000
000000
000000
000000
000000
000000
000000
000000
000000
000000
000000
000000
000000
000000
000000
000000
ENDCHAR
STARTCHAR a6ed
ENCODING 42733
SWIDTH 576 0
DWIDTH 24 0
BBX 24 24 0 -4
BITMAP
000000
000000
000000
000000
000000
000000
000000
000000
000000
000000
000000
000000
000000
000000
000000
000000
000000
000000
000000
000000
000000
000000
000000
000000
ENDCHAR
STARTCHAR a6ee
ENCODING 42734
SWIDTH 576 0
DWIDTH 24 0
BBX 24 24 0 -4
BITMAP
000000
000000
000000
000000
000000
000000
000000
000000
000000
000000
000000
000000
000000
000000
000000
000000
000000
000000
000000
000000
000000
000000
000000
000000
ENDCHAR
STARTCHAR a6ef
ENCODING 42735
SWIDTH 576 0
DWIDTH 24 0
BBX 24 24 0 -4
BITMAP
000000
000000
000000
000000
000000
000000
000000
000000
000000
000000
000000
000000
000000
000000
000000
000000
000000
000000
000000
000000
000000
000000
000000
000000
ENDCHAR
STARTCHAR a6f0
ENCODING 42736
SWIDTH 576 0
DWIDTH 24 0
BBX 24 24 0 -4
BITMAP
000000
000000
000000
000000
000000
000000
000000
000000
000000
000000
000000
000000
000000
000000
000000
000000
000000
000000
000000
000000
000000
000000
000000
000000
ENDCHAR
STARTCHAR a6f1
ENCODING 42737
SWIDTH 576 0
DWIDTH 24 0
BBX 24 24 0 -4
BITMAP
000000
000000
000000
000000
000000
000000
000000
000000
000000
000000
000000
000000
000000
000000
000000
000000
000000
000000
000000
000000
000000
000000
000000
000000
ENDCHAR
STARTCHAR a6f2
ENCODING 42738
SWIDTH 576 0
DWIDTH 24 0
BBX 24 24 0 -4
BITMAP
000000
000000
000000
000000
000000
000000
000000
000000
000000
000000
000000
000000
000000
000000
000000
000000
000000
000000
000000
000000
000000
000000
000000
000000
ENDCHAR
STARTCHAR a6f3
ENCODING 42739
SWIDTH 576 0
DWIDTH 24 0
BBX 24 24 0 -4
BITMAP
000000
000000
000000
000000
000000
000000
000000
000000
000000
000000
000000
000000
000000
000000
000000
000000
000000
000000
000000
000000
000000
000000
000000
000000
ENDCHAR
STARTCHAR a6f4
ENCODING 42740
SWIDTH 576 0
DWIDTH 24 0
BBX 24 24 0 -4
BITMAP
000000
000000
000000
000000
000000
000000
000000
000000
000000
000000
000000
000000
000000
000000
000000
000000
000000
000000
000000
000000
000000
000000
000000
000000
ENDCHAR
STARTCHAR a6f5
ENCODING 42741
SWIDTH 576 0
DWIDTH 24 0
BBX 24 24 0 -4
BITMAP
000000
000000
000000
000000
000000
000000
000000
000000
000000
000000
000000
000000
000000
000000
000000
000000
000000
000000
000000
000000
000000
000000
000000
000000
ENDCHAR
STARTCHAR a6f6
ENCODING 42742
SWIDTH 576 0
DWIDTH 24 0
BBX 24 24 0 -4
BITMAP
000000
000000
000000
000000
000000
000000
000000
000000
000000
000000
000000
000000
000000
000000
000000
000000
000000
000000
000000
000000
000000
000000
000000
000000
ENDCHAR
STARTCHAR a6f7
ENCODING 42743
SWIDTH 576 0
DWIDTH 24 0
BBX 24 24 0 -4
BITMAP
000000
000000
000000
000000
000000
000000
000000
000000
000000
000000
000000
000000
000000
000000
000000
000000
000000
000000
000000
000000
000000
000000
000000
000000
ENDCHAR
STARTCHAR a6f8
ENCODING 42744
SWIDTH 576 0
DWIDTH 24 0
BBX 24 24 0 -4
BITMAP
000000
000000
000000
000000
000000
000000
000000
000000
000000
000000
000000
000000
000000
000000
000000
000000
000000
000000
000000
000000
000000
000000
000000
000000
ENDCHAR
STARTCHAR a6f9
ENCODING 42745
SWIDTH 576 0
DWIDTH 24 0
BBX 24 24 0 -4
BITMAP
000000
000000
000000
000000
000000
000000
000000
000000
000000
000000
000000
000000
000000
000000
000000
000000
000000
000000
000000
000000
000000
000000
000000
000000
ENDCHAR
STARTCHAR a6fa
ENCODING 42746
SWIDTH 576 0
DWIDTH 24 0
BBX 24 24 0 -4
BITMAP
000000
000000
000000
000000
000000
000000
000000
000000
000000
000000
000000
000000
000000
000000
000000
000000
000000
000000
000000
000000
000000
000000
000000
000000
ENDCHAR
STARTCHAR a6fb
ENCODING 42747
SWIDTH 576 0
DWIDTH 24 0
BBX 24 24 0 -4
BITMAP
000000
000000
000000
000000
000000
000000
000000
000000
000000
000000
000000
000000
000000
000000
000000
000000
000000
000000
000000
000000
000000
000000
000000
000000
ENDCHAR
STARTCHAR a6fc
ENCODING 42748
SWIDTH 576 0
DWIDTH 24 0
BBX 24 24 0 -4
BITMAP
000000
000000
000000
000000
000000
000000
000000
000000
000000
000000
000000
000000
000000
000000
000000
000000
000000
000000
000000
000000
000000
000000
000000
000000
ENDCHAR
STARTCHAR a6fd
ENCODING 42749
SWIDTH 576 0
DWIDTH 24 0
BBX 24 24 0 -4
BITMAP
000000
000000
000000
000000
000000
000000
000000
000000
000000
000000
000000
000000
000000
000000
000000
000000
000000
000000
000000
000000
000000
000000
000000
000000
ENDCHAR
STARTCHAR a6fe
ENCODING 42750
SWIDTH 576 0
DWIDTH 24 0
BBX 24 24 0 -4
BITMAP
000000
000000
000000
000000
000000
000000
000000
000000
000000
000000
000000
000000
000000
000000
000000
000000
000000
000000
000000
000000
000000
000000
000000
000000
ENDCHAR
STARTCHAR a7a1
ENCODING 42913
SWIDTH 576 0
DWIDTH 24 0
BBX 24 24 0 -4
BITMAP
000000
000000
001000
003000
007800
003800
003c00
002c00
004e00
004600
008700
008300
010380
010180
03ffc0
0200c0
0400e0
040060
080070
080030
3e00fc
000000
000000
000000
ENDCHAR
STARTCHAR a7a2
ENCODING 42914
SWIDTH 576 0
DWIDTH 24 0
BBX 24 24 0 -4
BITMAP
000000
000000
0fffe0
030060
030020
030010
030010
030000
030000
030000
03ff00
0300c0
030060
030030
030030
030030
030030
030030
030060
0300c0
0fff00
000000
000000
000000
ENDCHAR
STARTCHAR a7a3
ENCODING 42915
SWIDTH 576 0
DWIDTH 24 0
BBX 24 24 0 -4
BITMAP
000000
000000
0ffe00
030180
0300c0
030060
030060
030060
030060
0300c0
030080
03ff00
0300c0
030060
030030
030030
030030
030030
030060
0300c0
0fff00
000000
000000
000000
ENDCHAR
STARTCHAR a7a4
ENCODING 42916
SWIDTH 576 0
DWIDTH 24 0
BBX 24 24 0 -4
BITMAP
000000
000000
0fffe0
030060
030020
030010
030010
030000
030000
030000
030000
030000
030000
030000
030000
030000
030000
030000
030000
030000
0fc000
000000
000000
000000
ENDCHAR
STARTCHAR a7a5
ENCODING 42917
SWIDTH 576 0
DWIDTH 24 0
BBX 24 24 0 -4
BITMAP
000000
000000
01fff8
002060
002060
002060
002060
002060
002060
002060
006060
004060
004060
004060
004060
00c060
008060
008060
010060
020060
1ffff8
180018
100008
200004
ENDCHAR
STARTCHAR a7a6
ENCODING 42918
SWIDTH 576 0
DWIDTH 24 0
BBX 24 24 0 -4
BITMAP
000000
000000
0fffe0
030060
030020
030010
030090
030080
030180
03ff80
030180
030080
030080
030000
030000
030000
030008
030008
030010
030030
0ffff0
000000
000000
000000
ENDCHAR
STARTCHAR a7a7
ENCODING 42919
SWIDTH 576 0
DWIDTH 24 0
BBX 24 24 0 -4
BITMAP
01c380
01c380
01c380
000000
000000
0fffe0
030060
030020
030010
030080
030180
03ff80
030180
030080
030000
030000
030008
030008
030010
030030
0ffff0
000000
000000
000000
ENDCHAR
STARTCHAR a7a8
ENCODING 42920
SWIDTH 576 0
DWIDTH 24 0
BBX 24 24 0 -4
BITMAP
000000
000000
307e0c
78181e
78181e
081810
0c1830
041820
041820
021840
011880
03ffc0
0318c0
061860
061860
0c1830
0c1830
181818
181818
30180c
fc7e3f
000000
000000
000000
ENDCHAR
STARTCHAR a7a9
ENCODING 42921
SWIDTH 576 0
DWIDTH 24 0
BBX 24 24 0 -4
BITMAP
000000
000000
003e00
01c180
0700c0
060060
040060
000060
000060
0000c0
000180
001e00
0001c0
000060
000030
000030
040030
060070
0700e0
01c1c0
003f00
000000
000000
000000
ENDCHAR
STARTCHAR a7aa
ENCODING 42922
SWIDTH 576 0
DWIDTH 24 0
BBX 24 24 0 -4
BITMAP
000000
000000
1f81f8
060060
060060
0600e0
060160
060260
060260
060460
060860
060860
061060
062060
064060
064060
068060
070060
060060
060060
1f81f8
000000
000000
000000
ENDCHAR
STARTCHAR a7ab
ENCODING 42923
SWIDTH 576 0
DWIDTH 24 0
BBX 24 24 0 -4
BITMAP
00c300
01c380
018180
00c300
003c00
1f81f8
060060
060060
0600e0
060160
060260
060460
060860
061060
062060
064060
068060
070060
060060
060060
1f81f8
000000
000000
000000
ENDCHAR
STARTCHAR a7ac
ENCODING 42924
SWIDTH 576 0
DWIDTH 24 0
BBX 24 24 0 -4
BITMAP
000000
000000
1f80e0
0601f0
060330
060200
060600
060400
060c00
061800
07f000
063800
061c00
060c00
060e00
060700
060380
060180
0601c0
0600e0
1f83f8
000000
000000
000000
ENDCHAR
STARTCHAR a7ad
ENCODING 42925
SWIDTH 576 0
DWIDTH 24 0
BBX 24 24 0 -4
BITMAP
000000
000000
01fff8
002060
002060
002060
002060
002060
002060
002060
006060
004060
004060
004060
004060
004060
18c060
388060
308060
310060
1e01f8
000000
000000
000000
ENDCHAR
STARTCHAR a7ae
ENCODING 42926
SWIDTH 576 0
DWIDTH 24 0
BBX 24 24 0 -4
BITMAP
000000
000000
1f00f8
0700e0
0700e0
058160
058160
058160
04c260
08c230
08c230
086430
086430
086430
083830
103818
103818
101018
101018
100018
7c007e
000000
000000
000000
ENDCHAR
STARTCHAR a7af
ENCODING 42927
SWIDTH 576 0
DWIDTH 24 0
BBX 24 24 0 -4
BITMAP
000000
000000
1f81f8
060060
060060
060060
060060
060060
060060
07ffe0
060060
060060
060060
060060
060060
060060
060060
060060
060060
060060
1f81f8
000000
000000
000000
ENDCHAR
STARTCHAR a7b0
ENCODING 42928
SWIDTH 576 0
DWIDTH 24 0
BBX 24 24 0 -4
BITMAP
000000
000000
007e00
018180
0300c0
060060
0c0030
0c0030
180018
180018
180018
180018
180018
180018
180018
0c0030
0c0030
060060
0300c0
018180
007e00
000000
000000
000000
ENDCHAR
STARTCHAR a7b1
ENCODING 42929
SWIDTH 576 0
DWIDTH 24 0
BBX 24 24 0 -4
BITMAP
000000
000000
1ffff8
060060
060060
060060
060060
060060
060060
060060
060060
060060
060060
060060
060060
060060
060060
060060
060060
060060
1f81f8
000000
000000
000000
ENDCHAR
STARTCHAR a7b2
ENCODING 42930
SWIDTH 576 0
DWIDTH 24 0
BBX 24 24 0 -4
BITMAP
000000
000000
0fff00
0301c0
030060
030030
030030
030030
030030
030030
030030
030060
0301c0
03ff00
030000
030000
030000
030000
030000
030000
0fc000
000000
000000
000000
ENDCHAR
STARTCHAR a7b3
ENCODING 42931
SWIDTH 576 0
DWIDTH 24 0
BBX 24 24 0 -4
BITMAP
000000
000000
003f00
00c1e0
030060
060020
0c0020
0c0000
180000
180000
180000
180000
180000
180000
180000
0c0000
0c0020
060020
030060
00c1e0
003f00
000000
000000
000000
ENDCHAR
STARTCHAR a7b4
ENCODING 42932
SWIDTH 576 0
DWIDTH 24 0
BBX 24 24 0 -4
BITMAP
000000
000000
0ffff0
0c1830
181818
101808
201804
001800
001800
001800
001800
001800
001800
001800
001800
001800
001800
001800
001800
001800
007e00
000000
000000
000000
ENDCHAR
STARTCHAR a7b5
ENCODING 42933
SWIDTH 576 0
DWIDTH 24 0
BBX 24 24 0 -4
BITMAP
000000
000000
3f80fc
0e0030
060020
060020
030040
030040
018080
018080
00c100
00c100
006200
006200
003400
003c00
061800
0e1800
0c1000
042000
03c000
000000
000000
000000
ENDCHAR
STARTCHAR a7b6
ENCODING 42934
SWIDTH 576 0
DWIDTH 24 0
BBX 24 24 0 -4
BITMAP
000000
000000
00ff00
001800
001800
00ff00
0318c0
061860
0c1830
181818
181818
181818
181818
181818
0c1830
061860
0318c0
00ff00
001800
001800
00ff00
000000
000000
000000
ENDCHAR
STARTCHAR a7b7
ENCODING 42935
SWIDTH 576 0
DWIDTH 24 0
BBX 24 24 0 -4
BITMAP
000000
000000
1f80f8
070060
030040
018080
01c100
00c100
006200
007400
003800
001800
001c00
002e00
004700
004300
008180
0101c0
0200e0
060070
1f00fc
000000
000000
000000
ENDCHAR
STARTCHAR a7b8
ENCODING 42936
SWIDTH 576 0
DWIDTH 24 0
BBX 24 24 0 -4
BITMAP
000000
000000
1f83f0
0600c0
0600c0
0600c0
0600c0
0600c0
0600c0
0600c0
0600c0
0600c0
0600c0
0600c0
0600c0
0600c0
0600c0
0600c0
0600c0
0600c0
1ffff8
000018
000008
000004
ENDCHAR
STARTCHAR a7b9
ENCODING 42937
SWIDTH 576 0
DWIDTH 24 0
BBX 24 24 0 -4
BITMAP
000000
000000
1f81f8
060060
060060
060060
060060
060060
060060
060060
060060
060060
070060
0381e0
00fe60
000060
000060
000060
000060
000060
0001f8
000000
000000
000000
ENDCHAR
STARTCHAR a7ba
ENCODING 42938
SWIDTH 576 0
DWIDTH 24 0
BBX 24 24 0 -4
BITMAP
000000
000000
7e7e7e
181818
181818
181818
181818
181818
181818
181818
181818
181818
181818
181818
181818
181818
181818
181818
181818
181818
7ffffe
000000
000000
000000
ENDCHAR
STARTCHAR a7bb
ENCODING 42939
SWIDTH 576 0
DWIDTH 24 0
BBX 24 24 0 -4
BITMAP
000000
000000
7e7e7e
181818
181818
181818
181818
181818
181818
181818
181818
181818
181818
181818
181818
181818
181818
181818
181818
181818
7ffffe
000006
000002
000001
ENDCHAR
STARTCHAR a7bc
ENCODING 42940
SWIDTH 576 0
DWIDTH 24 0
BBX 24 24 0 -4
BITMAP
000000
000000
3ff800
306000
206000
406000
406000
006000
006000
006000
007fc0
006030
006018
00600c
00600c
00600c
00600c
00600c
006018
006030
01ffc0
000000
000000
000000
ENDCHAR
STARTCHAR a7bd
ENCODING 42941
SWIDTH 576 0
DWIDTH 24 0
BBX 24 24 0 -4
BITMAP
000000
000000
7e007e
180018
180018
180018
180018
180018
180018
180018
1ff018
180c18
180618
180318
180318
180318
180318
180318
180618
180c18
7ff07e
000000
000000
000000
ENDCHAR
STARTCHAR a7be
ENCODING 42942
SWIDTH 576 0
DWIDTH 24 0
BBX 24 24 0 -4
BITMAP
000000
000000
0fc000
030000
030000
030000
030000
030000
030000
030000
03ff00
0300c0
030060
030030
030030
030030
030030
030030
030060
0300c0
0fff00
000000
000000
000000
ENDCHAR
STARTCHAR a7bf
ENCODING 42943
SWIDTH 576 0
DWIDTH 24 0
BBX 24 24 0 -4
BITMAP
000000
000000
01f800
0f0600
0c0180
0800c0
080060
000060
000030
000030
003870
00ffb0
010730
000030
000030
000060
080060
0800c0
0c0180
0f0600
01f800
000000
000000
000000
ENDCHAR
STARTCHAR a7c0
ENCODING 42944
SWIDTH 576 0
DWIDTH 24 0
BBX 24 24 0 -4
BITMAP
000000
000000
7e07c0
181830
183018
18600c
18600c
18c006
18c006
1fc006
18c006
18c006
18c006
18c006
18c006
18c006
18600c
18600c
183018
181830
7e07c0
000000
000000
000000
ENDCHAR
STARTCHAR a7c1
ENCODING 42945
SWIDTH 576 0
DWIDTH 24 0
BBX 24 24 0 -4
BITMAP
000000
000000
00fff0
0300c0
0600c0
0c00c0
0c00c0
0c00c0
0c00c0
0c00c0
0600c0
0300c0
00ffc0
0060c0
0060c0
00c0c0
00c0c0
0180c0
0300c0
0600c0
1803f0
000000
000000
000000
ENDCHAR
STARTCHAR a7c2
ENCODING 42946
SWIDTH 576 0
DWIDTH 24 0
BBX 24 24 0 -4
BITMAP
000000
000000
000000
000000
000000
000000
000000
000000
000000
000000
000000
000000
000000
000000
000000
000000
000000
000000
000000
000000
000000
000000
000000
000000
ENDCHAR
STARTCHAR a7c3
ENCODING 42947
SWIDTH 576 0
DWIDTH 24 0
BBX 24 24 0 -4
BITMAP
000000
000000
000000
000000
000000
000000
000000
000000
000000
000000
000000
000000
000000
000000
000000
000000
000000
000000
000000
000000
000000
000000
000000
000000
ENDCHAR
STARTCHAR a7c4
ENCODING 42948
SWIDTH 576 0
DWIDTH 24 0
BBX 24 24 0 -4
BITMAP
000000
000000
000000
000000
000000
000000
000000
000000
000000
000000
000000
000000
000000
000000
000000
000000
000000
000000
000000
000000
000000
000000
000000
000000
ENDCHAR
STARTCHAR a7c5
ENCODING 42949
SWIDTH 576 0
DWIDTH 24 0
BBX 24 24 0 -4
BITMAP
000000
000000
000000
000000
000000
000000
000000
000000
000000
000000
000000
000000
000000
000000
000000
000000
000000
000000
000000
000000
000000
000000
000000
000000
ENDCHAR
STARTCHAR a7c6
ENCODING 42950
SWIDTH 576 0
DWIDTH 24 0
BBX 24 24 0 -4
BITMAP
000000
000000
000000
000000
000000
000000
000000
000000
000000
000000
000000
000000
000000
000000
000000
000000
000000
000000
000000
000000
000000
000000
000000
000000
ENDCHAR
STARTCHAR a7c7
ENCODING 42951
SWIDTH 576 0
DWIDTH 24 0
BBX 24 24 0 -4
BITMAP
000000
000000
000000
000000
000000
000000
000000
000000
000000
000000
000000
000000
000000
000000
000000
000000
000000
000000
000000
000000
000000
000000
000000
000000
ENDCHAR
STARTCHAR a7c8
ENCODING 42952
SWIDTH 576 0
DWIDTH 24 0
BBX 24 24 0 -4
BITMAP
000000
000000
000000
000000
000000
000000
000000
000000
000000
000000
000000
000000
000000
000000
000000
000000
000000
000000
000000
000000
000000
000000
000000
000000
ENDCHAR
STARTCHAR a7c9
ENCODING 42953
SWIDTH 576 0
DWIDTH 24 0
BBX 24 24 0 -4
BITMAP
000000
000000
000000
000000
000000
000000
000000
000000
000000
000000
000000
000000
000000
000000
000000
000000
000000
000000
000000
000000
000000
000000
000000
000000
ENDCHAR
STARTCHAR a7ca
ENCODING 42954
SWIDTH 576 0
DWIDTH 24 0
BBX 24 24 0 -4
BITMAP
000000
000000
000000
000000
000000
000000
000000
000000
000000
000000
000000
000000
000000
000000
000000
000000
000000
000000
000000
000000
000000
000000
000000
000000
ENDCHAR
STARTCHAR a7cb
ENCODING 42955
SWIDTH 576 0
DWIDTH 24 0
BBX 24 24 0 -4
BITMAP
000000
000000
000000
000000
000000
000000
000000
000000
000000
000000
000000
000000
000000
000000
000000
000000
000000
000000
000000
000000
000000
000000
000000
000000
ENDCHAR
STARTCHAR a7cc
ENCODING 42956
SWIDTH 576 0
DWIDTH 24 0
BBX 24 24 0 -4
BITMAP
000000
000000
000000
000000
000000
000000
000000
000000
000000
000000
000000
000000
000000
000000
000000
000000
000000
000000
000000
000000
000000
000000
000000
000000
ENDCHAR
STARTCHAR a7cd
ENCODING 42957
SWIDTH 576 0
DWIDTH 24 0
BBX 24 24 0 -4
BITMAP
000000
000000
000000
000000
000000
000000
000000
000000
000000
000000
000000
000000
000000
000000
000000
000000
000000
000000
000000
000000
000000
000000
000000
000000
ENDCHAR
STARTCHAR a7ce
ENCODING 42958
SWIDTH 576 0
DWIDTH 24 0
BBX 24 24 0 -4
BITMAP
000000
000000
000000
000000
000000
000000
000000
000000
000000
000000
000000
000000
000000
000000
000000
000000
000000
000000
000000
000000
000000
000000
000000
000000
ENDCHAR
STARTCHAR a7cf
ENCODING 42959
SWIDTH 576 0
DWIDTH 24 0
BBX 24 24 0 -4
BITMAP
000000
000000
000000
000000
000000
000000
000000
000000
000000
000000
000000
000000
000000
000000
000000
000000
000000
000000
000000
000000
000000
000000
000000
000000
ENDCHAR
STARTCHAR a7d0
ENCODING 42960
SWIDTH 576 0
DWIDTH 24 0
BBX 24 24 0 -4
BITMAP
000000
000000
000000
000000
000000
000000
000000
000000
000000
000000
000000
000000
000000
000000
000000
000000
000000
000000
000000
000000
000000
000000
000000
000000
ENDCHAR
STARTCHAR a7d1
ENCODING 42961
SWIDTH 576 0
DWIDTH 24 0
BBX 24 24 0 -4
BITMAP
000000
000000
000000
000000
000000
000000
000000
000000
007c00
03c300
030180
000180
000180
001f80
00e180
030180
060180
060180
060180
030780
00f9e0
000000
000000
000000
ENDCHAR
STARTCHAR a7d2
ENCODING 42962
SWIDTH 576 0
DWIDTH 24 0
BBX 24 24 0 -4
BITMAP
000000
000000
000040
003fc0
00ff80
018000
030000
020000
043c00
04c300
058180
0700c0
0700c0
060060
060060
060060
0300c0
0300c0
018180
00c300
003c00
000000
000000
000000
ENDCHAR
STARTCHAR a7d3
ENCODING 42963
SWIDTH 576 0
DWIDTH 24 0
BBX 24 24 0 -4
BITMAP
000000
000000
000000
000000
000000
000000
000000
000000
07fe00
018180
0180c0
0180c0
0180c0
018180
01fe00
018180
0180c0
0180c0
0180c0
018180
07fe00
000000
000000
000000
ENDCHAR
STARTCHAR a7d4
ENCODING 42964
SWIDTH 576 0
DWIDTH 24 0
BBX 24 24 0 -4
BITMAP
000000
000000
000000
000000
000000
000000
000000
000000
07ffc0
0180c0
018040
018020
018000
018000
018000
018000
018000
018000
018000
018000
07e000
000000
000000
000000
ENDCHAR
STARTCHAR a7d5
ENCODING 42965
SWIDTH 576 0
DWIDTH 24 0
BBX 24 24 0 -4
BITMAP
000000
000000
000000
000000
000000
000000
000000
000000
00ffe0
002180
002180
002180
002180
002180
002180
006180
004180
004180
008180
010180
07ffe0
060060
040020
080010
ENDCHAR
STARTCHAR a7d6
ENCODING 42966
SWIDTH 576 0
DWIDTH 24 0
BBX 24 24 0 -4
BITMAP
000000
000000
000000
000000
000000
000000
000000
000000
003c00
00c300
018180
030180
0300c0
07ffc0
060000
060000
030000
030000
018040
00c180
003e00
000000
000000
000000
ENDCHAR
STARTCHAR a7d7
ENCODING 42967
SWIDTH 576 0
DWIDTH 24 0
BBX 24 24 0 -4
BITMAP
000000
000000
000000
01c380
01c380
01c380
000000
000000
003c00
00c300
018180
030180
0300c0
07ffc0
060000
060000
030000
030000
018040
00c180
003e00
000000
000000
000000
ENDCHAR
STARTCHAR a7d8
ENCODING 42968
SWIDTH 576 0
DWIDTH 24 0
BBX 24 24 0 -4
BITMAP
000000
000000
000000
000000
000000
000000
000000
000000
187e18
1c1838
041820
061860
021840
011880
00ff00
019980
019980
0318c0
061860
061860
0c1830
3e7e7c
000000
000000
ENDCHAR
STARTCHAR a7d9
ENCODING 42969
SWIDTH 576 0
DWIDTH 24 0
BBX 24 24 0 -4
BITMAP
000000
000000
000000
000000
000000
000000
000000
000000
007e00
03c380
0300c0
0200c0
0000c0
000180
007e00
000180
0000c0
0200c0
0300c0
03c180
007e00
000000
000000
000000
ENDCHAR
STARTCHAR a7da
ENCODING 42970
SWIDTH 576 0
DWIDTH 24 0
BBX 24 24 0 -4
BITMAP
000000
000000
000000
000000
000000
000000
000000
000000
0781e0
0300c0
0301c0
0302c0
0304c0
0308c0
0310c0
0320c0
0340c0
0380c0
0300c0
0300c0
0781e0
000000
000000
000000
ENDCHAR
STARTCHAR a7db
ENCODING 42971
SWIDTH 576 0
DWIDTH 24 0
BBX 24 24 0 -4
BITMAP
000000
000000
000000
006600
00e700
00c300
004200
003c00
0781e0
0300c0
0301c0
0302c0
0304c0
0308c0
0310c0
0320c0
0340c0
0380c0
0300c0
0300c0
0781e0
000000
000000
000000
ENDCHAR
STARTCHAR a7dc
ENCODING 42972
SWIDTH 576 0
DWIDTH 24 0
BBX 24 24 0 -4
BITMAP
000000
000000
000000
000000
000000
000000
000000
000000
07e0c0
0181e0
018260
018400
019800
01f000
01b800
019c00
018e00
018700
018380
0181c0
07e3f0
000000
000000
000000
ENDCHAR
STARTCHAR a7dd
ENCODING 42973
SWIDTH 576 0
DWIDTH 24 0
BBX 24 24 0 -4
BITMAP
000000
000000
000000
000000
000000
000000
000000
000000
00ffe0
002180
002180
002180
002180
002180
006180
004180
0c4180
1cc180
188180
190180
0e07e0
000000
000000
000000
ENDCHAR
STARTCHAR a7de
ENCODING 42974
SWIDTH 576 0
DWIDTH 24 0
BBX 24 24 0 -4
BITMAP
000000
000000
000000
000000
000000
000000
000000
000000
0f00f0
0700e0
058160
058160
04c260
04c260
04c260
046460
046460
043860
043860
041060
0f10f0
000000
000000
000000
ENDCHAR
STARTCHAR a7df
ENCODING 42975
SWIDTH 576 0
DWIDTH 24 0
BBX 24 24 0 -4
BITMAP
000000
000000
000000
000000
000000
000000
000000
000000
0781e0
0300c0
0300c0
0300c0
0300c0
03ffc0
0300c0
0300c0
0300c0
0300c0
0300c0
0300c0
0781e0
000000
000000
000000
ENDCHAR
STARTCHAR a7e0
ENCODING 42976
SWIDTH 576 0
DWIDTH 24 0
BBX 24 24 0 -4
BITMAP
000000
000000
000000
000000
000000
000000
000000
000000
003c00
00c300
018180
0300c0
0300c0
060060
060060
060060
0300c0
0300c0
018180
00c300
003c00
000000
000000
000000
ENDCHAR
STARTCHAR a7e1
ENCODING 42977
SWIDTH 576 0
DWIDTH 24 0
BBX 24 24 0 -4
BITMAP
000000
000000
000000
000000
000000
000000
000000
000000
07ffe0
018180
018180
018180
018180
018180
018180
018180
018180
018180
018180
018180
07c3e0
000000
000000
000000
ENDCHAR
STARTCHAR a7e2
ENCODING 42978
SWIDTH 576 0
DWIDTH 24 0
BBX 24 24 0 -4
BITMAP
000000
000000
000000
000000
000000
000000
000000
000000
031e00
0f6180
0380c0
0300c0
030060
030060
030060
0300c0
0300c0
03c180
033e00
030000
030000
030000
030000
0fc000
ENDCHAR
STARTCHAR a7e3
ENCODING 42979
SWIDTH 576 0
DWIDTH 24 0
BBX 24 24 0 -4
BITMAP
000000
000000
000000
000000
000000
000000
000000
000000
003e00
00c180
0180c0
0300c0
030000
060000
060000
060000
030000
030000
018040
00c180
003e00
000000
000000
000000
ENDCHAR
STARTCHAR a7e4
ENCODING 42980
SWIDTH 576 0
DWIDTH 24 0
BBX 24 24 0 -4
BITMAP
000000
000000
000000
000000
000000
000000
000000
000000
03ffc0
0318c0
021840
041820
001800
001800
001800
001800
001800
001800
001800
001800
007e00
000000
000000
000000
ENDCHAR
STARTCHAR a7e5
ENCODING 42981
SWIDTH 576 0
DWIDTH 24 0
BBX 24 24 0 -4
BITMAP
000000
000000
000000
000000
000000
000000
000000
000000
07e1f0
018040
018040
00c080
00c080
00c100
006100
006200
003200
003400
003400
001800
001800
061000
062000
03c000
ENDCHAR
STARTCHAR a7e6
ENCODING 42982
SWIDTH 576 0
DWIDTH 24 0
BBX 24 24 0 -4
BITMAP
000000
000000
001800
007800
001800
001800
001800
001800
01db80
023c40
061860
041820
0c1830
0c1830
0c1830
0c1830
0c1830
041820
061860
023c40
01db80
001800
001800
007e00
ENDCHAR
STARTCHAR a7e7
ENCODING 42983
SWIDTH 576 0
DWIDTH 24 0
BBX 24 24 0 -4
BITMAP
000000
000000
000000
000000
000000
000000
000000
000000
0fe3f0
038080
01c100
00e200
007400
003800
001c00
002e00
004700
008380
0101c0
0200e0
0f83f8
000000
000000
000000
ENDCHAR
STARTCHAR a7e8
ENCODING 42984
SWIDTH 576 0
DWIDTH 24 0
BBX 24 24 0 -4
BITMAP
000000
000000
000000
000000
000000
000000
000000
000000
07c3e0
018180
018180
018180
018180
018180
018180
018180
018180
018180
018180
018180
07ffe0
000060
000020
000010
ENDCHAR
STARTCHAR a7e9
ENCODING 42985
SWIDTH 576 0
DWIDTH 24 0
BBX 24 24 0 -4
BITMAP
000000
000000
000000
000000
000000
000000
000000
000000
07c3e0
018180
018180
018180
018180
018180
00c380
003d80
000180
000180
000180
000180
0007e0
000000
000000
000000
ENDCHAR
STARTCHAR a7ea
ENCODING 42986
SWIDTH 576 0
DWIDTH 24 0
BBX 24 24 0 -4
BITMAP
000000
000000
000000
000000
000000
000000
000000
000000
0f3cf0
061860
061860
061860
061860
061860
061860
061860
061860
061860
061860
061860
0ffff0
000000
000000
000000
ENDCHAR
STARTCHAR a7eb
ENCODING 42987
SWIDTH 576 0
DWIDTH 24 0
BBX 24 24 0 -4
BITMAP
000000
000000
000000
000000
000000
000000
000000
000000
0f3cf0
061860
061860
061860
061860
061860
061860
061860
061860
061860
061860
061860
0ffff8
000018
000008
000004
ENDCHAR
STARTCHAR a7ec
ENCODING 42988
SWIDTH 576 0
DWIDTH 24 0
BBX 24 24 0 -4
BITMAP
000000
000000
000000
000000
000000
000000
000000
000000
0ffc00
0c3000
083000
103000
003000
003fc0
003030
003018
003018
003018
003018
003030
00ffc0
000000
000000
000000
ENDCHAR
STARTCHAR a7ed
ENCODING 42989
SWIDTH 576 0
DWIDTH 24 0
BBX 24 24 0 -4
BITMAP
000000
000000
000000
000000
000000
000000
000000
000000
1f81f8
060060
060060
060060
060060
07e060
061860
060c60
060c60
060c60
060c60
061860
1fe1f8
000000
000000
000000
ENDCHAR
STARTCHAR a7ee
ENCODING 42990
SWIDTH 576 0
DWIDTH 24 0
BBX 24 24 0 -4
BITMAP
000000
000000
000000
000000
000000
000000
000000
000000
03f000
00c000
00c000
00c000
00c000
00ff00
00c0c0
00c060
00c060
00c060
00c060
00c0c0
03ff00
000000
000000
000000
ENDCHAR
STARTCHAR a7ef
ENCODING 42991
SWIDTH 576 0
DWIDTH 24 0
BBX 24 24 0 -4
BITMAP
000000
000000
000000
000000
000000
000000
000000
000000
007e00
01c180
0180c0
010060
001860
003fb0
004630
000030
000060
000060
0100c0
00c180
003e00
000000
000000
000000
ENDCHAR
STARTCHAR a7f0
ENCODING 42992
SWIDTH 576 0
DWIDTH 24 0
BBX 24 24 0 -4
BITMAP
000000
000000
000000
000000
000000
000000
000000
000000
1f8380
060c60
061830
061830
063018
07f018
063018
063018
063018
061830
061830
060c60
1f8380
000000
000000
000000
ENDCHAR
STARTCHAR a7f1
ENCODING 42993
SWIDTH 576 0
DWIDTH 24 0
BBX 24 24 0 -4
BITMAP
000000
000000
000000
000000
000000
000000
000000
000000
007fe0
018180
030180
030180
030180
018180
007f80
006180
00e180
00c180
01c180
018180
0787e0
000000
000000
000000
ENDCHAR
STARTCHAR a7f2
ENCODING 42994
SWIDTH 576 0
DWIDTH 24 0
BBX 24 24 0 -4
BITMAP
000000
000000
000000
000000
000000
000000
000000
000000
000000
000000
000000
000000
000000
000000
000000
000000
000000
000000
000000
000000
000000
000000
000000
000000
ENDCHAR
STARTCHAR a7f3
ENCODING 42995
SWIDTH 576 0
DWIDTH 24 0
BBX 24 24 0 -4
BITMAP
000000
000000
000000
000000
000000
000000
000000
000000
000000
000000
000000
000000
000000
000000
000000
000000
000000
000000
000000
000000
000000
000000
000000
000000
ENDCHAR
STARTCHAR a7f4
ENCODING 42996
SWIDTH 576 0
DWIDTH 24 0
BBX 24 24 0 -4
BITMAP
000000
000000
000000
000000
000000
000000
000000
000000
000000
000000
000000
000000
000000
000000
000000
000000
000000
000000
000000
000000
000000
000000
000000
000000
ENDCHAR
STARTCHAR a7f5
ENCODING 42997
SWIDTH 576 0
DWIDTH 24 0
BBX 24 24 0 -4
BITMAP
000000
000000
000000
000000
000000
000000
000000
000000
000000
000000
000000
000000
000000
000000
000000
000000
000000
000000
000000
000000
000000
000000
000000
000000
ENDCHAR
STARTCHAR a7f6
ENCODING 42998
SWIDTH 576 0
DWIDTH 24 0
BBX 24 24 0 -4
BITMAP
000000
000000
000000
000000
000000
000000
000000
000000
000000
000000
000000
000000
000000
000000
000000
000000
000000
000000
000000
000000
000000
000000
000000
000000
ENDCHAR
STARTCHAR a7f7
ENCODING 42999
SWIDTH 576 0
DWIDTH 24 0
BBX 24 24 0 -4
BITMAP
000000
000000
000000
000000
000000
000000
000000
000000
000000
000000
000000
000000
000000
000000
000000
000000
000000
000000
000000
000000
000000
000000
000000
000000
ENDCHAR
STARTCHAR a7f8
ENCODING 43000
SWIDTH 576 0
DWIDTH 24 0
BBX 24 24 0 -4
BITMAP
000000
000000
000000
000000
000000
000000
000000
000000
000000
000000
000000
000000
000000
000000
000000
000000
000000
000000
000000
000000
000000
000000
000000
000000
ENDCHAR
STARTCHAR a7f9
ENCODING 43001
SWIDTH 576 0
DWIDTH 24 0
BBX 24 24 0 -4
BITMAP
000000
000000
000000
000000
000000
000000
000000
000000
000000
000000
000000
000000
000000
000000
000000
000000
000000
000000
000000
000000
000000
000000
000000
000000
ENDCHAR
STARTCHAR a7fa
ENCODING 43002
SWIDTH 576 0
DWIDTH 24 0
BBX 24 24 0 -4
BITMAP
000000
000000
000000
000000
000000
000000
000000
000000
000000
000000
000000
000000
000000
000000
000000
000000
000000
000000
000000
000000
000000
000000
000000
000000
ENDCHAR
STARTCHAR a7fb
ENCODING 43003
SWIDTH 576 0
DWIDTH 24 0
BBX 24 24 0 -4
BITMAP
000000
000000
000000
000000
000000
000000
000000
000000
000000
000000
000000
000000
000000
000000
000000
000000
000000
000000
000000
000000
000000
000000
000000
000000
ENDCHAR
STARTCHAR a7fc
ENCODING 43004
SWIDTH 576 0
DWIDTH 24 0
BBX 24 24 0 -4
BITMAP
000000
000000
000000
000000
000000
000000
000000
000000
000000
000000
000000
000000
000000
000000
000000
000000
000000
000000
000000
000000
000000
000000
000000
000000
ENDCHAR
STARTCHAR a7fd
ENCODING 43005
SWIDTH 576 0
DWIDTH 24 0
BBX 24 24 0 -4
BITMAP
000000
000000
000000
000000
000000
000000
000000
000000
000000
000000
000000
000000
000000
000000
000000
000000
000000
000000
000000
000000
000000
000000
000000
000000
ENDCHAR
STARTCHAR a7fe
ENCODING 43006
SWIDTH 576 0
DWIDTH 24 0
BBX 24 24 0 -4
BITMAP
000000
000000
000000
000000
000000
000000
000000
000000
000000
000000
000000
000000
000000
000000
000000
000000
000000
000000
000000
000000
000000
000000
000000
000000
ENDCHAR
STARTCHAR a8a1
ENCODING 43169
SWIDTH 576 0
DWIDTH 24 0
BBX 24 24 0 -4
BITMAP
000000
000000
000000
000000
000000
000000
000000
000000
000000
000000
000000
000000
000000
000000
000000
000000
000000
000000
000000
000000
000000
000000
000000
000000
ENDCHAR
STARTCHAR a8a2
ENCODING 43170
SWIDTH 576 0
DWIDTH 24 0
BBX 24 24 0 -4
BITMAP
000000
000000
000000
000000
000000
000000
000000
000000
000000
000000
000000
000000
000000
000000
000000
000000
000000
000000
000000
000000
000000
000000
000000
000000
ENDCHAR
STARTCHAR a8a3
ENCODING 43171
SWIDTH 576 0
DWIDTH 24 0
BBX 24 24 0 -4
BITMAP
000000
000000
000000
000000
000000
000000
000000
000000
000000
000000
000000
000000
000000
000000
000000
000000
000000
000000
000000
000000
000000
000000
000000
000000
ENDCHAR
STARTCHAR a8a4
ENCODING 43172
SWIDTH 576 0
DWIDTH 24 0
BBX 24 24 0 -4
BITMAP
000000
000000
000000
000000
000000
000000
000000
000000
000000
000000
000000
000000
000000
000000
000000
000000
000000
000000
000000
000000
000000
000000
000000
000000
ENDCHAR
STARTCHAR a8a5
ENCODING 43173
SWIDTH 576 0
DWIDTH 24 0
BBX 24 24 0 -4
BITMAP
000000
000000
000000
000000
000000
000000
000000
000000
000000
000000
000000
000000
000000
000000
000000
000000
000000
000000
000000
000000
000000
000000
000000
000000
ENDCHAR
STARTCHAR a8a6
ENCODING 43174
SWIDTH 576 0
DWIDTH 24 0
BBX 24 24 0 -4
BITMAP
000000
000000
000000
000000
000000
000000
000000
000000
000000
000000
000000
000000
000000
000000
000000
000000
000000
000000
000000
000000
000000
000000
000000
000000
ENDCHAR
STARTCHAR a8a7
ENCODING 43175
SWIDTH 576 0
DWIDTH 24 0
BBX 24 24 0 -4
BITMAP
000000
000000
000000
000000
000000
000000
000000
000000
000000
000000
000000
000000
000000
000000
000000
000000
000000
000000
000000
000000
000000
000000
000000
000000
ENDCHAR
STARTCHAR a8a8
ENCODING 43176
SWIDTH 576 0
DWIDTH 24 0
BBX 24 24 0 -4
BITMAP
000000
000000
000000
000000
000000
000000
000000
000000
000000
000000
000000
000000
000000
000000
000000
000000
000000
000000
000000
000000
000000
000000
000000
000000
ENDCHAR
STARTCHAR a8a9
ENCODING 43177
SWIDTH 576 0
DWIDTH 24 0
BBX 24 24 0 -4
BITMAP
000000
000000
000000
000000
000000
000000
000000
000000
000000
000000
000000
000000
000000
000000
000000
000000
000000
000000
000000
000000
000000
000000
000000
000000
ENDCHAR
STARTCHAR a8aa
ENCODING 43178
SWIDTH 576 0
DWIDTH 24 0
BBX 24 24 0 -4
BITMAP
000000
000000
000000
000000
000000
000000
000000
000000
000000
000000
000000
000000
000000
000000
000000
000000
000000
000000
000000
000000
000000
000000
000000
000000
ENDCHAR
STARTCHAR a8ab
ENCODING 43179
SWIDTH 576 0
DWIDTH 24 0
BBX 24 24 0 -4
BITMAP
000000
000000
000000
000000
000000
000000
000000
000000
000000
000000
000000
000000
000000
000000
000000
000000
000000
000000
000000
000000
000000
000000
000000
000000
ENDCHAR
STARTCHAR a8ac
ENCODING 43180
SWIDTH 576 0
DWIDTH 24 0
BBX 24 24 0 -4
BITMAP
000000
000000
000000
000000
000000
000000
000000
000000
000000
000000
000000
000000
000000
000000
000000
000000
000000
000000
000000
000000
000000
000000
000000
000000
ENDCHAR
STARTCHAR a8ad
ENCODING 43181
SWIDTH 576 0
DWIDTH 24 0
BBX 24 24 0 -4
BITMAP
000000
000000
000000
000000
000000
000000
000000
000000
000000
000000
000000
000000
000000
000000
000000
000000
000000
000000
000000
000000
000000
000000
000000
000000
ENDCHAR
STARTCHAR a8ae
ENCODING 43182
SWIDTH 576 0
DWIDTH 24 0
BBX 24 24 0 -4
BITMAP
000000
000000
000000
000000
000000
000000
000000
000000
000000
000000
000000
000000
000000
000000
000000
000000
000000
000000
000000
000000
000000
000000
000000
000000
ENDCHAR
STARTCHAR a8af
ENCODING 43183
SWIDTH 576 0
DWIDTH 24 0
BBX 24 24 0 -4
BITMAP
000000
000000
000000
000000
000000
000000
000000
000000
000000
000000
000000
000000
000000
000000
000000
000000
000000
000000
000000
000000
000000
000000
000000
000000
ENDCHAR
STARTCHAR a8b0
ENCODING 43184
SWIDTH 576 0
DWIDTH 24 0
BBX 24 24 0 -4
BITMAP
000000
000000
000000
000000
000000
000000
000000
000000
000000
000000
000000
000000
000000
000000
000000
000000
000000
000000
000000
000000
000000
000000
000000
000000
ENDCHAR
STARTCHAR a8b1
ENCODING 43185
SWIDTH 576 0
DWIDTH 24 0
BBX 24 24 0 -4
BITMAP
000000
000000
000000
000000
000000
000000
000000
000000
000000
000000
000000
000000
000000
000000
000000
000000
000000
000000
000000
000000
000000
000000
000000
000000
ENDCHAR
STARTCHAR a8b2
ENCODING 43186
SWIDTH 576 0
DWIDTH 24 0
BBX 24 24 0 -4
BITMAP
000000
000000
000000
000000
000000
000000
000000
000000
000000
000000
000000
000000
000000
000000
000000
000000
000000
000000
000000
000000
000000
000000
000000
000000
ENDCHAR
STARTCHAR a8b3
ENCODING 43187
SWIDTH 576 0
DWIDTH 24 0
BBX 24 24 0 -4
BITMAP
000000
000000
000000
000000
000000
000000
000000
000000
000000
000000
000000
000000
000000
000000
000000
000000
000000
000000
000000
000000
000000
000000
000000
000000
ENDCHAR
STARTCHAR a8b4
ENCODING 43188
SWIDTH 576 0
DWIDTH 24 0
BBX 24 24 0 -4
BITMAP
000000
000000
000000
000000
000000
000000
000000
000000
000000
000000
000000
000000
000000
000000
000000
000000
000000
000000
000000
000000
000000
000000
000000
000000
ENDCHAR
STARTCHAR a8b5
ENCODING 43189
SWIDTH 576 0
DWIDTH 24 0
BBX 24 24 0 -4
BITMAP
000000
000000
000000
000000
000000
000000
000000
000000
000000
000000
000000
000000
000000
000000
000000
000000
000000
000000
000000
000000
000000
000000
000000
000000
ENDCHAR
STARTCHAR a8b6
ENCODING 43190
SWIDTH 576 0
DWIDTH 24 0
BBX 24 24 0 -4
BITMAP
000000
000000
000000
000000
000000
000000
000000
000000
000000
000000
000000
000000
000000
000000
000000
000000
000000
000000
000000
000000
000000
000000
000000
000000
ENDCHAR
STARTCHAR a8b7
ENCODING 43191
SWIDTH 576 0
DWIDTH 24 0
BBX 24 24 0 -4
BITMAP
000000
000000
000000
000000
000000
000000
000000
000000
000000
000000
000000
000000
000000
000000
000000
000000
000000
000000
000000
000000
000000
000000
000000
000000
ENDCHAR
STARTCHAR a8b8
ENCODING 43192
SWIDTH 576 0
DWIDTH 24 0
BBX 24 24 0 -4
BITMAP
000000
000000
000000
000000
000000
000000
000000
000000
000000
000000
000000
000000
000000
000000
000000
000000
000000
000000
000000
000000
000000
000000
000000
000000
ENDCHAR
STARTCHAR a8b9
ENCODING 43193
SWIDTH 576 0
DWIDTH 24 0
BBX 24 24 0 -4
BITMAP
000000
000000
000000
000000
000000
000000
000000
000000
000000
000000
000000
000000
000000
000000
000000
000000
000000
000000
000000
000000
000000
000000
000000
000000
ENDCHAR
STARTCHAR a8ba
ENCODING 43194
SWIDTH 576 0
DWIDTH 24 0
BBX 24 24 0 -4
BITMAP
000000
000000
000000
000000
000000
000000
000000
000000
000000
000000
000000
000000
000000
000000
000000
000000
000000
000000
000000
000000
000000
000000
000000
000000
ENDCHAR
STARTCHAR a8bb
ENCODING 43195
SWIDTH 576 0
DWIDTH 24 0
BBX 24 24 0 -4
BITMAP
000000
000000
000000
000000
000000
000000
000000
000000
000000
000000
000000
000000
000000
000000
000000
000000
000000
000000
000000
000000
000000
000000
000000
000000
ENDCHAR
STARTCHAR a8bc
ENCODING 43196
SWIDTH 576 0
DWIDTH 24 0
BBX 24 24 0 -4
BITMAP
000000
000000
000000
000000
000000
000000
000000
000000
000000
000000
000000
000000
000000
000000
000000
000000
000000
000000
000000
000000
000000
000000
000000
000000
ENDCHAR
STARTCHAR a8bd
ENCODING 43197
SWIDTH 576 0
DWIDTH 24 0
BBX 24 24 0 -4
BITMAP
000000
000000
000000
000000
000000
000000
000000
000000
000000
000000
000000
000000
000000
000000
000000
000000
000000
000000
000000
000000
000000
000000
000000
000000
ENDCHAR
STARTCHAR a8be
ENCODING 43198
SWIDTH 576 0
DWIDTH 24 0
BBX 24 24 0 -4
BITMAP
000000
000000
000000
000000
000000
000000
000000
000000
000000
000000
000000
000000
000000
000000
000000
000000
000000
000000
000000
000000
000000
000000
000000
000000
ENDCHAR
STARTCHAR a8bf
ENCODING 43199
SWIDTH 576 0
DWIDTH 24 0
BBX 24 24 0 -4
BITMAP
000000
000000
000000
000000
000000
000000
000000
000000
000000
000000
000000
000000
000000
000000
000000
000000
000000
000000
000000
000000
000000
000000
000000
000000
ENDCHAR
STARTCHAR a8c0
ENCODING 43200
SWIDTH 576 0
DWIDTH 24 0
BBX 24 24 0 -4
BITMAP
000000
000000
000000
000000
000000
000000
000000
000000
000000
000000
000000
000000
000000
000000
000000
000000
000000
000000
000000
000000
000000
000000
000000
000000
ENDCHAR
STARTCHAR a8c1
ENCODING 43201
SWIDTH 576 0
DWIDTH 24 0
BBX 24 24 0 -4
BITMAP
000000
000000
000000
000000
000000
000000
000000
000000
000000
000000
000000
000000
000000
000000
000000
000000
000000
000000
000000
000000
000000
000000
000000
000000
ENDCHAR
STARTCHAR a8c2
ENCODING 43202
SWIDTH 576 0
DWIDTH 24 0
BBX 24 24 0 -4
BITMAP
000000
000000
000000
000000
000000
000000
000000
000000
000000
000000
000000
000000
000000
000000
000000
000000
000000
000000
000000
000000
000000
000000
000000
000000
ENDCHAR
STARTCHAR a8c3
ENCODING 43203
SWIDTH 576 0
DWIDTH 24 0
BBX 24 24 0 -4
BITMAP
000000
000000
000000
000000
000000
000000
000000
000000
000000
000000
000000
000000
000000
000000
000000
000000
000000
000000
000000
000000
000000
000000
000000
000000
ENDCHAR
STARTCHAR a8c4
ENCODING 43204
SWIDTH 576 0
DWIDTH 24 0
BBX 24 24 0 -4
BITMAP
000000
000000
000000
000000
000000
000000
000000
000000
000000
000000
000000
000000
000000
000000
000000
000000
000000
000000
000000
000000
000000
000000
000000
000000
ENDCHAR
STARTCHAR a8c5
ENCODING 43205
SWIDTH 576 0
DWIDTH 24 0
BBX 24 24 0 -4
BITMAP
000000
000000
000000
000000
000000
000000
000000
000000
000000
000000
000000
000000
000000
000000
000000
000000
000000
000000
000000
000000
000000
000000
000000
000000
ENDCHAR
STARTCHAR a8c6
ENCODING 43206
SWIDTH 576 0
DWIDTH 24 0
BBX 24 24 0 -4
BITMAP
000000
000000
000000
000000
000000
000000
000000
000000
000000
000000
000000
000000
000000
000000
000000
000000
000000
000000
000000
000000
000000
000000
000000
000000
ENDCHAR
STARTCHAR a8c7
ENCODING 43207
SWIDTH 576 0
DWIDTH 24 0
BBX 24 24 0 -4
BITMAP
000000
000000
000000
000000
000000
000000
000000
000000
000000
000000
000000
000000
000000
000000
000000
000000
000000
000000
000000
000000
000000
000000
000000
000000
ENDCHAR
STARTCHAR a8c8
ENCODING 43208
SWIDTH 576 0
DWIDTH 24 0
BBX 24 24 0 -4
BITMAP
000000
000000
000000
000000
000000
000000
000000
000000
000000
000000
000000
000000
000000
000000
000000
000000
000000
000000
000000
000000
000000
000000
000000
000000
ENDCHAR
STARTCHAR a8c9
ENCODING 43209
SWIDTH 576 0
DWIDTH 24 0
BBX 24 24 0 -4
BITMAP
000000
000000
000000
000000
000000
000000
000000
000000
000000
000000
000000
000000
000000
000000
000000
000000
000000
000000
000000
000000
000000
000000
000000
000000
ENDCHAR
STARTCHAR a8ca
ENCODING 43210
SWIDTH 576 0
DWIDTH 24 0
BBX 24 24 0 -4
BITMAP
000000
000000
000000
000000
000000
000000
000000
000000
000000
000000
000000
000000
000000
000000
000000
000000
000000
000000
000000
000000
000000
000000
000000
000000
ENDCHAR
STARTCHAR a8cb
ENCODING 43211
SWIDTH 576 0
DWIDTH 24 0
BBX 24 24 0 -4
BITMAP
000000
000000
000000
000000
000000
000000
000000
000000
000000
000000
000000
000000
000000
000000
000000
000000
000000
000000
000000
000000
000000
000000
000000
000000
ENDCHAR
STARTCHAR a8cc
ENCODING 43212
SWIDTH 576 0
DWIDTH 24 0
BBX 24 24 0 -4
BITMAP
000000
000000
000000
000000
000000
000000
000000
000000
000000
000000
000000
000000
000000
000000
000000
000000
000000
000000
000000
000000
000000
000000
000000
000000
ENDCHAR
STARTCHAR a8cd
ENCODING 43213
SWIDTH 576 0
DWIDTH 24 0
BBX 24 24 0 -4
BITMAP
000000
000000
000000
000000
000000
000000
000000
000000
000000
000000
000000
000000
000000
000000
000000
000000
000000
000000
000000
000000
000000
000000
000000
000000
ENDCHAR
STARTCHAR a8ce
ENCODING 43214
SWIDTH 576 0
DWIDTH 24 0
BBX 24 24 0 -4
BITMAP
000000
000000
000000
000000
000000
000000
000000
000000
000000
000000
000000
000000
000000
000000
000000
000000
000000
000000
000000
000000
000000
000000
000000
000000
ENDCHAR
STARTCHAR a8cf
ENCODING 43215
SWIDTH 576 0
DWIDTH 24 0
BBX 24 24 0 -4
BITMAP
000000
000000
000000
000000
000000
000000
000000
000000
000000
000000
000000
000000
000000
000000
000000
000000
000000
000000
000000
000000
000000
000000
000000
000000
ENDCHAR
STARTCHAR a8d0
ENCODING 43216
SWIDTH 576 0
DWIDTH 24 0
BBX 24 24 0 -4
BITMAP
000000
000000
000000
000000
000000
000000
000000
000000
000000
000000
000000
000000
000000
000000
000000
000000
000000
000000
000000
000000
000000
000000
000000
000000
ENDCHAR
STARTCHAR a8d1
ENCODING 43217
SWIDTH 576 0
DWIDTH 24 0
BBX 24 24 0 -4
BITMAP
000000
000000
000000
000000
000000
000000
000000
000000
000000
000000
000000
000000
000000
000000
000000
000000
000000
000000
000000
000000
000000
000000
000000
000000
ENDCHAR
STARTCHAR a8d2
ENCODING 43218
SWIDTH 576 0
DWIDTH 24 0
BBX 24 24 0 -4
BITMAP
000000
000000
000000
000000
000000
000000
000000
000000
000000
000000
000000
000000
000000
000000
000000
000000
000000
000000
000000
000000
000000
000000
000000
000000
ENDCHAR
STARTCHAR a8d3
ENCODING 43219
SWIDTH 576 0
DWIDTH 24 0
BBX 24 24 0 -4
BITMAP
000000
000000
000000
000000
000000
000000
000000
000000
000000
000000
000000
000000
000000
000000
000000
000000
000000
000000
000000
000000
000000
000000
000000
000000
ENDCHAR
STARTCHAR a8d4
ENCODING 43220
SWIDTH 576 0
DWIDTH 24 0
BBX 24 24 0 -4
BITMAP
000000
000000
000000
000000
000000
000000
000000
000000
000000
000000
000000
000000
000000
000000
000000
000000
000000
000000
000000
000000
000000
000000
000000
000000
ENDCHAR
STARTCHAR a8d5
ENCODING 43221
SWIDTH 576 0
DWIDTH 24 0
BBX 24 24 0 -4
BITMAP
000000
000000
000000
000000
000000
000000
000000
000000
000000
000000
000000
000000
000000
000000
000000
000000
000000
000000
000000
000000
000000
000000
000000
000000
ENDCHAR
STARTCHAR a8d6
ENCODING 43222
SWIDTH 576 0
DWIDTH 24 0
BBX 24 24 0 -4
BITMAP
000000
000000
000000
000000
000000
000000
000000
000000
000000
000000
000000
000000
000000
000000
000000
000000
000000
000000
000000
000000
000000
000000
000000
000000
ENDCHAR
STARTCHAR a8d7
ENCODING 43223
SWIDTH 576 0
DWIDTH 24 0
BBX 24 24 0 -4
BITMAP
000000
000000
000000
000000
000000
000000
000000
000000
000000
000000
000000
000000
000000
000000
000000
000000
000000
000000
000000
000000
000000
000000
000000
000000
ENDCHAR
STARTCHAR a8d8
ENCODING 43224
SWIDTH 576 0
DWIDTH 24 0
BBX 24 24 0 -4
BITMAP
000000
000000
000000
000000
000000
000000
000000
000000
000000
000000
000000
000000
000000
000000
000000
000000
000000
000000
000000
000000
000000
000000
000000
000000
ENDCHAR
STARTCHAR a8d9
ENCODING 43225
SWIDTH 576 0
DWIDTH 24 0
BBX 24 24 0 -4
BITMAP
000000
000000
000000
000000
000000
000000
000000
000000
000000
000000
000000
000000
000000
000000
000000
000000
000000
000000
000000
000000
000000
000000
000000
000000
ENDCHAR
STARTCHAR a8da
ENCODING 43226
SWIDTH 576 0
DWIDTH 24 0
BBX 24 24 0 -4
BITMAP
000000
000000
000000
000000
000000
000000
000000
000000
000000
000000
000000
000000
000000
000000
000000
000000
000000
000000
000000
000000
000000
000000
000000
000000
ENDCHAR
STARTCHAR a8db
ENCODING 43227
SWIDTH 576 0
DWIDTH 24 0
BBX 24 24 0 -4
BITMAP
000000
000000
000000
000000
000000
000000
000000
000000
000000
000000
000000
000000
000000
000000
000000
000000
000000
000000
000000
000000
000000
000000
000000
000000
ENDCHAR
STARTCHAR a8dc
ENCODING 43228
SWIDTH 576 0
DWIDTH 24 0
BBX 24 24 0 -4
BITMAP
000000
000000
000000
000000
000000
000000
000000
000000
000000
000000
000000
000000
000000
000000
000000
000000
000000
000000
000000
000000
000000
000000
000000
000000
ENDCHAR
STARTCHAR a8dd
ENCODING 43229
SWIDTH 576 0
DWIDTH 24 0
BBX 24 24 0 -4
BITMAP
000000
000000
000000
000000
000000
000000
000000
000000
000000
000000
000000
000000
000000
000000
000000
000000
000000
000000
000000
000000
000000
000000
000000
000000
ENDCHAR
STARTCHAR a8de
ENCODING 43230
SWIDTH 576 0
DWIDTH 24 0
BBX 24 24 0 -4
BITMAP
000000
000000
000000
000000
000000
000000
000000
000000
000000
000000
000000
000000
000000
000000
000000
000000
000000
000000
000000
000000
000000
000000
000000
000000
ENDCHAR
STARTCHAR a8df
ENCODING 43231
SWIDTH 576 0
DWIDTH 24 0
BBX 24 24 0 -4
BITMAP
000000
000000
000000
000000
000000
000000
000000
000000
000000
000000
000000
000000
000000
000000
000000
000000
000000
000000
000000
000000
000000
000000
000000
000000
ENDCHAR
STARTCHAR a8e0
ENCODING 43232
SWIDTH 576 0
DWIDTH 24 0
BBX 24 24 0 -4
BITMAP
000000
000000
000000
000000
000000
000000
000000
000000
000000
000000
000000
000000
000000
000000
000000
000000
000000
000000
000000
000000
000000
000000
000000
000000
ENDCHAR
STARTCHAR a8e1
ENCODING 43233
SWIDTH 576 0
DWIDTH 24 0
BBX 24 24 0 -4
BITMAP
000000
000000
000000
000000
000000
000000
000000
000000
000000
000000
000000
000000
000000
000000
000000
000000
000000
000000
000000
000000
000000
000000
000000
000000
ENDCHAR
STARTCHAR a8e2
ENCODING 43234
SWIDTH 576 0
DWIDTH 24 0
BBX 24 24 0 -4
BITMAP
000000
000000
000000
000000
000000
000000
000000
000000
000000
000000
000000
000000
000000
000000
000000
000000
000000
000000
000000
000000
000000
000000
000000
000000
ENDCHAR
STARTCHAR a8e3
ENCODING 43235
SWIDTH 576 0
DWIDTH 24 0
BBX 24 24 0 -4
BITMAP
000000
000000
000000
000000
000000
000000
000000
000000
000000
000000
000000
000000
000000
000000
000000
000000
000000
000000
000000
000000
000000
000000
000000
000000
ENDCHAR
STARTCHAR a8e4
ENCODING 43236
SWIDTH 576 0
DWIDTH 24 0
BBX 24 24 0 -4
BITMAP
000000
000000
000000
000000
000000
000000
000000
000000
000000
000000
000000
000000
000000
000000
000000
000000
000000
000000
000000
000000
000000
000000
000000
000000
ENDCHAR
STARTCHAR a8e5
ENCODING 43237
SWIDTH 576 0
DWIDTH 24 0
BBX 24 24 0 -4
BITMAP
000000
000000
000000
000000
000000
000000
000000
000000
000000
000000
000000
000000
000000
000000
000000
000000
000000
000000
000000
000000
000000
000000
000000
000000
ENDCHAR
STARTCHAR a8e6
ENCODING 43238
SWIDTH 576 0
DWIDTH 24 0
BBX 24 24 0 -4
BITMAP
000000
000000
000000
000000
000000
000000
000000
000000
000000
000000
000000
000000
000000
000000
000000
000000
000000
000000
000000
000000
000000
000000
000000
000000
ENDCHAR
STARTCHAR a8e7
ENCODING 43239
SWIDTH 576 0
DWIDTH 24 0
BBX 24 24 0 -4
BITMAP
000000
000000
000000
000000
000000
000000
000000
000000
000000
000000
000000
000000
000000
000000
000000
000000
000000
000000
000000
000000
000000
000000
000000
000000
ENDCHAR
STARTCHAR a8e8
ENCODING 43240
SWIDTH 576 0
DWIDTH 24 0
BBX 24 24 0 -4
BITMAP
000000
000000
000000
000000
000000
000000
000000
000000
000000
000000
000000
000000
000000
000000
000000
000000
000000
000000
000000
000000
000000
000000
000000
000000
ENDCHAR
STARTCHAR a8e9
ENCODING 43241
SWIDTH 576 0
DWIDTH 24 0
BBX 24 24 0 -4
BITMAP
000000
000000
000000
000000
000000
000000
000000
000000
000000
000000
000000
000000
000000
000000
000000
000000
000000
000000
000000
000000
000000
000000
000000
000000
ENDCHAR
STARTCHAR a8ea
ENCODING 43242
SWIDTH 576 0
DWIDTH 24 0
BBX 24 24 0 -4
BITMAP
000000
000000
000000
000000
000000
000000
000000
000000
000000
000000
000000
000000
000000
000000
000000
000000
000000
000000
000000
000000
000000
000000
000000
000000
ENDCHAR
STARTCHAR a8eb
ENCODING 43243
SWIDTH 576 0
DWIDTH 24 0
BBX 24 24 0 -4
BITMAP
000000
000000
000000
000000
000000
000000
000000
000000
000000
000000
000000
000000
000000
000000
000000
000000
000000
000000
000000
000000
000000
000000
000000
000000
ENDCHAR
STARTCHAR a8ec
ENCODING 43244
SWIDTH 576 0
DWIDTH 24 0
BBX 24 24 0 -4
BITMAP
000000
000000
000000
000000
000000
000000
000000
000000
000000
000000
000000
000000
000000
000000
000000
000000
000000
000000
000000
000000
000000
000000
000000
000000
ENDCHAR
STARTCHAR a8ed
ENCODING 43245
SWIDTH 576 0
DWIDTH 24 0
BBX 24 24 0 -4
BITMAP
000000
000000
000000
000000
000000
000000
000000
000000
000000
000000
000000
000000
000000
000000
000000
000000
000000
000000
000000
000000
000000
000000
000000
000000
ENDCHAR
STARTCHAR a8ee
ENCODING 43246
SWIDTH 576 0
DWIDTH 24 0
BBX 24 24 0 -4
BITMAP
000000
000000
000000
000000
000000
000000
000000
000000
000000
000000
000000
000000
000000
000000
000000
000000
000000
000000
000000
000000
000000
000000
000000
000000
ENDCHAR
STARTCHAR a8ef
ENCODING 43247
SWIDTH 576 0
DWIDTH 24 0
BBX 24 24 0 -4
BITMAP
000000
000000
000000
000000
000000
000000
000000
000000
000000
000000
000000
000000
000000
000000
000000
000000
000000
000000
000000
000000
000000
000000
000000
000000
ENDCHAR
STARTCHAR a8f0
ENCODING 43248
SWIDTH 576 0
DWIDTH 24 0
BBX 24 24 0 -4
BITMAP
000000
000000
000000
000000
000000
000000
000000
000000
000000
000000
000000
000000
000000
000000
000000
000000
000000
000000
000000
000000
000000
000000
000000
000000
ENDCHAR
STARTCHAR a8f1
ENCODING 43249
SWIDTH 576 0
DWIDTH 24 0
BBX 24 24 0 -4
BITMAP
000000
000000
000000
000000
000000
000000
000000
000000
000000
000000
000000
000000
000000
000000
000000
000000
000000
000000
000000
000000
000000
000000
000000
000000
ENDCHAR
STARTCHAR a8f2
ENCODING 43250
SWIDTH 576 0
DWIDTH 24 0
BBX 24 24 0 -4
BITMAP
000000
000000
000000
000000
000000
000000
000000
000000
000000
000000
000000
000000
000000
000000
000000
000000
000000
000000
000000
000000
000000
000000
000000
000000
ENDCHAR
STARTCHAR a8f3
ENCODING 43251
SWIDTH 576 0
DWIDTH 24 0
BBX 24 24 0 -4
BITMAP
000000
000000
000000
000000
000000
000000
000000
000000
000000
000000
000000
000000
000000
000000
000000
000000
000000
000000
000000
000000
000000
000000
000000
000000
ENDCHAR
STARTCHAR a8f4
ENCODING 43252
SWIDTH 576 0
DWIDTH 24 0
BBX 24 24 0 -4
BITMAP
000000
000000
000000
000000
000000
000000
000000
000000
000000
000000
000000
000000
000000
000000
000000
000000
000000
000000
000000
000000
000000
000000
000000
000000
ENDCHAR
STARTCHAR a8f5
ENCODING 43253
SWIDTH 576 0
DWIDTH 24 0
BBX 24 24 0 -4
BITMAP
000000
000000
000000
000000
000000
000000
000000
000000
000000
000000
000000
000000
000000
000000
000000
000000
000000
000000
000000
000000
000000
000000
000000
000000
ENDCHAR
STARTCHAR a8f6
ENCODING 43254
SWIDTH 576 0
DWIDTH 24 0
BBX 24 24 0 -4
BITMAP
000000
000000
000000
000000
000000
000000
000000
000000
000000
000000
000000
000000
000000
000000
000000
000000
000000
000000
000000
000000
000000
000000
000000
000000
ENDCHAR
STARTCHAR a8f7
ENCODING 43255
SWIDTH 576 0
DWIDTH 24 0
BBX 24 24 0 -4
BITMAP
000000
000000
000000
000000
000000
000000
000000
000000
000000
000000
000000
000000
000000
000000
000000
000000
000000
000000
000000
000000
000000
000000
000000
000000
ENDCHAR
STARTCHAR a8f8
ENCODING 43256
SWIDTH 576 0
DWIDTH 24 0
BBX 24 24 0 -4
BITMAP
000000
000000
000000
000000
000000
000000
000000
000000
000000
000000
000000
000000
000000
000000
000000
000000
000000
000000
000000
000000
000000
000000
000000
000000
ENDCHAR
STARTCHAR a8f9
ENCODING 43257
SWIDTH 576 0
DWIDTH 24 0
BBX 24 24 0 -4
BITMAP
000000
000000
000000
000000
000000
000000
000000
000000
000000
000000
000000
000000
000000
000000
000000
000000
000000
000000
000000
000000
000000
000000
000000
000000
ENDCHAR
STARTCHAR a8fa
ENCODING 43258
SWIDTH 576 0
DWIDTH 24 0
BBX 24 24 0 -4
BITMAP
000000
000000
000000
000000
000000
000000
000000
000000
000000
000000
000000
000000
000000
000000
000000
000000
000000
000000
000000
000000
000000
000000
000000
000000
ENDCHAR
STARTCHAR a8fb
ENCODING 43259
SWIDTH 576 0
DWIDTH 24 0
BBX 24 24 0 -4
BITMAP
000000
000000
000000
000000
000000
000000
000000
000000
000000
000000
000000
000000
000000
000000
000000
000000
000000
000000
000000
000000
000000
000000
000000
000000
ENDCHAR
STARTCHAR a8fc
ENCODING 43260
SWIDTH 576 0
DWIDTH 24 0
BBX 24 24 0 -4
BITMAP
000000
000000
000000
000000
000000
000000
000000
000000
000000
000000
000000
000000
000000
000000
000000
000000
000000
000000
000000
000000
000000
000000
000000
000000
ENDCHAR
STARTCHAR a8fd
ENCODING 43261
SWIDTH 576 0
DWIDTH 24 0
BBX 24 24 0 -4
BITMAP
000000
000000
000000
000000
000000
000000
000000
000000
000000
000000
000000
000000
000000
000000
000000
000000
000000
000000
000000
000000
000000
000000
000000
000000
ENDCHAR
STARTCHAR a8fe
ENCODING 43262
SWIDTH 576 0
DWIDTH 24 0
BBX 24 24 0 -4
BITMAP
000000
000000
000000
000000
000000
000000
000000
000000
000000
000000
000000
000000
000000
000000
000000
000000
000000
000000
000000
000000
000000
000000
000000
000000
ENDCHAR
STARTCHAR a9a1
ENCODING 43425
SWIDTH 576 0
DWIDTH 24 0
BBX 24 24 0 -4
BITMAP
000000
000000
008001
c001c0
01c001
c001c0
01c001
c00080
008000
800080
008000
000000
01c001
c001c0
000000
000000
800001
800001
800001
800001
ffffff
ffffff
ffffff
ffffff
ENDCHAR
STARTCHAR a9a2
ENCODING 43426
SWIDTH 576 0
DWIDTH 24 0
BBX 24 24 0 -4
BITMAP
000003
b803b8
019801
980110
022000
000000
000000
000000
000000
000000
000000
000000
000000
000000
000000
000000
800001
800001
800001
800001
ffffff
ffffff
ffffff
ffffff
ENDCHAR
STARTCHAR a9a3
ENCODING 43427
SWIDTH 576 0
DWIDTH 24 0
BBX 24 24 0 -4
BITMAP
000000
000000
011001
100110
011001
1007fc
07fc01
100110
011001
100ff8
0ff802
200220
022002
200220
000000
000000
800001
800001
800001
800001
ffffff
ffffff
ffffff
ffffff
ENDCHAR
STARTCHAR a9a4
ENCODING 43428
SWIDTH 576 0
DWIDTH 24 0
BBX 24 24 0 -4
BITMAP
000000
000000
004000
4001f0
035806
4c064c
074003
c001e0
007800
58004c
064c06
4c0358
01f000
400040
000000
000000
800001
800001
800001
800001
ffffff
ffffff
ffffff
ffffff
ENDCHAR
STARTCHAR a9a5
ENCODING 43429
SWIDTH 576 0
DWIDTH 24 0
BBX 24 24 0 -4
BITMAP
000000
000000
030404
840488
084808
500490
04a003
200040
008001
300148
024802
840484
044808
480830
000000
000000
800001
800001
800001
800001
ffffff
ffffff
ffffff
ffffff
ENDCHAR
STARTCHAR a9a6
ENCODING 43430
SWIDTH 576 0
DWIDTH 24 0
BBX 24 24 0 -4
BITMAP
000000
000000
01c002
200620
062006
200640
034003
80019c
038805
880cd0
0cd00c
600c64
0c7404
b80310
000000
000000
800001
800001
800001
800001
ffffff
ffffff
ffffff
ffffff
ENDCHAR
STARTCHAR a9a7
ENCODING 43431
SWIDTH 576 0
DWIDTH 24 0
BBX 24 24 0 -4
BITMAP
000001
c001c0
00c000
c00080
010000
000000
000000
000000
000000
000000
000000
000000
000000
000000
000000
000000
800001
800001
800001
800001
ffffff
ffffff
ffffff
ffffff
ENDCHAR
STARTCHAR a9a8
ENCODING 43432
SWIDTH 576 0
DWIDTH 24 0
BBX 24 24 0 -4
BITMAP
000000
100020
006000
4000c0
008001
800180
030003
000300
030003
000300
018001
800080
00c000
400060
002000
100000
800001
800001
800001
800001
ffffff
ffffff
ffffff
ffffff
ENDCHAR
STARTCHAR a9a9
ENCODING 43433
SWIDTH 576 0
DWIDTH 24 0
BBX 24 24 0 -4
BITMAP
000002
000100
018000
8000c0
004000
600060
003000
300030
003000
300030
006000
600040
00c000
800180
010002
000000
800001
800001
800001
800001
ffffff
ffffff
ffffff
ffffff
ENDCHAR
STARTCHAR a9aa
ENCODING 43434
SWIDTH 576 0
DWIDTH 24 0
BBX 24 24 0 -4
BITMAP
000000
000000
000000
000080
01c000
800c98
0c9802
a001c0
01c002
a00c98
0c9800
8001c0
008000
000000
000000
000000
800001
800001
800001
800001
ffffff
ffffff
ffffff
ffffff
ENDCHAR
STARTCHAR a9ab
ENCODING 43435
SWIDTH 576 0
DWIDTH 24 0
BBX 24 24 0 -4
BITMAP
000000
000000
000000
000000
008000
800080
008000
800ff8
008000
800080
008000
800000
000000
000000
000000
000000
800001
800001
800001
800001
ffffff
ffffff
ffffff
ffffff
ENDCHAR
STARTCHAR a9ac
ENCODING 43436
SWIDTH 576 0
DWIDTH 24 0
BBX 24 24 0 -4
BITMAP
000000
000000
000000
000000
000000
000000
000000
000000
000000
000000
000000
0001c0
01c000
c000c0
008001
000000
800001
800001
800001
800001
ffffff
ffffff
ffffff
ffffff
ENDCHAR
STARTCHAR a9ad
ENCODING 43437
SWIDTH 576 0
DWIDTH 24 0
BBX 24 24 0 -4
BITMAP
000000
000000
000000
000000
000000
000000
000000
0007f8
000000
000000
000000
000000
000000
000000
000000
000000
800001
800001
800001
800001
ffffff
ffffff
ffffff
ffffff
ENDCHAR
STARTCHAR a9ae
ENCODING 43438
SWIDTH 576 0
DWIDTH 24 0
BBX 24 24 0 -4
BITMAP
000000
000000
000000
000000
000000
000000
000000
000000
000000
000000
000000
000000
01c001
c001c0
000000
000000
800001
800001
800001
800001
ffffff
ffffff
ffffff
ffffff
ENDCHAR
STARTCHAR a9af
ENCODING 43439
SWIDTH 576 0
DWIDTH 24 0
BBX 24 24 0 -4
BITMAP
000000
040004
000800
080008
001000
100020
002000
400040
008000
800100
010002
000200
040004
000400
080008
000000
800001
800001
800001
800001
ffffff
ffffff
ffffff
ffffff
ENDCHAR
STARTCHAR a9b0
ENCODING 43440
SWIDTH 576 0
DWIDTH 24 0
BBX 24 24 0 -4
BITMAP
000000
000000
01e003
300630
061806
180618
061806
380658
069807
180618
061806
180618
061803
3001e0
000000
000000
800001
800001
800001
800001
ffffff
ffffff
ffffff
ffffff
ENDCHAR
STARTCHAR a9b1
ENCODING 43441
SWIDTH 576 0
DWIDTH 24 0
BBX 24 24 0 -4
BITMAP
000000
000000
00c001
c007c0
00c000
c000c0
00c000
c000c0
00c000
c000c0
00c000
c000c0
00c000
c007f8
000000
000000
800001
800001
800001
800001
ffffff
ffffff
ffffff
ffffff
ENDCHAR
STARTCHAR a9b2
ENCODING 43442
SWIDTH 576 0
DWIDTH 24 0
BBX 24 24 0 -4
BITMAP
000000
000000
01f003
08060c
040c00
0c000c
000c00
180018
003000
6000c0
018003
000304
060407
fc07fc
000000
000000
800001
800001
800001
800001
ffffff
ffffff
ffffff
ffffff
ENDCHAR
STARTCHAR a9b3
ENCODING 43443
SWIDTH 576 0
DWIDTH 24 0
BBX 24 24 0 -4
BITMAP
000000
000000
01e002
300418
001800
180010
002000
e001f0
001800
0c000c
000c00
0c000c
001804
7003e0
000000
000000
800001
800001
800001
800001
ffffff
ffffff
ffffff
ffffff
ENDCHAR
STARTCHAR a9b4
ENCODING 43444
SWIDTH 576 0
DWIDTH 24 0
BBX 24 24 0 -4
BITMAP
000000
000000
003000
7000b0
00b000
b00130
013001
300230
023002
300430
043007
fc0030
003000
3000fc
000000
000000
800001
800001
800001
800001
ffffff
ffffff
ffffff
ffffff
ENDCHAR
STARTCHAR a9b5
ENCODING 43445
SWIDTH 576 0
DWIDTH 24 0
BBX 24 24 0 -4
BITMAP
000000
000000
07fc07
f80400
040004
000400
04f005
f8060c
000c00
0c000c
000c00
0c000c
001804
7003e0
000000
000000
800001
800001
800001
800001
ffffff
ffffff
ffffff
ffffff
ENDCHAR
STARTCHAR a9b6
ENCODING 43446
SWIDTH 576 0
DWIDTH 24 0
BBX 24 24 0 -4
BITMAP
000000
000000
00f801
840300
020006
000600
060006
f00718
060c06
0c060c
060c06
0c060c
020802
1801f0
000000
000000
800001
800001
800001
800001
ffffff
ffffff
ffffff
ffffff
ENDCHAR
STARTCHAR a9b7
ENCODING 43447
SWIDTH 576 0
DWIDTH 24 0
BBX 24 24 0 -4
BITMAP
000000
000000
07fc07
fc040c
040804
080010
001000
100030
002000
600060
006000
c000c0
00c000
c000c0
000000
000000
800001
800001
800001
800001
ffffff
ffffff
ffffff
ffffff
ENDCHAR
STARTCHAR a9b8
ENCODING 43448
SWIDTH 576 0
DWIDTH 24 0
BBX 24 24 0 -4
BITMAP
000000
000000
01f001
08060c
060c06
0c060c
060c03
0801f0
021806
0c060c
060c06
0c060c
060c02
0801f0
000000
000000
800001
800001
800001
800001
ffffff
ffffff
ffffff
ffffff
ENDCHAR
STARTCHAR a9b9
ENCODING 43449
SWIDTH 576 0
DWIDTH 24 0
BBX 24 24 0 -4
BITMAP
000000
000000
01f001
080208
060c06
0c060c
060c06
0c060c
031c01
ec000c
000c00
0c0008
001804
3003e0
000000
000000
800001
800001
800001
800001
ffffff
ffffff
ffffff
ffffff
ENDCHAR
STARTCHAR a9ba
ENCODING 43450
SWIDTH 576 0
DWIDTH 24 0
BBX 24 24 0 -4
BITMAP
000000
000000
000000
000000
01c001
c001c0
000000
000000
000000
000000
01c001
c001c0
000000
000000
000000
000000
800001
800001
800001
800001
ffffff
ffffff
ffffff
ffffff
ENDCHAR
STARTCHAR a9bb
ENCODING 43451
SWIDTH 576 0
DWIDTH 24 0
BBX 24 24 0 -4
BITMAP
000000
000000
000000
000000
01c001
c001c0
000000
000000
000000
000000
01c001
c000c0
00c000
800100
000000
000000
800001
800001
800001
800001
ffffff
ffffff
ffffff
ffffff
ENDCHAR
STARTCHAR a9bc
ENCODING 43452
SWIDTH 576 0
DWIDTH 24 0
BBX 24 24 0 -4
BITMAP
000000
000000
000800
100020
004000
800100
020004
000800
040002
000100
008000
400020
001000
080000
000000
000000
800001
800001
800001
800001
ffffff
ffffff
ffffff
ffffff
ENDCHAR
STARTCHAR a9bd
ENCODING 43453
SWIDTH 576 0
DWIDTH 24 0
BBX 24 24 0 -4
BITMAP
000000
000000
000000
000000
000000
000000
0ff800
000000
000000
000ff8
000000
000000
000000
000000
000000
000000
800001
800001
800001
800001
ffffff
ffffff
ffffff
ffffff
ENDCHAR
STARTCHAR a9be
ENCODING 43454
SWIDTH 576 0
DWIDTH 24 0
BBX 24 24 0 -4
BITMAP
000000
000000
040002
000100
008000
400020
001000
080004
000800
100020
004000
800100
020004
000000
000000
000000
800001
800001
800001
800001
ffffff
ffffff
ffffff
ffffff
ENDCHAR
STARTCHAR a9bf
ENCODING 43455
SWIDTH 576 0
DWIDTH 24 0
BBX 24 24 0 -4
BITMAP
000000
000000
01f003
08060c
060c07
0c030c
001800
180030
002000
200040
004000
000000
00e000
e000e0
000000
000000
800001
800001
800001
800001
ffffff
ffffff
ffffff
ffffff
ENDCHAR
STARTCHAR a9c0
ENCODING 43456
SWIDTH 576 0
DWIDTH 24 0
BBX 24 24 0 -4
BITMAP
000000
000000
01e006
180408
080408
d40934
0b340b
340b34
0b340b
340b34
0b7409
b80800
040406
3801c0
000000
000000
800001
800001
800001
800001
ffffff
ffffff
ffffff
ffffff
ENDCHAR
STARTCHAR a9c1
ENCODING 43457
SWIDTH 576 0
DWIDTH 24 0
BBX 24 24 0 -4
BITMAP
000000
000000
008000
8001c0
014001
400160
026002
600260
023002
3003f0
043004
180418
041804
180e3c
000000
000000
800001
800001
800001
800001
ffffff
ffffff
ffffff
ffffff
ENDCHAR
STARTCHAR a9c2
ENCODING 43458
SWIDTH 576 0
DWIDTH 24 0
BBX 24 24 0 -4
BITMAP
000000
000000
0fe006
18060c
060c06
0c060c
060c06
1807f0
061806
0c060c
060c06
0c060c
060c06
180fe0
000000
000000
800001
800001
800001
800001
ffffff
ffffff
ffffff
ffffff
ENDCHAR
STARTCHAR a9c3
ENCODING 43459
SWIDTH 576 0
DWIDTH 24 0
BBX 24 24 0 -4
BITMAP
000000
000000
01e003
34061c
060c0c
040c04
0c000c
000c00
0c000c
000c00
0c000c
000604
060c03
1801f0
000000
000000
800001
800001
800001
800001
ffffff
ffffff
ffffff
ffffff
ENDCHAR
STARTCHAR a9c4
ENCODING 43460
SWIDTH 576 0
DWIDTH 24 0
BBX 24 24 0 -4
BITMAP
000000
000000
0fe006
600630
061806
18060c
060c06
0c060c
060c06
0c060c
060c06
180618
063006
600fc0
000000
000000
800001
800001
800001
800001
ffffff
ffffff
ffffff
ffffff
ENDCHAR
STARTCHAR a9c5
ENCODING 43461
SWIDTH 576 0
DWIDTH 24 0
BBX 24 24 0 -4
BITMAP
000000
000000
0ff806
180604
060406
000620
062006
6007e0
066006
200620
060006
000604
060406
180ff8
000000
000000
800001
800001
800001
800001
ffffff
ffffff
ffffff
ffffff
ENDCHAR
ENDFONT
